%TF.GenerationSoftware,KiCad,Pcbnew,10.0.3*%
%TF.CreationDate,2026-05-24T23:13:42+07:00*%
%TF.ProjectId,node_sensor,6e6f6465-5f73-4656-9e73-6f722e6b6963,v1.0*%
%TF.SameCoordinates,Original*%
%TF.FileFunction,Legend,Top*%
%TF.FilePolarity,Positive*%
%FSLAX46Y46*%
G04 Gerber Fmt 4.6, Leading zero omitted, Abs format (unit mm)*
G04 Created by KiCad (PCBNEW 10.0.3) date 2026-05-24 23:13:42*
%MOMM*%
%LPD*%
G01*
G04 APERTURE LIST*
%ADD10C,0.100000*%
%ADD11C,0.150000*%
%ADD12C,0.120000*%
%ADD13C,0.250000*%
%ADD14C,0.200000*%
G04 APERTURE END LIST*
D10*
X119680000Y-53940000D02*
X120290000Y-53940000D01*
X119985000Y-53635000D02*
X119985000Y-54245000D01*
X127010000Y-41860000D02*
X127620000Y-41860000D01*
X127315000Y-41555000D02*
X127315000Y-42165000D01*
X131880000Y-57220000D02*
X132490000Y-57220000D01*
X131910000Y-43720000D02*
X132520000Y-43720000D01*
X131950000Y-70020000D02*
X132560000Y-70020000D01*
X132255000Y-69715000D02*
X132255000Y-70325000D01*
X132270000Y-56905000D02*
X132270000Y-57515000D01*
X132300000Y-43405000D02*
X132300000Y-44015000D01*
D11*
X104598095Y-42564819D02*
X104598095Y-43374342D01*
X104598095Y-43374342D02*
X104645714Y-43469580D01*
X104645714Y-43469580D02*
X104693333Y-43517200D01*
X104693333Y-43517200D02*
X104788571Y-43564819D01*
X104788571Y-43564819D02*
X104979047Y-43564819D01*
X104979047Y-43564819D02*
X105074285Y-43517200D01*
X105074285Y-43517200D02*
X105121904Y-43469580D01*
X105121904Y-43469580D02*
X105169523Y-43374342D01*
X105169523Y-43374342D02*
X105169523Y-42564819D01*
X106169523Y-43564819D02*
X105598095Y-43564819D01*
X105883809Y-43564819D02*
X105883809Y-42564819D01*
X105883809Y-42564819D02*
X105788571Y-42707676D01*
X105788571Y-42707676D02*
X105693333Y-42802914D01*
X105693333Y-42802914D02*
X105598095Y-42850533D01*
X105688499Y-71068910D02*
X104688499Y-71068910D01*
X104688499Y-71068910D02*
X104688499Y-70830815D01*
X104688499Y-70830815D02*
X104736118Y-70687958D01*
X104736118Y-70687958D02*
X104831356Y-70592720D01*
X104831356Y-70592720D02*
X104926594Y-70545101D01*
X104926594Y-70545101D02*
X105117070Y-70497482D01*
X105117070Y-70497482D02*
X105259927Y-70497482D01*
X105259927Y-70497482D02*
X105450403Y-70545101D01*
X105450403Y-70545101D02*
X105545641Y-70592720D01*
X105545641Y-70592720D02*
X105640880Y-70687958D01*
X105640880Y-70687958D02*
X105688499Y-70830815D01*
X105688499Y-70830815D02*
X105688499Y-71068910D01*
X105640880Y-69687958D02*
X105688499Y-69783196D01*
X105688499Y-69783196D02*
X105688499Y-69973672D01*
X105688499Y-69973672D02*
X105640880Y-70068910D01*
X105640880Y-70068910D02*
X105545641Y-70116529D01*
X105545641Y-70116529D02*
X105164689Y-70116529D01*
X105164689Y-70116529D02*
X105069451Y-70068910D01*
X105069451Y-70068910D02*
X105021832Y-69973672D01*
X105021832Y-69973672D02*
X105021832Y-69783196D01*
X105021832Y-69783196D02*
X105069451Y-69687958D01*
X105069451Y-69687958D02*
X105164689Y-69640339D01*
X105164689Y-69640339D02*
X105259927Y-69640339D01*
X105259927Y-69640339D02*
X105355165Y-70116529D01*
X105021832Y-69307005D02*
X105688499Y-69068910D01*
X105688499Y-69068910D02*
X105021832Y-68830815D01*
X105688499Y-68449862D02*
X104688499Y-68449862D01*
X105688499Y-67878434D02*
X105117070Y-68307005D01*
X104688499Y-67878434D02*
X105259927Y-68449862D01*
X105688499Y-67449862D02*
X105021832Y-67449862D01*
X104688499Y-67449862D02*
X104736118Y-67497481D01*
X104736118Y-67497481D02*
X104783737Y-67449862D01*
X104783737Y-67449862D02*
X104736118Y-67402243D01*
X104736118Y-67402243D02*
X104688499Y-67449862D01*
X104688499Y-67449862D02*
X104783737Y-67449862D01*
X105021832Y-67116529D02*
X105021832Y-66735577D01*
X104688499Y-66973672D02*
X105545641Y-66973672D01*
X105545641Y-66973672D02*
X105640880Y-66926053D01*
X105640880Y-66926053D02*
X105688499Y-66830815D01*
X105688499Y-66830815D02*
X105688499Y-66735577D01*
X105164689Y-66402243D02*
X105164689Y-66068910D01*
X105688499Y-65926053D02*
X105688499Y-66402243D01*
X105688499Y-66402243D02*
X104688499Y-66402243D01*
X104688499Y-66402243D02*
X104688499Y-65926053D01*
X105640880Y-65545100D02*
X105688499Y-65402243D01*
X105688499Y-65402243D02*
X105688499Y-65164148D01*
X105688499Y-65164148D02*
X105640880Y-65068910D01*
X105640880Y-65068910D02*
X105593260Y-65021291D01*
X105593260Y-65021291D02*
X105498022Y-64973672D01*
X105498022Y-64973672D02*
X105402784Y-64973672D01*
X105402784Y-64973672D02*
X105307546Y-65021291D01*
X105307546Y-65021291D02*
X105259927Y-65068910D01*
X105259927Y-65068910D02*
X105212308Y-65164148D01*
X105212308Y-65164148D02*
X105164689Y-65354624D01*
X105164689Y-65354624D02*
X105117070Y-65449862D01*
X105117070Y-65449862D02*
X105069451Y-65497481D01*
X105069451Y-65497481D02*
X104974213Y-65545100D01*
X104974213Y-65545100D02*
X104878975Y-65545100D01*
X104878975Y-65545100D02*
X104783737Y-65497481D01*
X104783737Y-65497481D02*
X104736118Y-65449862D01*
X104736118Y-65449862D02*
X104688499Y-65354624D01*
X104688499Y-65354624D02*
X104688499Y-65116529D01*
X104688499Y-65116529D02*
X104736118Y-64973672D01*
X105688499Y-64545100D02*
X104688499Y-64545100D01*
X104688499Y-64545100D02*
X104688499Y-64164148D01*
X104688499Y-64164148D02*
X104736118Y-64068910D01*
X104736118Y-64068910D02*
X104783737Y-64021291D01*
X104783737Y-64021291D02*
X104878975Y-63973672D01*
X104878975Y-63973672D02*
X105021832Y-63973672D01*
X105021832Y-63973672D02*
X105117070Y-64021291D01*
X105117070Y-64021291D02*
X105164689Y-64068910D01*
X105164689Y-64068910D02*
X105212308Y-64164148D01*
X105212308Y-64164148D02*
X105212308Y-64545100D01*
X104688499Y-63640338D02*
X104688499Y-63021291D01*
X104688499Y-63021291D02*
X105069451Y-63354624D01*
X105069451Y-63354624D02*
X105069451Y-63211767D01*
X105069451Y-63211767D02*
X105117070Y-63116529D01*
X105117070Y-63116529D02*
X105164689Y-63068910D01*
X105164689Y-63068910D02*
X105259927Y-63021291D01*
X105259927Y-63021291D02*
X105498022Y-63021291D01*
X105498022Y-63021291D02*
X105593260Y-63068910D01*
X105593260Y-63068910D02*
X105640880Y-63116529D01*
X105640880Y-63116529D02*
X105688499Y-63211767D01*
X105688499Y-63211767D02*
X105688499Y-63497481D01*
X105688499Y-63497481D02*
X105640880Y-63592719D01*
X105640880Y-63592719D02*
X105593260Y-63640338D01*
X104783737Y-62640338D02*
X104736118Y-62592719D01*
X104736118Y-62592719D02*
X104688499Y-62497481D01*
X104688499Y-62497481D02*
X104688499Y-62259386D01*
X104688499Y-62259386D02*
X104736118Y-62164148D01*
X104736118Y-62164148D02*
X104783737Y-62116529D01*
X104783737Y-62116529D02*
X104878975Y-62068910D01*
X104878975Y-62068910D02*
X104974213Y-62068910D01*
X104974213Y-62068910D02*
X105117070Y-62116529D01*
X105117070Y-62116529D02*
X105688499Y-62687957D01*
X105688499Y-62687957D02*
X105688499Y-62068910D01*
X96723333Y-80089580D02*
X96675714Y-80137200D01*
X96675714Y-80137200D02*
X96532857Y-80184819D01*
X96532857Y-80184819D02*
X96437619Y-80184819D01*
X96437619Y-80184819D02*
X96294762Y-80137200D01*
X96294762Y-80137200D02*
X96199524Y-80041961D01*
X96199524Y-80041961D02*
X96151905Y-79946723D01*
X96151905Y-79946723D02*
X96104286Y-79756247D01*
X96104286Y-79756247D02*
X96104286Y-79613390D01*
X96104286Y-79613390D02*
X96151905Y-79422914D01*
X96151905Y-79422914D02*
X96199524Y-79327676D01*
X96199524Y-79327676D02*
X96294762Y-79232438D01*
X96294762Y-79232438D02*
X96437619Y-79184819D01*
X96437619Y-79184819D02*
X96532857Y-79184819D01*
X96532857Y-79184819D02*
X96675714Y-79232438D01*
X96675714Y-79232438D02*
X96723333Y-79280057D01*
X97675714Y-80184819D02*
X97104286Y-80184819D01*
X97390000Y-80184819D02*
X97390000Y-79184819D01*
X97390000Y-79184819D02*
X97294762Y-79327676D01*
X97294762Y-79327676D02*
X97199524Y-79422914D01*
X97199524Y-79422914D02*
X97104286Y-79470533D01*
X120896666Y-59234819D02*
X120896666Y-59949104D01*
X120896666Y-59949104D02*
X120849047Y-60091961D01*
X120849047Y-60091961D02*
X120753809Y-60187200D01*
X120753809Y-60187200D02*
X120610952Y-60234819D01*
X120610952Y-60234819D02*
X120515714Y-60234819D01*
X121325238Y-59330057D02*
X121372857Y-59282438D01*
X121372857Y-59282438D02*
X121468095Y-59234819D01*
X121468095Y-59234819D02*
X121706190Y-59234819D01*
X121706190Y-59234819D02*
X121801428Y-59282438D01*
X121801428Y-59282438D02*
X121849047Y-59330057D01*
X121849047Y-59330057D02*
X121896666Y-59425295D01*
X121896666Y-59425295D02*
X121896666Y-59520533D01*
X121896666Y-59520533D02*
X121849047Y-59663390D01*
X121849047Y-59663390D02*
X121277619Y-60234819D01*
X121277619Y-60234819D02*
X121896666Y-60234819D01*
X131574819Y-42791904D02*
X132384342Y-42791904D01*
X132384342Y-42791904D02*
X132479580Y-42744285D01*
X132479580Y-42744285D02*
X132527200Y-42696666D01*
X132527200Y-42696666D02*
X132574819Y-42601428D01*
X132574819Y-42601428D02*
X132574819Y-42410952D01*
X132574819Y-42410952D02*
X132527200Y-42315714D01*
X132527200Y-42315714D02*
X132479580Y-42268095D01*
X132479580Y-42268095D02*
X132384342Y-42220476D01*
X132384342Y-42220476D02*
X131574819Y-42220476D01*
X131574819Y-41315714D02*
X131574819Y-41506190D01*
X131574819Y-41506190D02*
X131622438Y-41601428D01*
X131622438Y-41601428D02*
X131670057Y-41649047D01*
X131670057Y-41649047D02*
X131812914Y-41744285D01*
X131812914Y-41744285D02*
X132003390Y-41791904D01*
X132003390Y-41791904D02*
X132384342Y-41791904D01*
X132384342Y-41791904D02*
X132479580Y-41744285D01*
X132479580Y-41744285D02*
X132527200Y-41696666D01*
X132527200Y-41696666D02*
X132574819Y-41601428D01*
X132574819Y-41601428D02*
X132574819Y-41410952D01*
X132574819Y-41410952D02*
X132527200Y-41315714D01*
X132527200Y-41315714D02*
X132479580Y-41268095D01*
X132479580Y-41268095D02*
X132384342Y-41220476D01*
X132384342Y-41220476D02*
X132146247Y-41220476D01*
X132146247Y-41220476D02*
X132051009Y-41268095D01*
X132051009Y-41268095D02*
X132003390Y-41315714D01*
X132003390Y-41315714D02*
X131955771Y-41410952D01*
X131955771Y-41410952D02*
X131955771Y-41601428D01*
X131955771Y-41601428D02*
X132003390Y-41696666D01*
X132003390Y-41696666D02*
X132051009Y-41744285D01*
X132051009Y-41744285D02*
X132146247Y-41791904D01*
X94723333Y-84839580D02*
X94675714Y-84887200D01*
X94675714Y-84887200D02*
X94532857Y-84934819D01*
X94532857Y-84934819D02*
X94437619Y-84934819D01*
X94437619Y-84934819D02*
X94294762Y-84887200D01*
X94294762Y-84887200D02*
X94199524Y-84791961D01*
X94199524Y-84791961D02*
X94151905Y-84696723D01*
X94151905Y-84696723D02*
X94104286Y-84506247D01*
X94104286Y-84506247D02*
X94104286Y-84363390D01*
X94104286Y-84363390D02*
X94151905Y-84172914D01*
X94151905Y-84172914D02*
X94199524Y-84077676D01*
X94199524Y-84077676D02*
X94294762Y-83982438D01*
X94294762Y-83982438D02*
X94437619Y-83934819D01*
X94437619Y-83934819D02*
X94532857Y-83934819D01*
X94532857Y-83934819D02*
X94675714Y-83982438D01*
X94675714Y-83982438D02*
X94723333Y-84030057D01*
X95104286Y-84030057D02*
X95151905Y-83982438D01*
X95151905Y-83982438D02*
X95247143Y-83934819D01*
X95247143Y-83934819D02*
X95485238Y-83934819D01*
X95485238Y-83934819D02*
X95580476Y-83982438D01*
X95580476Y-83982438D02*
X95628095Y-84030057D01*
X95628095Y-84030057D02*
X95675714Y-84125295D01*
X95675714Y-84125295D02*
X95675714Y-84220533D01*
X95675714Y-84220533D02*
X95628095Y-84363390D01*
X95628095Y-84363390D02*
X95056667Y-84934819D01*
X95056667Y-84934819D02*
X95675714Y-84934819D01*
X129318095Y-69354819D02*
X129318095Y-70164342D01*
X129318095Y-70164342D02*
X129365714Y-70259580D01*
X129365714Y-70259580D02*
X129413333Y-70307200D01*
X129413333Y-70307200D02*
X129508571Y-70354819D01*
X129508571Y-70354819D02*
X129699047Y-70354819D01*
X129699047Y-70354819D02*
X129794285Y-70307200D01*
X129794285Y-70307200D02*
X129841904Y-70259580D01*
X129841904Y-70259580D02*
X129889523Y-70164342D01*
X129889523Y-70164342D02*
X129889523Y-69354819D01*
X130413333Y-70354819D02*
X130603809Y-70354819D01*
X130603809Y-70354819D02*
X130699047Y-70307200D01*
X130699047Y-70307200D02*
X130746666Y-70259580D01*
X130746666Y-70259580D02*
X130841904Y-70116723D01*
X130841904Y-70116723D02*
X130889523Y-69926247D01*
X130889523Y-69926247D02*
X130889523Y-69545295D01*
X130889523Y-69545295D02*
X130841904Y-69450057D01*
X130841904Y-69450057D02*
X130794285Y-69402438D01*
X130794285Y-69402438D02*
X130699047Y-69354819D01*
X130699047Y-69354819D02*
X130508571Y-69354819D01*
X130508571Y-69354819D02*
X130413333Y-69402438D01*
X130413333Y-69402438D02*
X130365714Y-69450057D01*
X130365714Y-69450057D02*
X130318095Y-69545295D01*
X130318095Y-69545295D02*
X130318095Y-69783390D01*
X130318095Y-69783390D02*
X130365714Y-69878628D01*
X130365714Y-69878628D02*
X130413333Y-69926247D01*
X130413333Y-69926247D02*
X130508571Y-69973866D01*
X130508571Y-69973866D02*
X130699047Y-69973866D01*
X130699047Y-69973866D02*
X130794285Y-69926247D01*
X130794285Y-69926247D02*
X130841904Y-69878628D01*
X130841904Y-69878628D02*
X130889523Y-69783390D01*
X124888095Y-40794819D02*
X124888095Y-41604342D01*
X124888095Y-41604342D02*
X124935714Y-41699580D01*
X124935714Y-41699580D02*
X124983333Y-41747200D01*
X124983333Y-41747200D02*
X125078571Y-41794819D01*
X125078571Y-41794819D02*
X125269047Y-41794819D01*
X125269047Y-41794819D02*
X125364285Y-41747200D01*
X125364285Y-41747200D02*
X125411904Y-41699580D01*
X125411904Y-41699580D02*
X125459523Y-41604342D01*
X125459523Y-41604342D02*
X125459523Y-40794819D01*
X125840476Y-40794819D02*
X126459523Y-40794819D01*
X126459523Y-40794819D02*
X126126190Y-41175771D01*
X126126190Y-41175771D02*
X126269047Y-41175771D01*
X126269047Y-41175771D02*
X126364285Y-41223390D01*
X126364285Y-41223390D02*
X126411904Y-41271009D01*
X126411904Y-41271009D02*
X126459523Y-41366247D01*
X126459523Y-41366247D02*
X126459523Y-41604342D01*
X126459523Y-41604342D02*
X126411904Y-41699580D01*
X126411904Y-41699580D02*
X126364285Y-41747200D01*
X126364285Y-41747200D02*
X126269047Y-41794819D01*
X126269047Y-41794819D02*
X125983333Y-41794819D01*
X125983333Y-41794819D02*
X125888095Y-41747200D01*
X125888095Y-41747200D02*
X125840476Y-41699580D01*
X124758095Y-57844819D02*
X124758095Y-58654342D01*
X124758095Y-58654342D02*
X124805714Y-58749580D01*
X124805714Y-58749580D02*
X124853333Y-58797200D01*
X124853333Y-58797200D02*
X124948571Y-58844819D01*
X124948571Y-58844819D02*
X125139047Y-58844819D01*
X125139047Y-58844819D02*
X125234285Y-58797200D01*
X125234285Y-58797200D02*
X125281904Y-58749580D01*
X125281904Y-58749580D02*
X125329523Y-58654342D01*
X125329523Y-58654342D02*
X125329523Y-57844819D01*
X125758095Y-57940057D02*
X125805714Y-57892438D01*
X125805714Y-57892438D02*
X125900952Y-57844819D01*
X125900952Y-57844819D02*
X126139047Y-57844819D01*
X126139047Y-57844819D02*
X126234285Y-57892438D01*
X126234285Y-57892438D02*
X126281904Y-57940057D01*
X126281904Y-57940057D02*
X126329523Y-58035295D01*
X126329523Y-58035295D02*
X126329523Y-58130533D01*
X126329523Y-58130533D02*
X126281904Y-58273390D01*
X126281904Y-58273390D02*
X125710476Y-58844819D01*
X125710476Y-58844819D02*
X126329523Y-58844819D01*
X105466666Y-75884819D02*
X105466666Y-76599104D01*
X105466666Y-76599104D02*
X105419047Y-76741961D01*
X105419047Y-76741961D02*
X105323809Y-76837200D01*
X105323809Y-76837200D02*
X105180952Y-76884819D01*
X105180952Y-76884819D02*
X105085714Y-76884819D01*
X106466666Y-76884819D02*
X105895238Y-76884819D01*
X106180952Y-76884819D02*
X106180952Y-75884819D01*
X106180952Y-75884819D02*
X106085714Y-76027676D01*
X106085714Y-76027676D02*
X105990476Y-76122914D01*
X105990476Y-76122914D02*
X105895238Y-76170533D01*
X121026666Y-65304819D02*
X121026666Y-66019104D01*
X121026666Y-66019104D02*
X120979047Y-66161961D01*
X120979047Y-66161961D02*
X120883809Y-66257200D01*
X120883809Y-66257200D02*
X120740952Y-66304819D01*
X120740952Y-66304819D02*
X120645714Y-66304819D01*
X121407619Y-65304819D02*
X122026666Y-65304819D01*
X122026666Y-65304819D02*
X121693333Y-65685771D01*
X121693333Y-65685771D02*
X121836190Y-65685771D01*
X121836190Y-65685771D02*
X121931428Y-65733390D01*
X121931428Y-65733390D02*
X121979047Y-65781009D01*
X121979047Y-65781009D02*
X122026666Y-65876247D01*
X122026666Y-65876247D02*
X122026666Y-66114342D01*
X122026666Y-66114342D02*
X121979047Y-66209580D01*
X121979047Y-66209580D02*
X121931428Y-66257200D01*
X121931428Y-66257200D02*
X121836190Y-66304819D01*
X121836190Y-66304819D02*
X121550476Y-66304819D01*
X121550476Y-66304819D02*
X121455238Y-66257200D01*
X121455238Y-66257200D02*
X121407619Y-66209580D01*
X121268095Y-40954819D02*
X121268095Y-41764342D01*
X121268095Y-41764342D02*
X121315714Y-41859580D01*
X121315714Y-41859580D02*
X121363333Y-41907200D01*
X121363333Y-41907200D02*
X121458571Y-41954819D01*
X121458571Y-41954819D02*
X121649047Y-41954819D01*
X121649047Y-41954819D02*
X121744285Y-41907200D01*
X121744285Y-41907200D02*
X121791904Y-41859580D01*
X121791904Y-41859580D02*
X121839523Y-41764342D01*
X121839523Y-41764342D02*
X121839523Y-40954819D01*
X122791904Y-40954819D02*
X122315714Y-40954819D01*
X122315714Y-40954819D02*
X122268095Y-41431009D01*
X122268095Y-41431009D02*
X122315714Y-41383390D01*
X122315714Y-41383390D02*
X122410952Y-41335771D01*
X122410952Y-41335771D02*
X122649047Y-41335771D01*
X122649047Y-41335771D02*
X122744285Y-41383390D01*
X122744285Y-41383390D02*
X122791904Y-41431009D01*
X122791904Y-41431009D02*
X122839523Y-41526247D01*
X122839523Y-41526247D02*
X122839523Y-41764342D01*
X122839523Y-41764342D02*
X122791904Y-41859580D01*
X122791904Y-41859580D02*
X122744285Y-41907200D01*
X122744285Y-41907200D02*
X122649047Y-41954819D01*
X122649047Y-41954819D02*
X122410952Y-41954819D01*
X122410952Y-41954819D02*
X122315714Y-41907200D01*
X122315714Y-41907200D02*
X122268095Y-41859580D01*
X129148095Y-40784819D02*
X129148095Y-41594342D01*
X129148095Y-41594342D02*
X129195714Y-41689580D01*
X129195714Y-41689580D02*
X129243333Y-41737200D01*
X129243333Y-41737200D02*
X129338571Y-41784819D01*
X129338571Y-41784819D02*
X129529047Y-41784819D01*
X129529047Y-41784819D02*
X129624285Y-41737200D01*
X129624285Y-41737200D02*
X129671904Y-41689580D01*
X129671904Y-41689580D02*
X129719523Y-41594342D01*
X129719523Y-41594342D02*
X129719523Y-40784819D01*
X130624285Y-41118152D02*
X130624285Y-41784819D01*
X130386190Y-40737200D02*
X130148095Y-41451485D01*
X130148095Y-41451485D02*
X130767142Y-41451485D01*
X131614819Y-69261904D02*
X132424342Y-69261904D01*
X132424342Y-69261904D02*
X132519580Y-69214285D01*
X132519580Y-69214285D02*
X132567200Y-69166666D01*
X132567200Y-69166666D02*
X132614819Y-69071428D01*
X132614819Y-69071428D02*
X132614819Y-68880952D01*
X132614819Y-68880952D02*
X132567200Y-68785714D01*
X132567200Y-68785714D02*
X132519580Y-68738095D01*
X132519580Y-68738095D02*
X132424342Y-68690476D01*
X132424342Y-68690476D02*
X131614819Y-68690476D01*
X132043390Y-68071428D02*
X131995771Y-68166666D01*
X131995771Y-68166666D02*
X131948152Y-68214285D01*
X131948152Y-68214285D02*
X131852914Y-68261904D01*
X131852914Y-68261904D02*
X131805295Y-68261904D01*
X131805295Y-68261904D02*
X131710057Y-68214285D01*
X131710057Y-68214285D02*
X131662438Y-68166666D01*
X131662438Y-68166666D02*
X131614819Y-68071428D01*
X131614819Y-68071428D02*
X131614819Y-67880952D01*
X131614819Y-67880952D02*
X131662438Y-67785714D01*
X131662438Y-67785714D02*
X131710057Y-67738095D01*
X131710057Y-67738095D02*
X131805295Y-67690476D01*
X131805295Y-67690476D02*
X131852914Y-67690476D01*
X131852914Y-67690476D02*
X131948152Y-67738095D01*
X131948152Y-67738095D02*
X131995771Y-67785714D01*
X131995771Y-67785714D02*
X132043390Y-67880952D01*
X132043390Y-67880952D02*
X132043390Y-68071428D01*
X132043390Y-68071428D02*
X132091009Y-68166666D01*
X132091009Y-68166666D02*
X132138628Y-68214285D01*
X132138628Y-68214285D02*
X132233866Y-68261904D01*
X132233866Y-68261904D02*
X132424342Y-68261904D01*
X132424342Y-68261904D02*
X132519580Y-68214285D01*
X132519580Y-68214285D02*
X132567200Y-68166666D01*
X132567200Y-68166666D02*
X132614819Y-68071428D01*
X132614819Y-68071428D02*
X132614819Y-67880952D01*
X132614819Y-67880952D02*
X132567200Y-67785714D01*
X132567200Y-67785714D02*
X132519580Y-67738095D01*
X132519580Y-67738095D02*
X132424342Y-67690476D01*
X132424342Y-67690476D02*
X132233866Y-67690476D01*
X132233866Y-67690476D02*
X132138628Y-67738095D01*
X132138628Y-67738095D02*
X132091009Y-67785714D01*
X132091009Y-67785714D02*
X132043390Y-67880952D01*
X131614819Y-56051904D02*
X132424342Y-56051904D01*
X132424342Y-56051904D02*
X132519580Y-56004285D01*
X132519580Y-56004285D02*
X132567200Y-55956666D01*
X132567200Y-55956666D02*
X132614819Y-55861428D01*
X132614819Y-55861428D02*
X132614819Y-55670952D01*
X132614819Y-55670952D02*
X132567200Y-55575714D01*
X132567200Y-55575714D02*
X132519580Y-55528095D01*
X132519580Y-55528095D02*
X132424342Y-55480476D01*
X132424342Y-55480476D02*
X131614819Y-55480476D01*
X131614819Y-55099523D02*
X131614819Y-54432857D01*
X131614819Y-54432857D02*
X132614819Y-54861428D01*
%TO.C,U1*%
D12*
X119433680Y-41362720D02*
X91033681Y-41362720D01*
X91033681Y-41362720D02*
X91033680Y-89282720D01*
X119433679Y-89282720D02*
X119433680Y-41362720D01*
%TO.C,C1*%
X96090000Y-80770000D02*
X98440000Y-80770000D01*
X96090000Y-86525563D02*
X96090000Y-80770000D01*
X97154437Y-87590000D02*
X96090000Y-86525563D01*
X97154437Y-87590000D02*
X98440000Y-87590000D01*
X97258750Y-88223750D02*
X98046250Y-88223750D01*
X97652500Y-88617500D02*
X97652500Y-87830000D01*
X101845563Y-87590000D02*
X100560000Y-87590000D01*
X101845563Y-87590000D02*
X102910000Y-86525563D01*
X102910000Y-80770000D02*
X100560000Y-80770000D01*
X102910000Y-86525563D02*
X102910000Y-80770000D01*
%TO.C,J2*%
X120595000Y-60725000D02*
X120595000Y-60850000D01*
X120654435Y-60725000D02*
X120595000Y-60725000D01*
X122085000Y-60725000D02*
X120595000Y-60725000D01*
X122085000Y-60725000D02*
X122025565Y-60725000D01*
X122085000Y-60725000D02*
X122085000Y-60850000D01*
X122085000Y-61460000D02*
X122085000Y-62195000D01*
X122085000Y-62195000D02*
X121340000Y-62195000D01*
%TO.C,U6*%
D13*
X132985000Y-43180000D02*
X133785000Y-43180000D01*
X133045000Y-50950000D02*
X133845000Y-50950000D01*
X133785000Y-43180000D02*
X133785000Y-44380000D01*
X133785000Y-44380000D02*
X132985000Y-44380000D01*
X133845000Y-50950000D02*
X133845000Y-52150000D01*
X133845000Y-52150000D02*
X133045000Y-52150000D01*
X138445000Y-41460000D02*
X138445000Y-53950000D01*
X132975000Y-41460000D02*
X139275000Y-41460000D01*
X139275000Y-53980000D01*
X132975000Y-53980000D01*
X132975000Y-41460000D01*
%TO.C,C2*%
D14*
X94440000Y-87210000D02*
X94440000Y-86610000D01*
X95440000Y-87210000D02*
X95440000Y-86610000D01*
%TO.C,U9*%
D13*
X121650000Y-71660000D02*
X121650000Y-70860000D01*
X122850000Y-70860000D02*
X122850000Y-71660000D01*
X122850000Y-71660000D02*
X121650000Y-71660000D01*
X129420000Y-71600000D02*
X129420000Y-70800000D01*
X130620000Y-70800000D02*
X130620000Y-71600000D01*
X130620000Y-71600000D02*
X129420000Y-71600000D01*
X132340000Y-76260000D02*
X119850000Y-76260000D01*
X119820000Y-70790000D02*
X132340000Y-70790000D01*
X132340000Y-77090000D01*
X119820000Y-77090000D01*
X119820000Y-70790000D01*
%TO.C,U3*%
D12*
X124540000Y-52680000D02*
X124540000Y-42460000D01*
X124540000Y-55280000D02*
X124540000Y-53950000D01*
X125870000Y-55280000D02*
X124540000Y-55280000D01*
X127200000Y-42460000D02*
X124540000Y-42460000D01*
X127200000Y-52680000D02*
X124540000Y-52680000D01*
X127200000Y-52680000D02*
X127200000Y-42460000D01*
%TO.C,U2*%
X124250000Y-62320000D02*
X124250000Y-67460000D01*
X124250000Y-62320000D02*
X126910000Y-62320000D01*
X124250000Y-67460000D02*
X126910000Y-67460000D01*
X125580000Y-59720000D02*
X126910000Y-59720000D01*
X126910000Y-59720000D02*
X126910000Y-61050000D01*
X126910000Y-62320000D02*
X126910000Y-67460000D01*
%TO.C,J1*%
X104632500Y-78640000D02*
X104632500Y-77590000D01*
X104832500Y-77790000D02*
X106832500Y-77790000D01*
X104832500Y-92490000D02*
X104832500Y-77790000D01*
X105682500Y-77590000D02*
X104632500Y-77590000D01*
X112132500Y-77790000D02*
X114032500Y-77790000D01*
X114032500Y-77790000D02*
X114032500Y-78790000D01*
X114032500Y-84590000D02*
X114032500Y-92490000D01*
X114032500Y-92490000D02*
X104832500Y-92490000D01*
%TO.C,J3*%
X120595000Y-63275000D02*
X120595000Y-63400000D01*
X120654435Y-63275000D02*
X120595000Y-63275000D01*
X122085000Y-63275000D02*
X120595000Y-63275000D01*
X122085000Y-63275000D02*
X122025565Y-63275000D01*
X122085000Y-63275000D02*
X122085000Y-63400000D01*
X122085000Y-64010000D02*
X122085000Y-64745000D01*
X122085000Y-64745000D02*
X121340000Y-64745000D01*
%TO.C,U5*%
X120700000Y-45230000D02*
X120700000Y-57990000D01*
X120700000Y-45230000D02*
X123360000Y-45230000D01*
X120700000Y-57990000D02*
X123360000Y-57990000D01*
X122030000Y-42630000D02*
X123360000Y-42630000D01*
X123360000Y-42630000D02*
X123360000Y-43960000D01*
X123360000Y-45230000D02*
X123360000Y-57990000D01*
%TO.C,U4*%
X128630000Y-45050000D02*
X128630000Y-67970000D01*
X128630000Y-45050000D02*
X131290000Y-45050000D01*
X128630000Y-67970000D02*
X131290000Y-67970000D01*
X129960000Y-42450000D02*
X131290000Y-42450000D01*
X131290000Y-42450000D02*
X131290000Y-43780000D01*
X131290000Y-45050000D02*
X131290000Y-67970000D01*
%TO.C,U8*%
D13*
X132985000Y-69730000D02*
X133785000Y-69730000D01*
X133045000Y-77500000D02*
X133845000Y-77500000D01*
X133785000Y-69730000D02*
X133785000Y-70930000D01*
X133785000Y-70930000D02*
X132985000Y-70930000D01*
X133845000Y-77500000D02*
X133845000Y-78700000D01*
X133845000Y-78700000D02*
X133045000Y-78700000D01*
X138445000Y-68010000D02*
X138445000Y-80500000D01*
X132975000Y-68010000D02*
X139275000Y-68010000D01*
X139275000Y-80530000D01*
X132975000Y-80530000D01*
X132975000Y-68010000D01*
%TO.C,U7*%
X132985000Y-56630000D02*
X133785000Y-56630000D01*
X133045000Y-64400000D02*
X133845000Y-64400000D01*
X133785000Y-56630000D02*
X133785000Y-57830000D01*
X133785000Y-57830000D02*
X132985000Y-57830000D01*
X133845000Y-64400000D02*
X133845000Y-65600000D01*
X133845000Y-65600000D02*
X133045000Y-65600000D01*
X138445000Y-54910000D02*
X138445000Y-67400000D01*
X132975000Y-54910000D02*
X139275000Y-54910000D01*
X139275000Y-67430000D01*
X132975000Y-67430000D01*
X132975000Y-54910000D01*
%TD*%
M02*
