%TF.GenerationSoftware,KiCad,Pcbnew,10.0.3*%
%TF.CreationDate,2026-05-24T23:13:42+07:00*%
%TF.ProjectId,node_sensor,6e6f6465-5f73-4656-9e73-6f722e6b6963,v1.0*%
%TF.SameCoordinates,Original*%
%TF.FileFunction,Soldermask,Top*%
%TF.FilePolarity,Negative*%
%FSLAX46Y46*%
G04 Gerber Fmt 4.6, Leading zero omitted, Abs format (unit mm)*
G04 Created by KiCad (PCBNEW 10.0.3) date 2026-05-24 23:13:42*
%MOMM*%
%LPD*%
G01*
G04 APERTURE LIST*
G04 Aperture macros list*
%AMRoundRect*
0 Rectangle with rounded corners*
0 $1 Rounding radius*
0 $2 $3 $4 $5 $6 $7 $8 $9 X,Y pos of 4 corners*
0 Add a 4 corners polygon primitive as box body*
4,1,4,$2,$3,$4,$5,$6,$7,$8,$9,$2,$3,0*
0 Add four circle primitives for the rounded corners*
1,1,$1+$1,$2,$3*
1,1,$1+$1,$4,$5*
1,1,$1+$1,$6,$7*
1,1,$1+$1,$8,$9*
0 Add four rect primitives between the rounded corners*
20,1,$1+$1,$2,$3,$4,$5,0*
20,1,$1+$1,$4,$5,$6,$7,0*
20,1,$1+$1,$6,$7,$8,$9,0*
20,1,$1+$1,$8,$9,$2,$3,0*%
G04 Aperture macros list end*
%ADD10O,2.000000X1.200000*%
%ADD11RoundRect,0.300000X-0.700000X0.300000X-0.700000X-0.300000X0.700000X-0.300000X0.700000X0.300000X0*%
%ADD12RoundRect,0.250000X0.550000X-1.500000X0.550000X1.500000X-0.550000X1.500000X-0.550000X-1.500000X0*%
%ADD13R,0.850000X0.850000*%
%ADD14R,1.700000X1.700000*%
%ADD15O,1.700000X1.700000*%
%ADD16C,1.700000*%
%ADD17C,1.524000*%
%ADD18RoundRect,0.150000X0.525000X-0.350000X0.525000X0.350000X-0.525000X0.350000X-0.525000X-0.350000X0*%
%ADD19O,5.000000X2.800000*%
%ADD20RoundRect,0.700000X1.800000X-0.700000X1.800000X0.700000X-1.800000X0.700000X-1.800000X-0.700000X0*%
%ADD21RoundRect,0.700000X0.700000X-1.800000X0.700000X1.800000X-0.700000X1.800000X-0.700000X-1.800000X0*%
G04 APERTURE END LIST*
D10*
%TO.C,U1*%
X92533680Y-42462720D03*
X92533680Y-45002720D03*
X92533680Y-47542720D03*
X92533680Y-50082720D03*
X92533680Y-52622720D03*
X92533680Y-55162720D03*
X92533680Y-57702720D03*
X92533680Y-60242720D03*
X92533680Y-62782720D03*
X92533680Y-65322720D03*
X92533680Y-67862720D03*
X92533680Y-70402720D03*
X92533680Y-72942720D03*
D11*
X92533680Y-75482720D03*
D10*
X92533680Y-78022720D03*
X92533680Y-80562720D03*
X92533680Y-83102720D03*
X92533680Y-85642720D03*
X92533680Y-88182720D03*
X117930000Y-88180000D03*
X117930000Y-85640000D03*
X117933680Y-83102720D03*
X117933680Y-80562720D03*
X117933680Y-78022720D03*
X117933680Y-75482720D03*
X117933680Y-72942720D03*
X117933680Y-70402720D03*
X117933680Y-67862720D03*
X117933680Y-65322720D03*
X117933680Y-62782720D03*
X117933680Y-60242720D03*
X117933680Y-57702720D03*
X117933680Y-55162720D03*
X117933680Y-52622720D03*
X117933680Y-50082720D03*
X117933680Y-47542720D03*
X117933680Y-45002720D03*
D11*
X117933680Y-42462720D03*
%TD*%
D12*
%TO.C,C1*%
X99500000Y-86880000D03*
X99500000Y-81480000D03*
%TD*%
D13*
%TO.C,J2*%
X121340000Y-61460000D03*
%TD*%
D14*
%TO.C,U6*%
X135845000Y-43910000D03*
D15*
X135845000Y-46450000D03*
D16*
X135845000Y-48990000D03*
D17*
X135845000Y-51530000D03*
%TD*%
D18*
%TO.C,C2*%
X94940000Y-87860000D03*
X94940000Y-85960000D03*
%TD*%
D14*
%TO.C,U9*%
X129890000Y-73660000D03*
D15*
X127350000Y-73660000D03*
D16*
X124810000Y-73660000D03*
D17*
X122270000Y-73660000D03*
%TD*%
D14*
%TO.C,U3*%
X125870000Y-53950000D03*
D16*
X125870000Y-51410000D03*
X125870000Y-48870000D03*
X125870000Y-46330000D03*
X125870000Y-43790000D03*
%TD*%
D14*
%TO.C,U2*%
X125580000Y-61050000D03*
D16*
X125580000Y-63590000D03*
X125580000Y-66130000D03*
%TD*%
D19*
%TO.C,J1*%
X109432500Y-78690000D03*
D20*
X109432500Y-84490000D03*
D21*
X114232500Y-81690000D03*
%TD*%
D13*
%TO.C,J3*%
X121340000Y-64010000D03*
%TD*%
D14*
%TO.C,U5*%
X122030000Y-43960000D03*
D16*
X122030000Y-46500000D03*
X122030000Y-49040000D03*
X122030000Y-51580000D03*
X122030000Y-54120000D03*
X122030000Y-56660000D03*
%TD*%
D14*
%TO.C,U4*%
X129960000Y-43780000D03*
D16*
X129960000Y-46320000D03*
X129960000Y-48860000D03*
X129960000Y-51400000D03*
X129960000Y-53940000D03*
X129960000Y-56480000D03*
X129960000Y-59020000D03*
X129960000Y-61560000D03*
X129960000Y-64100000D03*
X129960000Y-66640000D03*
%TD*%
D14*
%TO.C,U8*%
X135845000Y-70460000D03*
D15*
X135845000Y-73000000D03*
D16*
X135845000Y-75540000D03*
D17*
X135845000Y-78080000D03*
%TD*%
D14*
%TO.C,U7*%
X135845000Y-57360000D03*
D15*
X135845000Y-59900000D03*
D16*
X135845000Y-62440000D03*
D17*
X135845000Y-64980000D03*
%TD*%
M02*
