%TF.GenerationSoftware,KiCad,Pcbnew,10.0.3*%
%TF.CreationDate,2026-05-24T23:13:42+07:00*%
%TF.ProjectId,node_sensor,6e6f6465-5f73-4656-9e73-6f722e6b6963,v1.0*%
%TF.SameCoordinates,Original*%
%TF.FileFunction,Copper,L1,Top*%
%TF.FilePolarity,Positive*%
%FSLAX46Y46*%
G04 Gerber Fmt 4.6, Leading zero omitted, Abs format (unit mm)*
G04 Created by KiCad (PCBNEW 10.0.3) date 2026-05-24 23:13:42*
%MOMM*%
%LPD*%
G01*
G04 APERTURE LIST*
G04 Aperture macros list*
%AMRoundRect*
0 Rectangle with rounded corners*
0 $1 Rounding radius*
0 $2 $3 $4 $5 $6 $7 $8 $9 X,Y pos of 4 corners*
0 Add a 4 corners polygon primitive as box body*
4,1,4,$2,$3,$4,$5,$6,$7,$8,$9,$2,$3,0*
0 Add four circle primitives for the rounded corners*
1,1,$1+$1,$2,$3*
1,1,$1+$1,$4,$5*
1,1,$1+$1,$6,$7*
1,1,$1+$1,$8,$9*
0 Add four rect primitives between the rounded corners*
20,1,$1+$1,$2,$3,$4,$5,0*
20,1,$1+$1,$4,$5,$6,$7,0*
20,1,$1+$1,$6,$7,$8,$9,0*
20,1,$1+$1,$8,$9,$2,$3,0*%
G04 Aperture macros list end*
%TA.AperFunction,ComponentPad*%
%ADD10O,2.000000X1.200000*%
%TD*%
%TA.AperFunction,ComponentPad*%
%ADD11RoundRect,0.300000X-0.700000X0.300000X-0.700000X-0.300000X0.700000X-0.300000X0.700000X0.300000X0*%
%TD*%
%TA.AperFunction,SMDPad,CuDef*%
%ADD12RoundRect,0.250000X0.550000X-1.500000X0.550000X1.500000X-0.550000X1.500000X-0.550000X-1.500000X0*%
%TD*%
%TA.AperFunction,ComponentPad*%
%ADD13R,0.850000X0.850000*%
%TD*%
%TA.AperFunction,ComponentPad*%
%ADD14R,1.700000X1.700000*%
%TD*%
%TA.AperFunction,ComponentPad*%
%ADD15O,1.700000X1.700000*%
%TD*%
%TA.AperFunction,ComponentPad*%
%ADD16C,1.700000*%
%TD*%
%TA.AperFunction,ComponentPad*%
%ADD17C,1.524000*%
%TD*%
%TA.AperFunction,SMDPad,CuDef*%
%ADD18RoundRect,0.150000X0.525000X-0.350000X0.525000X0.350000X-0.525000X0.350000X-0.525000X-0.350000X0*%
%TD*%
%TA.AperFunction,ComponentPad*%
%ADD19O,5.000000X2.800000*%
%TD*%
%TA.AperFunction,ComponentPad*%
%ADD20RoundRect,0.700000X1.800000X-0.700000X1.800000X0.700000X-1.800000X0.700000X-1.800000X-0.700000X0*%
%TD*%
%TA.AperFunction,ComponentPad*%
%ADD21RoundRect,0.700000X0.700000X-1.800000X0.700000X1.800000X-0.700000X1.800000X-0.700000X-1.800000X0*%
%TD*%
%TA.AperFunction,Conductor*%
%ADD22C,0.500000*%
%TD*%
%TA.AperFunction,Conductor*%
%ADD23C,1.000000*%
%TD*%
%TA.AperFunction,Conductor*%
%ADD24C,0.300000*%
%TD*%
G04 APERTURE END LIST*
D10*
%TO.P,U1,1,3V_1*%
%TO.N,+3V3*%
X92533680Y-42462720D03*
%TO.P,U1,2,EN_2*%
%TO.N,unconnected-(U1-EN-Pad2)*%
X92533680Y-45002720D03*
%TO.P,U1,3,SP_3*%
%TO.N,unconnected-(U1-SP-Pad3)*%
X92533680Y-47542720D03*
%TO.P,U1,4,SN_4*%
%TO.N,unconnected-(U1-SN-Pad4)*%
X92533680Y-50082720D03*
%TO.P,U1,5,34_5*%
%TO.N,unconnected-(U1-34-Pad5)*%
X92533680Y-52622720D03*
%TO.P,U1,6,35_6*%
%TO.N,unconnected-(U1-35-Pad6)*%
X92533680Y-55162720D03*
%TO.P,U1,7,32_7*%
%TO.N,unconnected-(U1-32-Pad7)*%
X92533680Y-57702720D03*
%TO.P,U1,8,33_8*%
%TO.N,unconnected-(U1-33-Pad8)*%
X92533680Y-60242720D03*
%TO.P,U1,9,25_9*%
%TO.N,unconnected-(U1-25-Pad9)*%
X92533680Y-62782720D03*
%TO.P,U1,10,26_10*%
%TO.N,unconnected-(U1-26-Pad10)*%
X92533680Y-65322720D03*
%TO.P,U1,11,27_11*%
%TO.N,unconnected-(U1-27-Pad11)*%
X92533680Y-67862720D03*
%TO.P,U1,12,14_12*%
%TO.N,unconnected-(U1-14-Pad12)*%
X92533680Y-70402720D03*
%TO.P,U1,13,12_13*%
%TO.N,unconnected-(U1-12-Pad13)*%
X92533680Y-72942720D03*
D11*
%TO.P,U1,14,GND_14*%
%TO.N,unconnected-(U1-GND-Pad14)*%
X92533680Y-75482720D03*
D10*
%TO.P,U1,15,13_15*%
%TO.N,unconnected-(U1-13-Pad15)*%
X92533680Y-78022720D03*
%TO.P,U1,16,NC_16*%
%TO.N,unconnected-(U1-NC-Pad16)*%
X92533680Y-80562720D03*
%TO.P,U1,17,NC_17*%
%TO.N,unconnected-(U1-NC-Pad17)*%
X92533680Y-83102720D03*
%TO.P,U1,18,GND_18*%
%TO.N,GND*%
X92533680Y-85642720D03*
%TO.P,U1,19,5V_19*%
%TO.N,+5V*%
X92533680Y-88182720D03*
%TO.P,U1,20,NC_20*%
%TO.N,unconnected-(U1-NC-Pad20)*%
X117930000Y-88180000D03*
%TO.P,U1,21,NC_21*%
%TO.N,unconnected-(U1-NC-Pad21)*%
X117930000Y-85640000D03*
%TO.P,U1,22,NC_22*%
%TO.N,unconnected-(U1-NC-Pad22)*%
X117933680Y-83102720D03*
%TO.P,U1,23,15_23*%
%TO.N,unconnected-(U1-15-Pad23)*%
X117933680Y-80562720D03*
%TO.P,U1,24,2_24*%
%TO.N,unconnected-(U1-2-Pad24)*%
X117933680Y-78022720D03*
%TO.P,U1,25,B_25*%
%TO.N,unconnected-(U1-B-Pad25)*%
X117933680Y-75482720D03*
%TO.P,U1,26,4_26*%
%TO.N,unconnected-(U1-4-Pad26)*%
X117933680Y-72942720D03*
%TO.P,U1,27,16_27*%
%TO.N,/1_wire*%
X117933680Y-70402720D03*
%TO.P,U1,28,17_28*%
%TO.N,unconnected-(U1-17-Pad28)*%
X117933680Y-67862720D03*
%TO.P,U1,29,5_29*%
%TO.N,unconnected-(U1-5-Pad29)*%
X117933680Y-65322720D03*
%TO.P,U1,30,18_30*%
%TO.N,Net-(J3-Pin_1)*%
X117933680Y-62782720D03*
%TO.P,U1,31,19_31*%
%TO.N,Net-(J2-Pin_1)*%
X117933680Y-60242720D03*
%TO.P,U1,32,GND_32*%
%TO.N,unconnected-(U1-GND-Pad32)*%
X117933680Y-57702720D03*
%TO.P,U1,33,21_33*%
%TO.N,/I2C_SDA*%
X117933680Y-55162720D03*
%TO.P,U1,34,R0_34*%
%TO.N,unconnected-(U1-R0-Pad34)*%
X117933680Y-52622720D03*
%TO.P,U1,35,T0_35*%
%TO.N,unconnected-(U1-T0-Pad35)*%
X117933680Y-50082720D03*
%TO.P,U1,36,22_36*%
%TO.N,/I2C_SCL*%
X117933680Y-47542720D03*
%TO.P,U1,37,23_37*%
%TO.N,unconnected-(U1-23-Pad37)*%
X117933680Y-45002720D03*
D11*
%TO.P,U1,38,GND_38*%
%TO.N,unconnected-(U1-GND-Pad38)*%
X117933680Y-42462720D03*
%TD*%
D12*
%TO.P,C1,1*%
%TO.N,+5V*%
X99500000Y-86880000D03*
%TO.P,C1,2*%
%TO.N,GND*%
X99500000Y-81480000D03*
%TD*%
D13*
%TO.P,J2,1,Pin_1_1*%
%TO.N,Net-(J2-Pin_1)*%
X121340000Y-61460000D03*
%TD*%
D14*
%TO.P,U6,1,VCC_1*%
%TO.N,+3V3*%
X135845000Y-43910000D03*
D15*
%TO.P,U6,2,GND_2*%
%TO.N,GND*%
X135845000Y-46450000D03*
D16*
%TO.P,U6,3,D0_3*%
%TO.N,unconnected-(U6-D0-Pad3)*%
X135845000Y-48990000D03*
D17*
%TO.P,U6,4,A0_4*%
%TO.N,Net-(U4-A0)*%
X135845000Y-51530000D03*
%TD*%
D18*
%TO.P,C2,1*%
%TO.N,+5V*%
X94940000Y-87860000D03*
%TO.P,C2,2*%
%TO.N,GND*%
X94940000Y-85960000D03*
%TD*%
D14*
%TO.P,U9,1,VCC_1*%
%TO.N,+3V3*%
X129890000Y-73660000D03*
D15*
%TO.P,U9,2,GND_2*%
%TO.N,GND*%
X127350000Y-73660000D03*
D16*
%TO.P,U9,3,D0_3*%
%TO.N,unconnected-(U9-D0-Pad3)*%
X124810000Y-73660000D03*
D17*
%TO.P,U9,4,A0_4*%
%TO.N,Net-(U4-A3)*%
X122270000Y-73660000D03*
%TD*%
D14*
%TO.P,U3,1,GND_1*%
%TO.N,GND*%
X125870000Y-53950000D03*
D16*
%TO.P,U3,2,AD0_2*%
%TO.N,unconnected-(U3-AD0-Pad2)*%
X125870000Y-51410000D03*
%TO.P,U3,3,SDA_3*%
%TO.N,/I2C_SDA*%
X125870000Y-48870000D03*
%TO.P,U3,4,SCL_4*%
%TO.N,/I2C_SCL*%
X125870000Y-46330000D03*
%TO.P,U3,5,VCC_5*%
%TO.N,+3V3*%
X125870000Y-43790000D03*
%TD*%
D14*
%TO.P,U2,1,VCC_1*%
%TO.N,+3V3*%
X125580000Y-61050000D03*
D16*
%TO.P,U2,2,D0_2*%
%TO.N,/1_wire*%
X125580000Y-63590000D03*
%TO.P,U2,3,GND_3*%
%TO.N,GND*%
X125580000Y-66130000D03*
%TD*%
D19*
%TO.P,J1,1*%
%TO.N,+5V*%
X109432500Y-78690000D03*
D20*
%TO.P,J1,2*%
%TO.N,GND*%
X109432500Y-84490000D03*
D21*
%TO.P,J1,3*%
X114232500Y-81690000D03*
%TD*%
D13*
%TO.P,J3,1,Pin_1_1*%
%TO.N,Net-(J3-Pin_1)*%
X121340000Y-64010000D03*
%TD*%
D14*
%TO.P,U5,1,32K_1*%
%TO.N,unconnected-(U5-32K-Pad1)*%
X122030000Y-43960000D03*
D16*
%TO.P,U5,2,SQW_2*%
%TO.N,unconnected-(U5-SQW-Pad2)*%
X122030000Y-46500000D03*
%TO.P,U5,3,SCL_3*%
%TO.N,/I2C_SCL*%
X122030000Y-49040000D03*
%TO.P,U5,4,SDA_4*%
%TO.N,/I2C_SDA*%
X122030000Y-51580000D03*
%TO.P,U5,5,VCC_5*%
%TO.N,+3V3*%
X122030000Y-54120000D03*
%TO.P,U5,6,GND_6*%
%TO.N,GND*%
X122030000Y-56660000D03*
%TD*%
D14*
%TO.P,U4,1,VCC_1*%
%TO.N,+3V3*%
X129960000Y-43780000D03*
D16*
%TO.P,U4,2,GND_2*%
%TO.N,GND*%
X129960000Y-46320000D03*
%TO.P,U4,3,SCL_3*%
%TO.N,/I2C_SCL*%
X129960000Y-48860000D03*
%TO.P,U4,4,SDA_4*%
%TO.N,/I2C_SDA*%
X129960000Y-51400000D03*
%TO.P,U4,5,ADDR_5*%
%TO.N,unconnected-(U4-ADDR-Pad5)*%
X129960000Y-53940000D03*
%TO.P,U4,6,ALRT_6*%
%TO.N,unconnected-(U4-ALRT-Pad6)*%
X129960000Y-56480000D03*
%TO.P,U4,7,A0_7*%
%TO.N,Net-(U4-A0)*%
X129960000Y-59020000D03*
%TO.P,U4,8,A1_8*%
%TO.N,Net-(U4-A1)*%
X129960000Y-61560000D03*
%TO.P,U4,9,A2_9*%
%TO.N,Net-(U4-A2)*%
X129960000Y-64100000D03*
%TO.P,U4,10,A3_10*%
%TO.N,Net-(U4-A3)*%
X129960000Y-66640000D03*
%TD*%
D14*
%TO.P,U8,1,VCC_1*%
%TO.N,+3V3*%
X135845000Y-70460000D03*
D15*
%TO.P,U8,2,GND_2*%
%TO.N,GND*%
X135845000Y-73000000D03*
D16*
%TO.P,U8,3,D0_3*%
%TO.N,unconnected-(U8-D0-Pad3)*%
X135845000Y-75540000D03*
D17*
%TO.P,U8,4,A0_4*%
%TO.N,Net-(U4-A2)*%
X135845000Y-78080000D03*
%TD*%
D14*
%TO.P,U7,1,VCC_1*%
%TO.N,+3V3*%
X135845000Y-57360000D03*
D15*
%TO.P,U7,2,GND_2*%
%TO.N,GND*%
X135845000Y-59900000D03*
D16*
%TO.P,U7,3,D0_3*%
%TO.N,unconnected-(U7-D0-Pad3)*%
X135845000Y-62440000D03*
D17*
%TO.P,U7,4,A0_4*%
%TO.N,Net-(U4-A1)*%
X135845000Y-64980000D03*
%TD*%
%TO.N,+3V3*%
D22*
X135845000Y-57360000D02*
X135845000Y-56155000D01*
X135845000Y-56155000D02*
X138490000Y-53510000D01*
X138490000Y-53510000D02*
X138490000Y-45270000D01*
X138490000Y-45270000D02*
X137130000Y-43910000D01*
X137130000Y-43910000D02*
X135845000Y-43910000D01*
%TO.N,+5V*%
D23*
X109432500Y-78690000D02*
X106260000Y-78690000D01*
X106260000Y-78690000D02*
X103660000Y-81290000D01*
X103660000Y-81290000D02*
X103660000Y-84720000D01*
X103660000Y-84720000D02*
X101500000Y-86880000D01*
X101500000Y-86880000D02*
X99500000Y-86880000D01*
X97890000Y-86850000D02*
X96880000Y-87860000D01*
X99500000Y-86880000D02*
X99470000Y-86850000D01*
X94940000Y-87860000D02*
X92856400Y-87860000D01*
X92856400Y-87860000D02*
X92533680Y-88182720D01*
X96880000Y-87860000D02*
X94940000Y-87860000D01*
X99470000Y-86850000D02*
X97890000Y-86850000D01*
%TO.N,Net-(J2-Pin_1)*%
D24*
X121340000Y-61460000D02*
X118160000Y-61460000D01*
X117930000Y-61230000D02*
X117930000Y-60246400D01*
X117930000Y-60246400D02*
X117933680Y-60242720D01*
X118160000Y-61460000D02*
X117930000Y-61230000D01*
%TO.N,+3V3*%
D22*
X129890000Y-73660000D02*
X131450000Y-73660000D01*
X125580000Y-59900000D02*
X125580000Y-61050000D01*
X137280000Y-70460000D02*
X135845000Y-70460000D01*
X123110000Y-61350000D02*
X123110000Y-68510000D01*
X138240000Y-69500000D02*
X137280000Y-70460000D01*
X138240000Y-58110000D02*
X138240000Y-69500000D01*
X123410000Y-61050000D02*
X123110000Y-61350000D01*
X109263680Y-59192720D02*
X120190000Y-59192720D01*
X92533680Y-42462720D02*
X109263680Y-59192720D01*
X120190000Y-55960000D02*
X120190000Y-59192720D01*
X125580000Y-61050000D02*
X123410000Y-61050000D01*
X137490000Y-57360000D02*
X138240000Y-58110000D01*
X122030000Y-54120000D02*
X120190000Y-55960000D01*
X123700000Y-69100000D02*
X126910000Y-69100000D01*
X126910000Y-69100000D02*
X129890000Y-72080000D01*
X131450000Y-73660000D02*
X134650000Y-70460000D01*
X123110000Y-68510000D02*
X123700000Y-69100000D01*
X135845000Y-57360000D02*
X137490000Y-57360000D01*
X120190000Y-59192720D02*
X124872720Y-59192720D01*
X129890000Y-72080000D02*
X129890000Y-73660000D01*
X129950000Y-43790000D02*
X129960000Y-43780000D01*
X135715000Y-43780000D02*
X135845000Y-43910000D01*
X134650000Y-70460000D02*
X135845000Y-70460000D01*
X124872720Y-59192720D02*
X125580000Y-59900000D01*
%TO.N,Net-(J3-Pin_1)*%
D24*
X118340000Y-64010000D02*
X117933680Y-63603680D01*
X121340000Y-64010000D02*
X118340000Y-64010000D01*
X117933680Y-63603680D02*
X117933680Y-62782720D01*
%TO.N,/I2C_SDA*%
X120180000Y-54430000D02*
X120180000Y-53430000D01*
X120180000Y-53430000D02*
X122030000Y-51580000D01*
X117933680Y-55162720D02*
X119447280Y-55162720D01*
X125870000Y-48870000D02*
X128400000Y-51400000D01*
X123160000Y-51580000D02*
X122030000Y-51580000D01*
X125870000Y-48870000D02*
X123160000Y-51580000D01*
X119447280Y-55162720D02*
X120180000Y-54430000D01*
X128400000Y-51400000D02*
X129960000Y-51400000D01*
%TO.N,/I2C_SCL*%
X129960000Y-48860000D02*
X127430000Y-46330000D01*
X124380000Y-46330000D02*
X121840000Y-48870000D01*
X121840000Y-48870000D02*
X120512720Y-47542720D01*
X120512720Y-47542720D02*
X117933680Y-47542720D01*
X125870000Y-46330000D02*
X124380000Y-46330000D01*
X127430000Y-46330000D02*
X125870000Y-46330000D01*
%TD*%
%TA.AperFunction,Conductor*%
%TO.N,GND*%
G36*
X139442539Y-40520185D02*
G01*
X139488294Y-40572989D01*
X139499500Y-40624500D01*
X139499500Y-89375500D01*
X139479815Y-89442539D01*
X139427011Y-89488294D01*
X139375500Y-89499500D01*
X118609468Y-89499500D01*
X118542429Y-89479815D01*
X118496674Y-89427011D01*
X118486730Y-89357853D01*
X118515755Y-89294297D01*
X118574533Y-89256523D01*
X118582980Y-89254621D01*
X118582961Y-89254540D01*
X118587689Y-89253403D01*
X118587701Y-89253402D01*
X118752445Y-89199873D01*
X118906788Y-89121232D01*
X119046928Y-89019414D01*
X119169414Y-88896928D01*
X119271232Y-88756788D01*
X119349873Y-88602445D01*
X119403402Y-88437701D01*
X119430500Y-88266611D01*
X119430500Y-88093389D01*
X119403402Y-87922299D01*
X119349873Y-87757555D01*
X119271232Y-87603212D01*
X119169414Y-87463072D01*
X119046928Y-87340586D01*
X118906788Y-87238768D01*
X118752445Y-87160127D01*
X118587701Y-87106598D01*
X118587699Y-87106597D01*
X118587698Y-87106597D01*
X118433658Y-87082200D01*
X118416611Y-87079500D01*
X117443389Y-87079500D01*
X117426342Y-87082200D01*
X117272302Y-87106597D01*
X117107552Y-87160128D01*
X116953211Y-87238768D01*
X116873256Y-87296859D01*
X116813072Y-87340586D01*
X116813070Y-87340588D01*
X116813069Y-87340588D01*
X116690588Y-87463069D01*
X116690588Y-87463070D01*
X116690586Y-87463072D01*
X116658254Y-87507573D01*
X116588768Y-87603211D01*
X116510128Y-87757552D01*
X116456597Y-87922302D01*
X116429500Y-88093389D01*
X116429500Y-88266610D01*
X116455380Y-88430016D01*
X116456598Y-88437701D01*
X116510127Y-88602445D01*
X116588768Y-88756788D01*
X116690586Y-88896928D01*
X116813072Y-89019414D01*
X116953212Y-89121232D01*
X117107555Y-89199873D01*
X117272299Y-89253402D01*
X117272307Y-89253403D01*
X117277039Y-89254540D01*
X117276638Y-89256206D01*
X117333067Y-89282958D01*
X117369997Y-89342271D01*
X117368997Y-89412133D01*
X117330386Y-89470365D01*
X117266421Y-89498478D01*
X117250532Y-89499500D01*
X93225245Y-89499500D01*
X93158206Y-89479815D01*
X93112451Y-89427011D01*
X93102507Y-89357853D01*
X93131532Y-89294297D01*
X93186927Y-89257569D01*
X93191379Y-89256122D01*
X93191381Y-89256122D01*
X93356125Y-89202593D01*
X93510468Y-89123952D01*
X93650608Y-89022134D01*
X93773094Y-88899648D01*
X93773094Y-88899647D01*
X93775923Y-88896819D01*
X93837246Y-88863334D01*
X93863604Y-88860500D01*
X96978542Y-88860500D01*
X97009566Y-88854328D01*
X97075188Y-88841275D01*
X97171836Y-88822051D01*
X97225165Y-88799961D01*
X97353914Y-88746632D01*
X97517782Y-88637139D01*
X97657139Y-88497782D01*
X97657139Y-88497780D01*
X97667347Y-88487573D01*
X97667349Y-88487570D01*
X97987821Y-88167097D01*
X98049142Y-88133614D01*
X98118834Y-88138598D01*
X98174767Y-88180470D01*
X98199184Y-88245934D01*
X98199500Y-88254779D01*
X98199500Y-88430000D01*
X98199501Y-88430019D01*
X98210000Y-88532796D01*
X98210001Y-88532799D01*
X98265185Y-88699331D01*
X98265186Y-88699334D01*
X98357288Y-88848656D01*
X98481344Y-88972712D01*
X98630666Y-89064814D01*
X98797203Y-89119999D01*
X98899991Y-89130500D01*
X100100008Y-89130499D01*
X100202797Y-89119999D01*
X100369334Y-89064814D01*
X100518656Y-88972712D01*
X100642712Y-88848656D01*
X100734814Y-88699334D01*
X100789999Y-88532797D01*
X100800500Y-88430009D01*
X100800500Y-88004500D01*
X100820185Y-87937461D01*
X100872989Y-87891706D01*
X100924500Y-87880500D01*
X101598542Y-87880500D01*
X101621983Y-87875836D01*
X101695188Y-87861275D01*
X101791836Y-87842051D01*
X101864262Y-87812051D01*
X101973914Y-87766632D01*
X102137782Y-87657139D01*
X102277139Y-87517782D01*
X102277139Y-87517780D01*
X102287347Y-87507573D01*
X102287348Y-87507570D01*
X104437139Y-85357782D01*
X104546632Y-85193914D01*
X104622051Y-85011835D01*
X104660500Y-84818541D01*
X104660500Y-81755782D01*
X104680185Y-81688743D01*
X104696819Y-81668101D01*
X105548841Y-80816079D01*
X106591564Y-79773356D01*
X106652885Y-79739873D01*
X106722577Y-79744857D01*
X106777619Y-79785553D01*
X106900560Y-79945774D01*
X106900566Y-79945781D01*
X107076718Y-80121933D01*
X107076725Y-80121939D01*
X107274373Y-80273599D01*
X107490123Y-80398162D01*
X107490138Y-80398169D01*
X107580520Y-80435606D01*
X107720293Y-80493502D01*
X107960935Y-80557982D01*
X108207935Y-80590500D01*
X108207942Y-80590500D01*
X110657058Y-80590500D01*
X110657065Y-80590500D01*
X110904065Y-80557982D01*
X111144707Y-80493502D01*
X111374873Y-80398164D01*
X111590627Y-80273599D01*
X111788276Y-80121938D01*
X111964438Y-79945776D01*
X112110124Y-79755914D01*
X112166552Y-79714711D01*
X112236298Y-79710556D01*
X112297218Y-79744768D01*
X112329971Y-79806485D01*
X112332500Y-79831400D01*
X112332500Y-81440000D01*
X113832500Y-81440000D01*
X113832500Y-81940000D01*
X112332500Y-81940000D01*
X112332500Y-82893582D01*
X112312815Y-82960621D01*
X112260011Y-83006376D01*
X112190853Y-83016320D01*
X112127297Y-82987295D01*
X112120819Y-82981263D01*
X112002399Y-82862843D01*
X111818924Y-82737160D01*
X111615491Y-82647336D01*
X111615475Y-82647330D01*
X111399008Y-82596417D01*
X111398992Y-82596415D01*
X111306569Y-82590000D01*
X109682500Y-82590000D01*
X109682500Y-84090000D01*
X109182500Y-84090000D01*
X109182500Y-82590000D01*
X107558432Y-82590000D01*
X107466008Y-82596415D01*
X107465992Y-82596417D01*
X107249524Y-82647330D01*
X107249508Y-82647336D01*
X107046075Y-82737160D01*
X106862600Y-82862843D01*
X106705343Y-83020100D01*
X106579660Y-83203575D01*
X106489836Y-83407008D01*
X106489830Y-83407024D01*
X106438917Y-83623491D01*
X106438915Y-83623507D01*
X106432500Y-83715931D01*
X106432500Y-84240000D01*
X108016814Y-84240000D01*
X108012420Y-84244394D01*
X107959759Y-84335606D01*
X107932500Y-84437339D01*
X107932500Y-84542661D01*
X107959759Y-84644394D01*
X108012420Y-84735606D01*
X108016814Y-84740000D01*
X106432501Y-84740000D01*
X106432501Y-85264067D01*
X106438915Y-85356491D01*
X106438917Y-85356507D01*
X106489830Y-85572975D01*
X106489836Y-85572991D01*
X106579660Y-85776424D01*
X106705343Y-85959899D01*
X106862600Y-86117156D01*
X107046075Y-86242839D01*
X107249508Y-86332663D01*
X107249524Y-86332669D01*
X107465991Y-86383582D01*
X107466007Y-86383584D01*
X107558431Y-86389999D01*
X109182499Y-86389999D01*
X109182500Y-86389998D01*
X109182500Y-84890000D01*
X109682500Y-84890000D01*
X109682500Y-86389999D01*
X111306568Y-86389999D01*
X111398991Y-86383584D01*
X111399007Y-86383582D01*
X111615475Y-86332669D01*
X111615491Y-86332663D01*
X111818924Y-86242839D01*
X112002399Y-86117156D01*
X112159656Y-85959899D01*
X112285339Y-85776424D01*
X112375163Y-85572991D01*
X112375169Y-85572975D01*
X112379776Y-85553389D01*
X116429500Y-85553389D01*
X116429500Y-85726610D01*
X116452919Y-85874477D01*
X116456598Y-85897701D01*
X116510127Y-86062445D01*
X116588768Y-86216788D01*
X116690586Y-86356928D01*
X116813072Y-86479414D01*
X116953212Y-86581232D01*
X117107555Y-86659873D01*
X117272299Y-86713402D01*
X117443389Y-86740500D01*
X117443390Y-86740500D01*
X118416610Y-86740500D01*
X118416611Y-86740500D01*
X118587701Y-86713402D01*
X118752445Y-86659873D01*
X118906788Y-86581232D01*
X119046928Y-86479414D01*
X119169414Y-86356928D01*
X119271232Y-86216788D01*
X119349873Y-86062445D01*
X119403402Y-85897701D01*
X119430500Y-85726611D01*
X119430500Y-85553389D01*
X119403402Y-85382299D01*
X119349873Y-85217555D01*
X119271232Y-85063212D01*
X119169414Y-84923072D01*
X119046928Y-84800586D01*
X118906788Y-84698768D01*
X118752445Y-84620127D01*
X118587701Y-84566598D01*
X118587699Y-84566597D01*
X118587698Y-84566597D01*
X118456271Y-84545781D01*
X118416611Y-84539500D01*
X117443389Y-84539500D01*
X117403728Y-84545781D01*
X117272302Y-84566597D01*
X117107552Y-84620128D01*
X116953211Y-84698768D01*
X116902509Y-84735606D01*
X116813072Y-84800586D01*
X116813070Y-84800588D01*
X116813069Y-84800588D01*
X116690588Y-84923069D01*
X116690588Y-84923070D01*
X116690586Y-84923072D01*
X116688374Y-84926117D01*
X116588768Y-85063211D01*
X116510128Y-85217552D01*
X116456597Y-85382302D01*
X116429500Y-85553389D01*
X112379776Y-85553389D01*
X112387599Y-85520127D01*
X112426082Y-85356508D01*
X112426084Y-85356492D01*
X112432500Y-85264068D01*
X112432500Y-84740000D01*
X110848186Y-84740000D01*
X110852580Y-84735606D01*
X110905241Y-84644394D01*
X110932500Y-84542661D01*
X110932500Y-84437339D01*
X110905241Y-84335606D01*
X110852580Y-84244394D01*
X110848186Y-84240000D01*
X112441458Y-84240000D01*
X112483040Y-84217294D01*
X112552731Y-84222277D01*
X112600763Y-84256372D01*
X112601290Y-84255846D01*
X112604394Y-84258950D01*
X112604784Y-84259227D01*
X112605338Y-84259894D01*
X112762600Y-84417156D01*
X112946075Y-84542839D01*
X113149508Y-84632663D01*
X113149524Y-84632669D01*
X113365991Y-84683582D01*
X113366007Y-84683584D01*
X113458431Y-84689999D01*
X113982499Y-84689999D01*
X113982500Y-84689998D01*
X113982500Y-83105686D01*
X113986894Y-83110080D01*
X114078106Y-83162741D01*
X114179839Y-83190000D01*
X114285161Y-83190000D01*
X114386894Y-83162741D01*
X114478106Y-83110080D01*
X114482500Y-83105686D01*
X114482500Y-84689999D01*
X115006568Y-84689999D01*
X115098991Y-84683584D01*
X115099007Y-84683582D01*
X115315475Y-84632669D01*
X115315491Y-84632663D01*
X115518924Y-84542839D01*
X115702399Y-84417156D01*
X115859656Y-84259899D01*
X115985339Y-84076424D01*
X116075163Y-83872991D01*
X116075169Y-83872975D01*
X116126082Y-83656508D01*
X116126084Y-83656492D01*
X116132500Y-83564068D01*
X116132500Y-83016109D01*
X116433180Y-83016109D01*
X116433180Y-83189330D01*
X116450569Y-83299124D01*
X116460278Y-83360421D01*
X116513807Y-83525165D01*
X116592448Y-83679508D01*
X116694266Y-83819648D01*
X116816752Y-83942134D01*
X116956892Y-84043952D01*
X117111235Y-84122593D01*
X117275979Y-84176122D01*
X117447069Y-84203220D01*
X117447070Y-84203220D01*
X118420290Y-84203220D01*
X118420291Y-84203220D01*
X118591381Y-84176122D01*
X118756125Y-84122593D01*
X118910468Y-84043952D01*
X119050608Y-83942134D01*
X119173094Y-83819648D01*
X119274912Y-83679508D01*
X119353553Y-83525165D01*
X119407082Y-83360421D01*
X119434180Y-83189331D01*
X119434180Y-83016109D01*
X119407082Y-82845019D01*
X119353553Y-82680275D01*
X119274912Y-82525932D01*
X119173094Y-82385792D01*
X119050608Y-82263306D01*
X118910468Y-82161488D01*
X118756125Y-82082847D01*
X118591381Y-82029318D01*
X118591379Y-82029317D01*
X118591378Y-82029317D01*
X118459951Y-82008501D01*
X118420291Y-82002220D01*
X117447069Y-82002220D01*
X117407408Y-82008501D01*
X117275982Y-82029317D01*
X117111232Y-82082848D01*
X116956891Y-82161488D01*
X116876936Y-82219579D01*
X116816752Y-82263306D01*
X116816750Y-82263308D01*
X116816749Y-82263308D01*
X116694268Y-82385789D01*
X116694268Y-82385790D01*
X116694266Y-82385792D01*
X116650539Y-82445976D01*
X116592448Y-82525931D01*
X116513808Y-82680272D01*
X116460277Y-82845022D01*
X116433180Y-83016109D01*
X116132500Y-83016109D01*
X116132500Y-81940000D01*
X114632500Y-81940000D01*
X114632500Y-81440000D01*
X116132499Y-81440000D01*
X116132499Y-80476109D01*
X116433180Y-80476109D01*
X116433180Y-80649331D01*
X116460278Y-80820421D01*
X116513807Y-80985165D01*
X116592448Y-81139508D01*
X116694266Y-81279648D01*
X116816752Y-81402134D01*
X116956892Y-81503952D01*
X117111235Y-81582593D01*
X117275979Y-81636122D01*
X117447069Y-81663220D01*
X117447070Y-81663220D01*
X118420290Y-81663220D01*
X118420291Y-81663220D01*
X118591381Y-81636122D01*
X118756125Y-81582593D01*
X118910468Y-81503952D01*
X119050608Y-81402134D01*
X119173094Y-81279648D01*
X119274912Y-81139508D01*
X119353553Y-80985165D01*
X119407082Y-80820421D01*
X119434180Y-80649331D01*
X119434180Y-80476109D01*
X119407082Y-80305019D01*
X119353553Y-80140275D01*
X119274912Y-79985932D01*
X119173094Y-79845792D01*
X119050608Y-79723306D01*
X118910468Y-79621488D01*
X118756125Y-79542847D01*
X118591381Y-79489318D01*
X118591379Y-79489317D01*
X118591378Y-79489317D01*
X118459951Y-79468501D01*
X118420291Y-79462220D01*
X117447069Y-79462220D01*
X117407408Y-79468501D01*
X117275982Y-79489317D01*
X117111232Y-79542848D01*
X116956891Y-79621488D01*
X116876936Y-79679579D01*
X116816752Y-79723306D01*
X116816750Y-79723308D01*
X116816749Y-79723308D01*
X116694268Y-79845789D01*
X116694268Y-79845790D01*
X116694266Y-79845792D01*
X116650539Y-79905976D01*
X116592448Y-79985931D01*
X116513808Y-80140272D01*
X116460277Y-80305022D01*
X116445525Y-80398164D01*
X116433180Y-80476109D01*
X116132499Y-80476109D01*
X116132499Y-79815932D01*
X116126084Y-79723508D01*
X116126082Y-79723492D01*
X116075169Y-79507024D01*
X116075163Y-79507008D01*
X115985339Y-79303575D01*
X115859656Y-79120100D01*
X115702399Y-78962843D01*
X115518924Y-78837160D01*
X115315491Y-78747336D01*
X115315475Y-78747330D01*
X115099008Y-78696417D01*
X115098992Y-78696415D01*
X115006569Y-78690000D01*
X114482500Y-78690000D01*
X114482500Y-80274314D01*
X114478106Y-80269920D01*
X114386894Y-80217259D01*
X114285161Y-80190000D01*
X114179839Y-80190000D01*
X114078106Y-80217259D01*
X113986894Y-80269920D01*
X113982500Y-80274314D01*
X113982500Y-78690000D01*
X113458432Y-78690000D01*
X113366008Y-78696415D01*
X113365992Y-78696417D01*
X113149524Y-78747330D01*
X113149508Y-78747336D01*
X112946075Y-78837160D01*
X112762603Y-78962841D01*
X112618847Y-79106597D01*
X112557524Y-79140081D01*
X112487832Y-79135097D01*
X112431899Y-79093225D01*
X112407482Y-79027761D01*
X112408226Y-79002737D01*
X112433000Y-78814565D01*
X112433000Y-78565435D01*
X112400482Y-78318435D01*
X112336002Y-78077793D01*
X112308003Y-78010198D01*
X112294952Y-77978689D01*
X112277315Y-77936109D01*
X116433180Y-77936109D01*
X116433180Y-78109330D01*
X116444271Y-78179360D01*
X116460278Y-78280421D01*
X116513807Y-78445165D01*
X116592448Y-78599508D01*
X116694266Y-78739648D01*
X116816752Y-78862134D01*
X116956892Y-78963952D01*
X117111235Y-79042593D01*
X117275979Y-79096122D01*
X117447069Y-79123220D01*
X117447070Y-79123220D01*
X118420290Y-79123220D01*
X118420291Y-79123220D01*
X118591381Y-79096122D01*
X118756125Y-79042593D01*
X118910468Y-78963952D01*
X119050608Y-78862134D01*
X119173094Y-78739648D01*
X119274912Y-78599508D01*
X119353553Y-78445165D01*
X119407082Y-78280421D01*
X119434180Y-78109331D01*
X119434180Y-77936109D01*
X119407082Y-77765019D01*
X119353553Y-77600275D01*
X119274912Y-77445932D01*
X119173094Y-77305792D01*
X119050608Y-77183306D01*
X118910468Y-77081488D01*
X118756125Y-77002847D01*
X118591381Y-76949318D01*
X118591379Y-76949317D01*
X118591378Y-76949317D01*
X118459951Y-76928501D01*
X118420291Y-76922220D01*
X117447069Y-76922220D01*
X117407408Y-76928501D01*
X117275982Y-76949317D01*
X117111232Y-77002848D01*
X116956891Y-77081488D01*
X116922602Y-77106401D01*
X116816752Y-77183306D01*
X116816750Y-77183308D01*
X116816749Y-77183308D01*
X116694268Y-77305789D01*
X116694268Y-77305790D01*
X116694266Y-77305792D01*
X116650539Y-77365976D01*
X116592448Y-77445931D01*
X116513808Y-77600272D01*
X116460277Y-77765022D01*
X116433180Y-77936109D01*
X112277315Y-77936109D01*
X112240669Y-77847638D01*
X112240662Y-77847623D01*
X112116099Y-77631873D01*
X111964439Y-77434225D01*
X111964433Y-77434218D01*
X111788281Y-77258066D01*
X111788274Y-77258060D01*
X111590626Y-77106400D01*
X111374876Y-76981837D01*
X111374861Y-76981830D01*
X111144707Y-76886498D01*
X110904061Y-76822017D01*
X110657075Y-76789501D01*
X110657070Y-76789500D01*
X110657065Y-76789500D01*
X108207935Y-76789500D01*
X108207929Y-76789500D01*
X108207924Y-76789501D01*
X107960938Y-76822017D01*
X107720292Y-76886498D01*
X107490138Y-76981830D01*
X107490123Y-76981837D01*
X107274373Y-77106400D01*
X107076725Y-77258060D01*
X107076718Y-77258066D01*
X106900566Y-77434218D01*
X106900560Y-77434225D01*
X106748906Y-77631865D01*
X106747224Y-77634384D01*
X106746527Y-77634966D01*
X106746430Y-77635093D01*
X106746401Y-77635071D01*
X106693615Y-77679192D01*
X106644117Y-77689500D01*
X106161455Y-77689500D01*
X106064812Y-77708724D01*
X105968167Y-77727947D01*
X105968161Y-77727949D01*
X105914834Y-77750037D01*
X105914834Y-77750038D01*
X105878667Y-77765019D01*
X105786089Y-77803366D01*
X105786079Y-77803371D01*
X105653458Y-77891987D01*
X105653457Y-77891988D01*
X105622215Y-77912862D01*
X105622214Y-77912863D01*
X103605066Y-79930013D01*
X103022220Y-80512859D01*
X103022218Y-80512861D01*
X102977097Y-80557982D01*
X102882859Y-80652219D01*
X102773371Y-80816079D01*
X102773366Y-80816089D01*
X102720038Y-80944831D01*
X102720039Y-80944832D01*
X102701638Y-80989260D01*
X102701636Y-80989265D01*
X102697949Y-80998165D01*
X102697946Y-80998175D01*
X102659500Y-81191454D01*
X102659500Y-84254217D01*
X102639815Y-84321256D01*
X102623181Y-84341898D01*
X101121899Y-85843181D01*
X101094971Y-85857884D01*
X101069153Y-85874477D01*
X101062952Y-85875368D01*
X101060576Y-85876666D01*
X101034218Y-85879500D01*
X100924499Y-85879500D01*
X100857460Y-85859815D01*
X100811705Y-85807011D01*
X100800499Y-85755500D01*
X100800499Y-85329998D01*
X100800498Y-85329981D01*
X100789999Y-85227203D01*
X100789998Y-85227200D01*
X100778966Y-85193907D01*
X100734814Y-85060666D01*
X100642712Y-84911344D01*
X100518656Y-84787288D01*
X100380244Y-84701915D01*
X100369336Y-84695187D01*
X100369331Y-84695185D01*
X100353678Y-84689998D01*
X100202797Y-84640001D01*
X100202795Y-84640000D01*
X100100010Y-84629500D01*
X98899998Y-84629500D01*
X98899981Y-84629501D01*
X98797203Y-84640000D01*
X98797200Y-84640001D01*
X98630668Y-84695185D01*
X98630663Y-84695187D01*
X98481342Y-84787289D01*
X98357289Y-84911342D01*
X98265187Y-85060663D01*
X98265185Y-85060668D01*
X98251590Y-85101695D01*
X98210001Y-85227203D01*
X98210001Y-85227204D01*
X98210000Y-85227204D01*
X98199500Y-85329983D01*
X98199500Y-85725500D01*
X98179815Y-85792539D01*
X98127011Y-85838294D01*
X98075500Y-85849500D01*
X97791454Y-85849500D01*
X97759391Y-85855876D01*
X97759392Y-85855877D01*
X97598170Y-85887946D01*
X97598164Y-85887948D01*
X97416088Y-85963366D01*
X97416079Y-85963371D01*
X97252219Y-86072859D01*
X97252215Y-86072862D01*
X96501899Y-86823181D01*
X96440576Y-86856666D01*
X96414218Y-86859500D01*
X96112584Y-86859500D01*
X96045545Y-86839815D01*
X95999790Y-86787011D01*
X95989846Y-86717853D01*
X96005852Y-86672379D01*
X96066282Y-86570196D01*
X96066283Y-86570193D01*
X96112099Y-86412495D01*
X96112100Y-86412489D01*
X96114999Y-86375649D01*
X96115000Y-86375634D01*
X96115000Y-86210000D01*
X95064000Y-86210000D01*
X94996961Y-86190315D01*
X94951206Y-86137511D01*
X94940000Y-86086000D01*
X94940000Y-85960000D01*
X94814000Y-85960000D01*
X94746961Y-85940315D01*
X94701206Y-85887511D01*
X94690000Y-85836000D01*
X94690000Y-85710000D01*
X95190000Y-85710000D01*
X96115000Y-85710000D01*
X96115000Y-85544365D01*
X96114999Y-85544350D01*
X96112100Y-85507510D01*
X96112099Y-85507504D01*
X96066283Y-85349806D01*
X96066282Y-85349803D01*
X95982685Y-85208447D01*
X95982678Y-85208438D01*
X95866561Y-85092321D01*
X95866552Y-85092314D01*
X95725196Y-85008717D01*
X95725193Y-85008716D01*
X95567495Y-84962900D01*
X95567489Y-84962899D01*
X95530649Y-84960000D01*
X95190000Y-84960000D01*
X95190000Y-85710000D01*
X94690000Y-85710000D01*
X94690000Y-84960000D01*
X94349350Y-84960000D01*
X94312510Y-84962899D01*
X94312504Y-84962900D01*
X94154806Y-85008716D01*
X94154803Y-85008717D01*
X94026640Y-85084512D01*
X93958915Y-85101695D01*
X93892653Y-85079535D01*
X93863200Y-85050664D01*
X93772716Y-84926121D01*
X93650282Y-84803687D01*
X93510204Y-84701915D01*
X93355937Y-84623311D01*
X93191264Y-84569805D01*
X93020251Y-84542720D01*
X92783680Y-84542720D01*
X92783680Y-85327034D01*
X92779286Y-85322640D01*
X92688074Y-85269979D01*
X92586341Y-85242720D01*
X92481019Y-85242720D01*
X92379286Y-85269979D01*
X92288074Y-85322640D01*
X92283680Y-85327034D01*
X92283680Y-84542720D01*
X92047109Y-84542720D01*
X91876095Y-84569805D01*
X91711422Y-84623311D01*
X91557155Y-84701915D01*
X91417077Y-84803687D01*
X91294647Y-84926117D01*
X91192875Y-85066195D01*
X91114271Y-85220464D01*
X91060765Y-85385135D01*
X91059564Y-85392719D01*
X91059565Y-85392720D01*
X92217994Y-85392720D01*
X92213600Y-85397114D01*
X92160939Y-85488326D01*
X92133680Y-85590059D01*
X92133680Y-85695381D01*
X92160939Y-85797114D01*
X92213600Y-85888326D01*
X92217994Y-85892720D01*
X91059565Y-85892720D01*
X91060765Y-85900304D01*
X91114271Y-86064975D01*
X91192875Y-86219244D01*
X91294647Y-86359322D01*
X91417077Y-86481752D01*
X91557155Y-86583524D01*
X91711422Y-86662128D01*
X91876095Y-86715634D01*
X92047109Y-86742720D01*
X92318961Y-86742720D01*
X92351457Y-86752261D01*
X92384149Y-86761238D01*
X92384909Y-86762084D01*
X92386000Y-86762405D01*
X92408168Y-86787988D01*
X92430829Y-86813226D01*
X92431010Y-86814350D01*
X92431755Y-86815209D01*
X92436575Y-86848737D01*
X92441991Y-86882198D01*
X92441537Y-86883240D01*
X92441699Y-86884367D01*
X92427610Y-86915215D01*
X92414092Y-86946256D01*
X92413047Y-86947105D01*
X92412674Y-86947923D01*
X92387831Y-86969836D01*
X92382635Y-86973306D01*
X92382486Y-86973368D01*
X92251306Y-87061019D01*
X92250832Y-87061336D01*
X92216095Y-87072205D01*
X92184175Y-87082200D01*
X92184152Y-87082200D01*
X92184150Y-87082201D01*
X92184147Y-87082200D01*
X92181962Y-87082220D01*
X92047069Y-87082220D01*
X92007408Y-87088501D01*
X91875982Y-87109317D01*
X91711232Y-87162848D01*
X91556891Y-87241488D01*
X91476936Y-87299579D01*
X91416752Y-87343306D01*
X91416750Y-87343308D01*
X91416749Y-87343308D01*
X91294268Y-87465789D01*
X91294268Y-87465790D01*
X91294266Y-87465792D01*
X91263915Y-87507567D01*
X91192448Y-87605931D01*
X91113808Y-87760272D01*
X91060277Y-87925022D01*
X91033180Y-88096109D01*
X91033180Y-88269330D01*
X91059846Y-88437697D01*
X91060278Y-88440421D01*
X91113807Y-88605165D01*
X91192448Y-88759508D01*
X91294266Y-88899648D01*
X91416752Y-89022134D01*
X91556892Y-89123952D01*
X91711235Y-89202593D01*
X91875979Y-89256122D01*
X91875980Y-89256122D01*
X91880433Y-89257569D01*
X91938109Y-89297007D01*
X91965307Y-89361365D01*
X91953392Y-89430212D01*
X91906148Y-89481687D01*
X91842115Y-89499500D01*
X90624500Y-89499500D01*
X90557461Y-89479815D01*
X90511706Y-89427011D01*
X90500500Y-89375500D01*
X90500500Y-83016109D01*
X91033180Y-83016109D01*
X91033180Y-83189330D01*
X91050569Y-83299124D01*
X91060278Y-83360421D01*
X91113807Y-83525165D01*
X91192448Y-83679508D01*
X91294266Y-83819648D01*
X91416752Y-83942134D01*
X91556892Y-84043952D01*
X91711235Y-84122593D01*
X91875979Y-84176122D01*
X92047069Y-84203220D01*
X92047070Y-84203220D01*
X93020290Y-84203220D01*
X93020291Y-84203220D01*
X93191381Y-84176122D01*
X93356125Y-84122593D01*
X93510468Y-84043952D01*
X93650608Y-83942134D01*
X93773094Y-83819648D01*
X93874912Y-83679508D01*
X93953553Y-83525165D01*
X94007082Y-83360421D01*
X94034180Y-83189331D01*
X94034180Y-83029986D01*
X98200001Y-83029986D01*
X98210494Y-83132697D01*
X98265641Y-83299119D01*
X98265643Y-83299124D01*
X98357684Y-83448345D01*
X98481654Y-83572315D01*
X98630875Y-83664356D01*
X98630880Y-83664358D01*
X98797302Y-83719505D01*
X98797309Y-83719506D01*
X98900019Y-83729999D01*
X99249999Y-83729999D01*
X99750000Y-83729999D01*
X100099972Y-83729999D01*
X100099986Y-83729998D01*
X100202697Y-83719505D01*
X100369119Y-83664358D01*
X100369124Y-83664356D01*
X100518345Y-83572315D01*
X100642315Y-83448345D01*
X100734356Y-83299124D01*
X100734358Y-83299119D01*
X100789505Y-83132697D01*
X100789506Y-83132690D01*
X100799999Y-83029986D01*
X100800000Y-83029973D01*
X100800000Y-81730000D01*
X99750000Y-81730000D01*
X99750000Y-83729999D01*
X99249999Y-83729999D01*
X99250000Y-83729998D01*
X99250000Y-81730000D01*
X98200001Y-81730000D01*
X98200001Y-83029986D01*
X94034180Y-83029986D01*
X94034180Y-83016109D01*
X94007082Y-82845019D01*
X93953553Y-82680275D01*
X93874912Y-82525932D01*
X93773094Y-82385792D01*
X93650608Y-82263306D01*
X93510468Y-82161488D01*
X93356125Y-82082847D01*
X93191381Y-82029318D01*
X93191379Y-82029317D01*
X93191378Y-82029317D01*
X93059951Y-82008501D01*
X93020291Y-82002220D01*
X92047069Y-82002220D01*
X92007408Y-82008501D01*
X91875982Y-82029317D01*
X91711232Y-82082848D01*
X91556891Y-82161488D01*
X91476936Y-82219579D01*
X91416752Y-82263306D01*
X91416750Y-82263308D01*
X91416749Y-82263308D01*
X91294268Y-82385789D01*
X91294268Y-82385790D01*
X91294266Y-82385792D01*
X91250539Y-82445976D01*
X91192448Y-82525931D01*
X91113808Y-82680272D01*
X91060277Y-82845022D01*
X91033180Y-83016109D01*
X90500500Y-83016109D01*
X90500500Y-80476109D01*
X91033180Y-80476109D01*
X91033180Y-80649331D01*
X91060278Y-80820421D01*
X91113807Y-80985165D01*
X91192448Y-81139508D01*
X91294266Y-81279648D01*
X91416752Y-81402134D01*
X91556892Y-81503952D01*
X91711235Y-81582593D01*
X91875979Y-81636122D01*
X92047069Y-81663220D01*
X92047070Y-81663220D01*
X93020290Y-81663220D01*
X93020291Y-81663220D01*
X93191381Y-81636122D01*
X93356125Y-81582593D01*
X93372818Y-81574087D01*
X93384464Y-81568154D01*
X93384466Y-81568153D01*
X93416064Y-81552052D01*
X93510468Y-81503952D01*
X93650608Y-81402134D01*
X93773094Y-81279648D01*
X93874912Y-81139508D01*
X93953553Y-80985165D01*
X94007082Y-80820421D01*
X94034180Y-80649331D01*
X94034180Y-80476109D01*
X94007082Y-80305019D01*
X93953553Y-80140275D01*
X93874912Y-79985932D01*
X93834284Y-79930013D01*
X98200000Y-79930013D01*
X98200000Y-81230000D01*
X99250000Y-81230000D01*
X99750000Y-81230000D01*
X100799999Y-81230000D01*
X100799999Y-79930028D01*
X100799998Y-79930013D01*
X100789505Y-79827302D01*
X100734358Y-79660880D01*
X100734356Y-79660875D01*
X100642315Y-79511654D01*
X100518345Y-79387684D01*
X100369124Y-79295643D01*
X100369119Y-79295641D01*
X100202697Y-79240494D01*
X100202690Y-79240493D01*
X100099986Y-79230000D01*
X99750000Y-79230000D01*
X99750000Y-81230000D01*
X99250000Y-81230000D01*
X99250000Y-79230000D01*
X98900028Y-79230000D01*
X98900012Y-79230001D01*
X98797302Y-79240494D01*
X98630880Y-79295641D01*
X98630875Y-79295643D01*
X98481654Y-79387684D01*
X98357684Y-79511654D01*
X98265643Y-79660875D01*
X98265641Y-79660880D01*
X98210494Y-79827302D01*
X98210493Y-79827309D01*
X98200000Y-79930013D01*
X93834284Y-79930013D01*
X93773094Y-79845792D01*
X93650608Y-79723306D01*
X93510468Y-79621488D01*
X93356125Y-79542847D01*
X93191381Y-79489318D01*
X93191379Y-79489317D01*
X93191378Y-79489317D01*
X93059951Y-79468501D01*
X93020291Y-79462220D01*
X92047069Y-79462220D01*
X92007408Y-79468501D01*
X91875982Y-79489317D01*
X91711232Y-79542848D01*
X91556891Y-79621488D01*
X91476936Y-79679579D01*
X91416752Y-79723306D01*
X91416750Y-79723308D01*
X91416749Y-79723308D01*
X91294268Y-79845789D01*
X91294268Y-79845790D01*
X91294266Y-79845792D01*
X91250539Y-79905976D01*
X91192448Y-79985931D01*
X91113808Y-80140272D01*
X91060277Y-80305022D01*
X91045525Y-80398164D01*
X91033180Y-80476109D01*
X90500500Y-80476109D01*
X90500500Y-77936109D01*
X91033180Y-77936109D01*
X91033180Y-78109330D01*
X91044271Y-78179360D01*
X91060278Y-78280421D01*
X91113807Y-78445165D01*
X91192448Y-78599508D01*
X91294266Y-78739648D01*
X91416752Y-78862134D01*
X91556892Y-78963952D01*
X91711235Y-79042593D01*
X91875979Y-79096122D01*
X92047069Y-79123220D01*
X92047070Y-79123220D01*
X93020290Y-79123220D01*
X93020291Y-79123220D01*
X93191381Y-79096122D01*
X93356125Y-79042593D01*
X93510468Y-78963952D01*
X93650608Y-78862134D01*
X93773094Y-78739648D01*
X93874912Y-78599508D01*
X93953553Y-78445165D01*
X94007082Y-78280421D01*
X94034180Y-78109331D01*
X94034180Y-77936109D01*
X94007082Y-77765019D01*
X93953553Y-77600275D01*
X93874912Y-77445932D01*
X93773094Y-77305792D01*
X93650608Y-77183306D01*
X93510468Y-77081488D01*
X93356125Y-77002847D01*
X93191381Y-76949318D01*
X93191379Y-76949317D01*
X93191378Y-76949317D01*
X93059951Y-76928501D01*
X93020291Y-76922220D01*
X92047069Y-76922220D01*
X92007408Y-76928501D01*
X91875982Y-76949317D01*
X91711232Y-77002848D01*
X91556891Y-77081488D01*
X91522602Y-77106401D01*
X91416752Y-77183306D01*
X91416750Y-77183308D01*
X91416749Y-77183308D01*
X91294268Y-77305789D01*
X91294268Y-77305790D01*
X91294266Y-77305792D01*
X91250539Y-77365976D01*
X91192448Y-77445931D01*
X91113808Y-77600272D01*
X91060277Y-77765022D01*
X91033180Y-77936109D01*
X90500500Y-77936109D01*
X90500500Y-75137759D01*
X91033180Y-75137759D01*
X91033180Y-75827680D01*
X91048310Y-75961969D01*
X91048311Y-75961974D01*
X91107891Y-76132243D01*
X91203864Y-76284982D01*
X91331418Y-76412536D01*
X91421760Y-76469302D01*
X91474742Y-76502593D01*
X91484158Y-76508509D01*
X91620228Y-76556122D01*
X91654425Y-76568088D01*
X91654430Y-76568089D01*
X91744926Y-76578285D01*
X91788720Y-76583219D01*
X91788723Y-76583220D01*
X91788726Y-76583220D01*
X93278637Y-76583220D01*
X93278638Y-76583219D01*
X93345784Y-76575654D01*
X93412929Y-76568089D01*
X93412932Y-76568088D01*
X93412935Y-76568088D01*
X93583202Y-76508509D01*
X93735942Y-76412536D01*
X93863496Y-76284982D01*
X93959469Y-76132242D01*
X94019048Y-75961975D01*
X94034180Y-75827674D01*
X94034180Y-75396109D01*
X116433180Y-75396109D01*
X116433180Y-75569331D01*
X116460278Y-75740421D01*
X116513807Y-75905165D01*
X116592448Y-76059508D01*
X116694266Y-76199648D01*
X116816752Y-76322134D01*
X116956892Y-76423952D01*
X117111235Y-76502593D01*
X117275979Y-76556122D01*
X117447069Y-76583220D01*
X117447070Y-76583220D01*
X118420290Y-76583220D01*
X118420291Y-76583220D01*
X118591381Y-76556122D01*
X118756125Y-76502593D01*
X118910468Y-76423952D01*
X119050608Y-76322134D01*
X119173094Y-76199648D01*
X119274912Y-76059508D01*
X119353553Y-75905165D01*
X119407082Y-75740421D01*
X119434180Y-75569331D01*
X119434180Y-75396109D01*
X119407082Y-75225019D01*
X119353553Y-75060275D01*
X119274912Y-74905932D01*
X119173094Y-74765792D01*
X119050608Y-74643306D01*
X118910468Y-74541488D01*
X118756125Y-74462847D01*
X118591381Y-74409318D01*
X118591379Y-74409317D01*
X118591378Y-74409317D01*
X118437521Y-74384949D01*
X118420291Y-74382220D01*
X117447069Y-74382220D01*
X117429839Y-74384949D01*
X117275982Y-74409317D01*
X117111232Y-74462848D01*
X116956891Y-74541488D01*
X116890915Y-74589423D01*
X116816752Y-74643306D01*
X116816750Y-74643308D01*
X116816749Y-74643308D01*
X116694268Y-74765789D01*
X116694268Y-74765790D01*
X116694266Y-74765792D01*
X116658790Y-74814620D01*
X116592448Y-74905931D01*
X116513808Y-75060272D01*
X116460277Y-75225022D01*
X116433180Y-75396109D01*
X94034180Y-75396109D01*
X94034180Y-75137766D01*
X94019841Y-75010499D01*
X94019049Y-75003470D01*
X94019048Y-75003465D01*
X93959468Y-74833196D01*
X93869557Y-74690104D01*
X93863496Y-74680458D01*
X93735942Y-74552904D01*
X93717774Y-74541488D01*
X93583203Y-74456931D01*
X93412934Y-74397351D01*
X93412929Y-74397350D01*
X93278640Y-74382220D01*
X93278634Y-74382220D01*
X91788726Y-74382220D01*
X91788719Y-74382220D01*
X91654430Y-74397350D01*
X91654425Y-74397351D01*
X91484156Y-74456931D01*
X91331417Y-74552904D01*
X91203864Y-74680457D01*
X91107891Y-74833196D01*
X91048311Y-75003465D01*
X91048310Y-75003470D01*
X91033180Y-75137759D01*
X90500500Y-75137759D01*
X90500500Y-72856109D01*
X91033180Y-72856109D01*
X91033180Y-73029330D01*
X91059101Y-73192993D01*
X91060278Y-73200421D01*
X91113807Y-73365165D01*
X91192448Y-73519508D01*
X91294266Y-73659648D01*
X91416752Y-73782134D01*
X91556892Y-73883952D01*
X91711235Y-73962593D01*
X91875979Y-74016122D01*
X92047069Y-74043220D01*
X92047070Y-74043220D01*
X93020290Y-74043220D01*
X93020291Y-74043220D01*
X93191381Y-74016122D01*
X93356125Y-73962593D01*
X93510468Y-73883952D01*
X93650608Y-73782134D01*
X93773094Y-73659648D01*
X93874912Y-73519508D01*
X93953553Y-73365165D01*
X94007082Y-73200421D01*
X94034180Y-73029331D01*
X94034180Y-72856109D01*
X116433180Y-72856109D01*
X116433180Y-73029330D01*
X116459101Y-73192993D01*
X116460278Y-73200421D01*
X116513807Y-73365165D01*
X116592448Y-73519508D01*
X116694266Y-73659648D01*
X116816752Y-73782134D01*
X116956892Y-73883952D01*
X117111235Y-73962593D01*
X117275979Y-74016122D01*
X117447069Y-74043220D01*
X117447070Y-74043220D01*
X118420290Y-74043220D01*
X118420291Y-74043220D01*
X118591381Y-74016122D01*
X118756125Y-73962593D01*
X118910468Y-73883952D01*
X119050608Y-73782134D01*
X119173094Y-73659648D01*
X119274912Y-73519508D01*
X119284852Y-73500000D01*
X119285122Y-73499471D01*
X119285122Y-73499470D01*
X119353550Y-73365170D01*
X119353553Y-73365165D01*
X119407082Y-73200421D01*
X119434180Y-73029331D01*
X119434180Y-72856109D01*
X119407082Y-72685019D01*
X119353553Y-72520275D01*
X119274912Y-72365932D01*
X119173094Y-72225792D01*
X119050608Y-72103306D01*
X118910468Y-72001488D01*
X118756125Y-71922847D01*
X118591381Y-71869318D01*
X118591379Y-71869317D01*
X118591378Y-71869317D01*
X118437041Y-71844873D01*
X118420291Y-71842220D01*
X117447069Y-71842220D01*
X117430319Y-71844873D01*
X117275982Y-71869317D01*
X117111232Y-71922848D01*
X116956891Y-72001488D01*
X116876936Y-72059579D01*
X116816752Y-72103306D01*
X116816750Y-72103308D01*
X116816749Y-72103308D01*
X116694268Y-72225789D01*
X116694268Y-72225790D01*
X116694266Y-72225792D01*
X116686115Y-72237011D01*
X116592448Y-72365931D01*
X116513808Y-72520272D01*
X116460277Y-72685022D01*
X116433180Y-72856109D01*
X94034180Y-72856109D01*
X94007082Y-72685019D01*
X93953553Y-72520275D01*
X93874912Y-72365932D01*
X93773094Y-72225792D01*
X93650608Y-72103306D01*
X93510468Y-72001488D01*
X93356125Y-71922847D01*
X93191381Y-71869318D01*
X93191379Y-71869317D01*
X93191378Y-71869317D01*
X93037041Y-71844873D01*
X93020291Y-71842220D01*
X92047069Y-71842220D01*
X92030319Y-71844873D01*
X91875982Y-71869317D01*
X91711232Y-71922848D01*
X91556891Y-72001488D01*
X91476936Y-72059579D01*
X91416752Y-72103306D01*
X91416750Y-72103308D01*
X91416749Y-72103308D01*
X91294268Y-72225789D01*
X91294268Y-72225790D01*
X91294266Y-72225792D01*
X91286115Y-72237011D01*
X91192448Y-72365931D01*
X91113808Y-72520272D01*
X91060277Y-72685022D01*
X91033180Y-72856109D01*
X90500500Y-72856109D01*
X90500500Y-70316109D01*
X91033180Y-70316109D01*
X91033180Y-70489331D01*
X91060278Y-70660421D01*
X91113807Y-70825165D01*
X91192448Y-70979508D01*
X91294266Y-71119648D01*
X91416752Y-71242134D01*
X91556892Y-71343952D01*
X91711235Y-71422593D01*
X91875979Y-71476122D01*
X92047069Y-71503220D01*
X92047070Y-71503220D01*
X93020290Y-71503220D01*
X93020291Y-71503220D01*
X93191381Y-71476122D01*
X93356125Y-71422593D01*
X93510468Y-71343952D01*
X93650608Y-71242134D01*
X93773094Y-71119648D01*
X93874912Y-70979508D01*
X93953553Y-70825165D01*
X94007082Y-70660421D01*
X94034180Y-70489331D01*
X94034180Y-70316109D01*
X116433180Y-70316109D01*
X116433180Y-70489331D01*
X116460278Y-70660421D01*
X116513807Y-70825165D01*
X116592448Y-70979508D01*
X116694266Y-71119648D01*
X116816752Y-71242134D01*
X116956892Y-71343952D01*
X117111235Y-71422593D01*
X117275979Y-71476122D01*
X117447069Y-71503220D01*
X117447070Y-71503220D01*
X118420290Y-71503220D01*
X118420291Y-71503220D01*
X118591381Y-71476122D01*
X118756125Y-71422593D01*
X118910468Y-71343952D01*
X119050608Y-71242134D01*
X119173094Y-71119648D01*
X119274912Y-70979508D01*
X119353553Y-70825165D01*
X119407082Y-70660421D01*
X119434180Y-70489331D01*
X119434180Y-70316109D01*
X119407082Y-70145019D01*
X119353553Y-69980275D01*
X119274912Y-69825932D01*
X119173094Y-69685792D01*
X119050608Y-69563306D01*
X118910468Y-69461488D01*
X118756125Y-69382847D01*
X118591381Y-69329318D01*
X118591379Y-69329317D01*
X118591378Y-69329317D01*
X118459951Y-69308501D01*
X118420291Y-69302220D01*
X117447069Y-69302220D01*
X117407408Y-69308501D01*
X117275982Y-69329317D01*
X117111232Y-69382848D01*
X116956891Y-69461488D01*
X116876936Y-69519579D01*
X116816752Y-69563306D01*
X116816750Y-69563308D01*
X116816749Y-69563308D01*
X116694268Y-69685789D01*
X116694268Y-69685790D01*
X116694266Y-69685792D01*
X116652134Y-69743782D01*
X116592448Y-69825931D01*
X116513808Y-69980272D01*
X116460277Y-70145022D01*
X116433180Y-70316109D01*
X94034180Y-70316109D01*
X94007082Y-70145019D01*
X93953553Y-69980275D01*
X93874912Y-69825932D01*
X93773094Y-69685792D01*
X93650608Y-69563306D01*
X93510468Y-69461488D01*
X93356125Y-69382847D01*
X93191381Y-69329318D01*
X93191379Y-69329317D01*
X93191378Y-69329317D01*
X93059951Y-69308501D01*
X93020291Y-69302220D01*
X92047069Y-69302220D01*
X92007408Y-69308501D01*
X91875982Y-69329317D01*
X91711232Y-69382848D01*
X91556891Y-69461488D01*
X91476936Y-69519579D01*
X91416752Y-69563306D01*
X91416750Y-69563308D01*
X91416749Y-69563308D01*
X91294268Y-69685789D01*
X91294268Y-69685790D01*
X91294266Y-69685792D01*
X91252134Y-69743782D01*
X91192448Y-69825931D01*
X91113808Y-69980272D01*
X91060277Y-70145022D01*
X91033180Y-70316109D01*
X90500500Y-70316109D01*
X90500500Y-67776109D01*
X91033180Y-67776109D01*
X91033180Y-67949331D01*
X91060278Y-68120421D01*
X91113807Y-68285165D01*
X91192448Y-68439508D01*
X91294266Y-68579648D01*
X91416752Y-68702134D01*
X91556892Y-68803952D01*
X91711235Y-68882593D01*
X91875979Y-68936122D01*
X92047069Y-68963220D01*
X92047070Y-68963220D01*
X93020290Y-68963220D01*
X93020291Y-68963220D01*
X93191381Y-68936122D01*
X93356125Y-68882593D01*
X93510468Y-68803952D01*
X93650608Y-68702134D01*
X93773094Y-68579648D01*
X93874912Y-68439508D01*
X93953553Y-68285165D01*
X94007082Y-68120421D01*
X94034180Y-67949331D01*
X94034180Y-67776109D01*
X116433180Y-67776109D01*
X116433180Y-67949331D01*
X116460278Y-68120421D01*
X116513807Y-68285165D01*
X116592448Y-68439508D01*
X116694266Y-68579648D01*
X116816752Y-68702134D01*
X116956892Y-68803952D01*
X117111235Y-68882593D01*
X117275979Y-68936122D01*
X117447069Y-68963220D01*
X117447070Y-68963220D01*
X118420290Y-68963220D01*
X118420291Y-68963220D01*
X118591381Y-68936122D01*
X118756125Y-68882593D01*
X118910468Y-68803952D01*
X119050608Y-68702134D01*
X119173094Y-68579648D01*
X119274912Y-68439508D01*
X119353553Y-68285165D01*
X119407082Y-68120421D01*
X119434180Y-67949331D01*
X119434180Y-67776109D01*
X119407082Y-67605019D01*
X119353553Y-67440275D01*
X119274912Y-67285932D01*
X119173094Y-67145792D01*
X119050608Y-67023306D01*
X118910468Y-66921488D01*
X118756125Y-66842847D01*
X118591381Y-66789318D01*
X118591379Y-66789317D01*
X118591378Y-66789317D01*
X118459951Y-66768501D01*
X118420291Y-66762220D01*
X117447069Y-66762220D01*
X117407408Y-66768501D01*
X117275982Y-66789317D01*
X117111232Y-66842848D01*
X116956891Y-66921488D01*
X116909056Y-66956243D01*
X116816752Y-67023306D01*
X116816750Y-67023308D01*
X116816749Y-67023308D01*
X116694268Y-67145789D01*
X116694268Y-67145790D01*
X116694266Y-67145792D01*
X116685097Y-67158412D01*
X116592448Y-67285931D01*
X116513808Y-67440272D01*
X116460277Y-67605022D01*
X116433180Y-67776109D01*
X94034180Y-67776109D01*
X94007082Y-67605019D01*
X93953553Y-67440275D01*
X93874912Y-67285932D01*
X93773094Y-67145792D01*
X93650608Y-67023306D01*
X93510468Y-66921488D01*
X93356125Y-66842847D01*
X93191381Y-66789318D01*
X93191379Y-66789317D01*
X93191378Y-66789317D01*
X93059951Y-66768501D01*
X93020291Y-66762220D01*
X92047069Y-66762220D01*
X92007408Y-66768501D01*
X91875982Y-66789317D01*
X91711232Y-66842848D01*
X91556891Y-66921488D01*
X91509056Y-66956243D01*
X91416752Y-67023306D01*
X91416750Y-67023308D01*
X91416749Y-67023308D01*
X91294268Y-67145789D01*
X91294268Y-67145790D01*
X91294266Y-67145792D01*
X91285097Y-67158412D01*
X91192448Y-67285931D01*
X91113808Y-67440272D01*
X91060277Y-67605022D01*
X91033180Y-67776109D01*
X90500500Y-67776109D01*
X90500500Y-65236109D01*
X91033180Y-65236109D01*
X91033180Y-65409330D01*
X91044449Y-65480484D01*
X91060278Y-65580421D01*
X91113807Y-65745165D01*
X91192448Y-65899508D01*
X91294266Y-66039648D01*
X91416752Y-66162134D01*
X91556892Y-66263952D01*
X91711235Y-66342593D01*
X91875979Y-66396122D01*
X92047069Y-66423220D01*
X92047070Y-66423220D01*
X93020290Y-66423220D01*
X93020291Y-66423220D01*
X93191381Y-66396122D01*
X93356125Y-66342593D01*
X93510468Y-66263952D01*
X93650608Y-66162134D01*
X93773094Y-66039648D01*
X93874912Y-65899508D01*
X93953553Y-65745165D01*
X94007082Y-65580421D01*
X94034180Y-65409331D01*
X94034180Y-65236109D01*
X94007082Y-65065019D01*
X93953553Y-64900275D01*
X93874912Y-64745932D01*
X93773094Y-64605792D01*
X93650608Y-64483306D01*
X93510468Y-64381488D01*
X93356125Y-64302847D01*
X93191381Y-64249318D01*
X93191379Y-64249317D01*
X93191378Y-64249317D01*
X93043216Y-64225851D01*
X93020291Y-64222220D01*
X92047069Y-64222220D01*
X92024144Y-64225851D01*
X91875982Y-64249317D01*
X91711232Y-64302848D01*
X91556891Y-64381488D01*
X91509056Y-64416243D01*
X91416752Y-64483306D01*
X91416750Y-64483308D01*
X91416749Y-64483308D01*
X91294268Y-64605789D01*
X91294268Y-64605790D01*
X91294266Y-64605792D01*
X91285097Y-64618412D01*
X91192448Y-64745931D01*
X91113808Y-64900272D01*
X91060277Y-65065022D01*
X91033180Y-65236109D01*
X90500500Y-65236109D01*
X90500500Y-62696109D01*
X91033180Y-62696109D01*
X91033180Y-62869330D01*
X91060277Y-63040417D01*
X91060277Y-63040419D01*
X91060278Y-63040421D01*
X91113807Y-63205165D01*
X91192448Y-63359508D01*
X91294266Y-63499648D01*
X91416752Y-63622134D01*
X91556892Y-63723952D01*
X91711235Y-63802593D01*
X91875979Y-63856122D01*
X92047069Y-63883220D01*
X92047070Y-63883220D01*
X93020290Y-63883220D01*
X93020291Y-63883220D01*
X93191381Y-63856122D01*
X93356125Y-63802593D01*
X93510468Y-63723952D01*
X93650608Y-63622134D01*
X93773094Y-63499648D01*
X93874912Y-63359508D01*
X93953553Y-63205165D01*
X94007082Y-63040421D01*
X94034180Y-62869331D01*
X94034180Y-62696109D01*
X94007082Y-62525019D01*
X93953553Y-62360275D01*
X93874912Y-62205932D01*
X93773094Y-62065792D01*
X93650608Y-61943306D01*
X93510468Y-61841488D01*
X93356125Y-61762847D01*
X93191381Y-61709318D01*
X93191379Y-61709317D01*
X93191378Y-61709317D01*
X93059951Y-61688501D01*
X93020291Y-61682220D01*
X92047069Y-61682220D01*
X92007408Y-61688501D01*
X91875982Y-61709317D01*
X91711232Y-61762848D01*
X91556891Y-61841488D01*
X91509056Y-61876243D01*
X91416752Y-61943306D01*
X91416750Y-61943308D01*
X91416749Y-61943308D01*
X91294268Y-62065789D01*
X91294268Y-62065790D01*
X91294266Y-62065792D01*
X91285097Y-62078412D01*
X91192448Y-62205931D01*
X91113808Y-62360272D01*
X91113807Y-62360274D01*
X91113807Y-62360275D01*
X91105611Y-62385499D01*
X91060277Y-62525022D01*
X91033180Y-62696109D01*
X90500500Y-62696109D01*
X90500500Y-60156109D01*
X91033180Y-60156109D01*
X91033180Y-60329330D01*
X91060277Y-60500417D01*
X91060277Y-60500419D01*
X91060278Y-60500421D01*
X91089775Y-60591204D01*
X91113808Y-60665167D01*
X91120069Y-60677455D01*
X91192448Y-60819508D01*
X91294266Y-60959648D01*
X91416752Y-61082134D01*
X91556892Y-61183952D01*
X91711235Y-61262593D01*
X91875979Y-61316122D01*
X92047069Y-61343220D01*
X92047070Y-61343220D01*
X93020290Y-61343220D01*
X93020291Y-61343220D01*
X93191381Y-61316122D01*
X93356125Y-61262593D01*
X93510468Y-61183952D01*
X93650608Y-61082134D01*
X93773094Y-60959648D01*
X93874912Y-60819508D01*
X93953553Y-60665165D01*
X94007082Y-60500421D01*
X94034180Y-60329331D01*
X94034180Y-60156109D01*
X94007082Y-59985019D01*
X93953553Y-59820275D01*
X93874912Y-59665932D01*
X93773094Y-59525792D01*
X93650608Y-59403306D01*
X93510468Y-59301488D01*
X93356125Y-59222847D01*
X93191381Y-59169318D01*
X93191379Y-59169317D01*
X93191378Y-59169317D01*
X93059951Y-59148501D01*
X93020291Y-59142220D01*
X92047069Y-59142220D01*
X92007408Y-59148501D01*
X91875982Y-59169317D01*
X91711232Y-59222848D01*
X91556891Y-59301488D01*
X91509056Y-59336243D01*
X91416752Y-59403306D01*
X91416750Y-59403308D01*
X91416749Y-59403308D01*
X91294268Y-59525789D01*
X91294268Y-59525790D01*
X91294266Y-59525792D01*
X91252070Y-59583870D01*
X91192448Y-59665931D01*
X91113808Y-59820272D01*
X91060277Y-59985022D01*
X91033180Y-60156109D01*
X90500500Y-60156109D01*
X90500500Y-57616109D01*
X91033180Y-57616109D01*
X91033180Y-57789330D01*
X91052465Y-57911095D01*
X91060278Y-57960421D01*
X91113807Y-58125165D01*
X91192448Y-58279508D01*
X91294266Y-58419648D01*
X91416752Y-58542134D01*
X91556892Y-58643952D01*
X91711235Y-58722593D01*
X91875979Y-58776122D01*
X92047069Y-58803220D01*
X92047070Y-58803220D01*
X93020290Y-58803220D01*
X93020291Y-58803220D01*
X93191381Y-58776122D01*
X93356125Y-58722593D01*
X93510468Y-58643952D01*
X93650608Y-58542134D01*
X93773094Y-58419648D01*
X93874912Y-58279508D01*
X93953553Y-58125165D01*
X94007082Y-57960421D01*
X94034180Y-57789331D01*
X94034180Y-57616109D01*
X94007082Y-57445019D01*
X93953553Y-57280275D01*
X93874912Y-57125932D01*
X93773094Y-56985792D01*
X93650608Y-56863306D01*
X93510468Y-56761488D01*
X93356125Y-56682847D01*
X93191381Y-56629318D01*
X93191379Y-56629317D01*
X93191378Y-56629317D01*
X93059951Y-56608501D01*
X93020291Y-56602220D01*
X92047069Y-56602220D01*
X92007408Y-56608501D01*
X91875982Y-56629317D01*
X91711232Y-56682848D01*
X91556891Y-56761488D01*
X91509056Y-56796243D01*
X91416752Y-56863306D01*
X91416750Y-56863308D01*
X91416749Y-56863308D01*
X91294268Y-56985789D01*
X91294268Y-56985790D01*
X91294266Y-56985792D01*
X91294262Y-56985798D01*
X91192448Y-57125931D01*
X91113808Y-57280272D01*
X91060277Y-57445022D01*
X91033180Y-57616109D01*
X90500500Y-57616109D01*
X90500500Y-55076109D01*
X91033180Y-55076109D01*
X91033180Y-55249330D01*
X91052538Y-55371557D01*
X91060278Y-55420421D01*
X91113807Y-55585165D01*
X91192448Y-55739508D01*
X91294266Y-55879648D01*
X91416752Y-56002134D01*
X91556892Y-56103952D01*
X91711235Y-56182593D01*
X91875979Y-56236122D01*
X92047069Y-56263220D01*
X92047070Y-56263220D01*
X93020290Y-56263220D01*
X93020291Y-56263220D01*
X93191381Y-56236122D01*
X93356125Y-56182593D01*
X93510468Y-56103952D01*
X93650608Y-56002134D01*
X93773094Y-55879648D01*
X93874912Y-55739508D01*
X93953553Y-55585165D01*
X94007082Y-55420421D01*
X94034180Y-55249331D01*
X94034180Y-55076109D01*
X94007082Y-54905019D01*
X93953553Y-54740275D01*
X93874912Y-54585932D01*
X93773094Y-54445792D01*
X93650608Y-54323306D01*
X93510468Y-54221488D01*
X93356125Y-54142847D01*
X93191381Y-54089318D01*
X93191379Y-54089317D01*
X93191378Y-54089317D01*
X93059951Y-54068501D01*
X93020291Y-54062220D01*
X92047069Y-54062220D01*
X92007408Y-54068501D01*
X91875982Y-54089317D01*
X91711232Y-54142848D01*
X91556891Y-54221488D01*
X91509056Y-54256243D01*
X91416752Y-54323306D01*
X91416750Y-54323308D01*
X91416749Y-54323308D01*
X91294268Y-54445789D01*
X91294268Y-54445790D01*
X91294266Y-54445792D01*
X91291209Y-54450000D01*
X91192448Y-54585931D01*
X91113808Y-54740272D01*
X91060277Y-54905022D01*
X91033180Y-55076109D01*
X90500500Y-55076109D01*
X90500500Y-52536109D01*
X91033180Y-52536109D01*
X91033180Y-52709331D01*
X91036852Y-52732512D01*
X91052538Y-52831557D01*
X91060278Y-52880421D01*
X91113807Y-53045165D01*
X91192448Y-53199508D01*
X91294266Y-53339648D01*
X91416752Y-53462134D01*
X91556892Y-53563952D01*
X91711235Y-53642593D01*
X91875979Y-53696122D01*
X92047069Y-53723220D01*
X92047070Y-53723220D01*
X93020290Y-53723220D01*
X93020291Y-53723220D01*
X93191381Y-53696122D01*
X93356125Y-53642593D01*
X93510468Y-53563952D01*
X93650608Y-53462134D01*
X93773094Y-53339648D01*
X93874912Y-53199508D01*
X93953553Y-53045165D01*
X94007082Y-52880421D01*
X94034180Y-52709331D01*
X94034180Y-52536109D01*
X94007082Y-52365019D01*
X93953553Y-52200275D01*
X93874912Y-52045932D01*
X93773094Y-51905792D01*
X93650608Y-51783306D01*
X93510468Y-51681488D01*
X93356125Y-51602847D01*
X93191381Y-51549318D01*
X93191379Y-51549317D01*
X93191378Y-51549317D01*
X93059951Y-51528501D01*
X93020291Y-51522220D01*
X92047069Y-51522220D01*
X92007408Y-51528501D01*
X91875982Y-51549317D01*
X91711232Y-51602848D01*
X91556891Y-51681488D01*
X91509056Y-51716243D01*
X91416752Y-51783306D01*
X91416750Y-51783308D01*
X91416749Y-51783308D01*
X91294268Y-51905789D01*
X91294268Y-51905790D01*
X91294266Y-51905792D01*
X91256755Y-51957421D01*
X91192448Y-52045931D01*
X91113808Y-52200272D01*
X91060277Y-52365022D01*
X91040011Y-52492978D01*
X91033180Y-52536109D01*
X90500500Y-52536109D01*
X90500500Y-49996109D01*
X91033180Y-49996109D01*
X91033180Y-50169331D01*
X91037254Y-50195051D01*
X91052538Y-50291557D01*
X91060278Y-50340421D01*
X91113807Y-50505165D01*
X91192448Y-50659508D01*
X91294266Y-50799648D01*
X91416752Y-50922134D01*
X91556892Y-51023952D01*
X91711235Y-51102593D01*
X91875979Y-51156122D01*
X92047069Y-51183220D01*
X92047070Y-51183220D01*
X93020290Y-51183220D01*
X93020291Y-51183220D01*
X93191381Y-51156122D01*
X93356125Y-51102593D01*
X93510468Y-51023952D01*
X93650608Y-50922134D01*
X93773094Y-50799648D01*
X93874912Y-50659508D01*
X93953553Y-50505165D01*
X94007082Y-50340421D01*
X94034180Y-50169331D01*
X94034180Y-49996109D01*
X94007082Y-49825019D01*
X93953553Y-49660275D01*
X93874912Y-49505932D01*
X93773094Y-49365792D01*
X93650608Y-49243306D01*
X93510468Y-49141488D01*
X93356125Y-49062847D01*
X93191381Y-49009318D01*
X93191379Y-49009317D01*
X93191378Y-49009317D01*
X93059951Y-48988501D01*
X93020291Y-48982220D01*
X92047069Y-48982220D01*
X92007408Y-48988501D01*
X91875982Y-49009317D01*
X91711232Y-49062848D01*
X91556891Y-49141488D01*
X91476936Y-49199579D01*
X91416752Y-49243306D01*
X91416750Y-49243308D01*
X91416749Y-49243308D01*
X91294268Y-49365789D01*
X91294268Y-49365790D01*
X91294266Y-49365792D01*
X91285097Y-49378412D01*
X91192448Y-49505931D01*
X91113808Y-49660272D01*
X91060277Y-49825022D01*
X91045268Y-49919786D01*
X91033180Y-49996109D01*
X90500500Y-49996109D01*
X90500500Y-47456109D01*
X91033180Y-47456109D01*
X91033180Y-47629330D01*
X91058811Y-47791164D01*
X91060278Y-47800421D01*
X91113807Y-47965165D01*
X91192448Y-48119508D01*
X91294266Y-48259648D01*
X91416752Y-48382134D01*
X91556892Y-48483952D01*
X91711235Y-48562593D01*
X91875979Y-48616122D01*
X92047069Y-48643220D01*
X92047070Y-48643220D01*
X93020290Y-48643220D01*
X93020291Y-48643220D01*
X93191381Y-48616122D01*
X93356125Y-48562593D01*
X93510468Y-48483952D01*
X93650608Y-48382134D01*
X93773094Y-48259648D01*
X93874912Y-48119508D01*
X93953553Y-47965165D01*
X94007082Y-47800421D01*
X94034180Y-47629331D01*
X94034180Y-47456109D01*
X94007082Y-47285019D01*
X93953553Y-47120275D01*
X93874912Y-46965932D01*
X93773094Y-46825792D01*
X93650608Y-46703306D01*
X93510468Y-46601488D01*
X93356125Y-46522847D01*
X93191381Y-46469318D01*
X93191379Y-46469317D01*
X93191378Y-46469317D01*
X93059951Y-46448501D01*
X93020291Y-46442220D01*
X92047069Y-46442220D01*
X92007408Y-46448501D01*
X91875982Y-46469317D01*
X91711232Y-46522848D01*
X91556891Y-46601488D01*
X91499765Y-46642993D01*
X91416752Y-46703306D01*
X91416750Y-46703308D01*
X91416749Y-46703308D01*
X91294268Y-46825789D01*
X91294268Y-46825790D01*
X91294266Y-46825792D01*
X91285239Y-46838217D01*
X91192448Y-46965931D01*
X91113808Y-47120272D01*
X91060277Y-47285022D01*
X91033180Y-47456109D01*
X90500500Y-47456109D01*
X90500500Y-42376109D01*
X91033180Y-42376109D01*
X91033180Y-42549331D01*
X91041357Y-42600959D01*
X91060277Y-42720417D01*
X91060277Y-42720419D01*
X91060278Y-42720421D01*
X91113807Y-42885165D01*
X91192448Y-43039508D01*
X91294266Y-43179648D01*
X91416752Y-43302134D01*
X91556892Y-43403952D01*
X91711235Y-43482593D01*
X91875979Y-43536122D01*
X92047069Y-43563220D01*
X92521450Y-43563220D01*
X92550890Y-43571864D01*
X92580877Y-43578388D01*
X92585892Y-43582142D01*
X92588489Y-43582905D01*
X92609131Y-43599539D01*
X92700131Y-43690539D01*
X92733616Y-43751862D01*
X92728632Y-43821554D01*
X92686760Y-43877487D01*
X92621296Y-43901904D01*
X92612450Y-43902220D01*
X92047069Y-43902220D01*
X92007408Y-43908501D01*
X91875982Y-43929317D01*
X91711232Y-43982848D01*
X91556891Y-44061488D01*
X91495298Y-44106239D01*
X91416752Y-44163306D01*
X91416750Y-44163308D01*
X91416749Y-44163308D01*
X91294268Y-44285789D01*
X91294268Y-44285790D01*
X91294266Y-44285792D01*
X91277832Y-44308412D01*
X91192448Y-44425931D01*
X91113808Y-44580272D01*
X91060277Y-44745022D01*
X91033180Y-44916109D01*
X91033180Y-45089330D01*
X91059642Y-45256409D01*
X91060278Y-45260421D01*
X91113807Y-45425165D01*
X91192448Y-45579508D01*
X91294266Y-45719648D01*
X91416752Y-45842134D01*
X91556892Y-45943952D01*
X91711235Y-46022593D01*
X91875979Y-46076122D01*
X92047069Y-46103220D01*
X92047070Y-46103220D01*
X93020290Y-46103220D01*
X93020291Y-46103220D01*
X93191381Y-46076122D01*
X93356125Y-46022593D01*
X93510468Y-45943952D01*
X93650608Y-45842134D01*
X93773094Y-45719648D01*
X93874912Y-45579508D01*
X93953553Y-45425165D01*
X94007082Y-45260421D01*
X94007083Y-45260417D01*
X94008587Y-45255788D01*
X94010500Y-45256409D01*
X94041017Y-45203166D01*
X94103018Y-45170954D01*
X94172592Y-45177377D01*
X94214550Y-45204958D01*
X108785266Y-59775674D01*
X108811966Y-59793513D01*
X108852019Y-59820275D01*
X108908185Y-59857804D01*
X108908187Y-59857805D01*
X108908191Y-59857807D01*
X109009553Y-59899792D01*
X109044767Y-59914378D01*
X109044771Y-59914378D01*
X109044772Y-59914379D01*
X109189759Y-59943220D01*
X109189762Y-59943220D01*
X109189763Y-59943220D01*
X109337597Y-59943220D01*
X116321713Y-59943220D01*
X116388752Y-59962905D01*
X116434507Y-60015709D01*
X116444451Y-60084867D01*
X116444186Y-60086617D01*
X116433180Y-60156108D01*
X116433180Y-60329330D01*
X116460277Y-60500417D01*
X116460277Y-60500419D01*
X116460278Y-60500421D01*
X116489775Y-60591204D01*
X116513808Y-60665167D01*
X116520069Y-60677455D01*
X116592448Y-60819508D01*
X116694266Y-60959648D01*
X116816752Y-61082134D01*
X116956892Y-61183952D01*
X117029813Y-61221107D01*
X117111230Y-61262591D01*
X117111232Y-61262591D01*
X117111235Y-61262593D01*
X117215313Y-61296410D01*
X117225883Y-61303638D01*
X117238345Y-61306582D01*
X117254172Y-61322982D01*
X117272988Y-61335848D01*
X117279110Y-61348822D01*
X117286865Y-61356857D01*
X117298609Y-61390140D01*
X117301662Y-61405482D01*
X117301663Y-61405492D01*
X117301664Y-61405492D01*
X117304497Y-61419736D01*
X117304501Y-61419749D01*
X117355499Y-61542870D01*
X117362968Y-61612339D01*
X117331693Y-61674818D01*
X117279257Y-61708253D01*
X117111230Y-61762848D01*
X116956891Y-61841488D01*
X116909056Y-61876243D01*
X116816752Y-61943306D01*
X116816750Y-61943308D01*
X116816749Y-61943308D01*
X116694268Y-62065789D01*
X116694268Y-62065790D01*
X116694266Y-62065792D01*
X116685097Y-62078412D01*
X116592448Y-62205931D01*
X116513808Y-62360272D01*
X116513807Y-62360274D01*
X116513807Y-62360275D01*
X116505611Y-62385499D01*
X116460277Y-62525022D01*
X116433180Y-62696109D01*
X116433180Y-62869330D01*
X116460277Y-63040417D01*
X116460277Y-63040419D01*
X116460278Y-63040421D01*
X116513807Y-63205165D01*
X116592448Y-63359508D01*
X116694266Y-63499648D01*
X116816752Y-63622134D01*
X116956892Y-63723952D01*
X117111235Y-63802593D01*
X117275979Y-63856122D01*
X117275987Y-63856123D01*
X117280719Y-63857260D01*
X117280184Y-63859484D01*
X117300118Y-63868933D01*
X117329335Y-63880781D01*
X117332607Y-63884332D01*
X117334777Y-63885361D01*
X117353576Y-63906433D01*
X117356999Y-63911285D01*
X117357215Y-63911807D01*
X117428403Y-64018349D01*
X117442382Y-64032328D01*
X117448512Y-64041018D01*
X117456498Y-64064429D01*
X117468351Y-64086136D01*
X117467580Y-64096915D01*
X117471070Y-64107146D01*
X117465131Y-64131157D01*
X117463367Y-64155828D01*
X117456889Y-64164480D01*
X117454295Y-64174972D01*
X117436317Y-64191961D01*
X117421495Y-64211761D01*
X117410407Y-64216446D01*
X117403513Y-64222962D01*
X117388154Y-64225851D01*
X117366584Y-64234967D01*
X117275981Y-64249317D01*
X117111232Y-64302848D01*
X116956891Y-64381488D01*
X116909056Y-64416243D01*
X116816752Y-64483306D01*
X116816750Y-64483308D01*
X116816749Y-64483308D01*
X116694268Y-64605789D01*
X116694268Y-64605790D01*
X116694266Y-64605792D01*
X116685097Y-64618412D01*
X116592448Y-64745931D01*
X116513808Y-64900272D01*
X116460277Y-65065022D01*
X116433180Y-65236109D01*
X116433180Y-65409330D01*
X116444449Y-65480484D01*
X116460278Y-65580421D01*
X116513807Y-65745165D01*
X116592448Y-65899508D01*
X116694266Y-66039648D01*
X116816752Y-66162134D01*
X116956892Y-66263952D01*
X117111235Y-66342593D01*
X117275979Y-66396122D01*
X117447069Y-66423220D01*
X117447070Y-66423220D01*
X118420290Y-66423220D01*
X118420291Y-66423220D01*
X118591381Y-66396122D01*
X118756125Y-66342593D01*
X118910468Y-66263952D01*
X119050608Y-66162134D01*
X119173094Y-66039648D01*
X119274912Y-65899508D01*
X119353553Y-65745165D01*
X119407082Y-65580421D01*
X119434180Y-65409331D01*
X119434180Y-65236109D01*
X119407082Y-65065019D01*
X119353553Y-64900275D01*
X119342609Y-64878796D01*
X119323247Y-64840794D01*
X119310351Y-64772125D01*
X119336628Y-64707385D01*
X119393734Y-64667128D01*
X119433732Y-64660500D01*
X120396535Y-64660500D01*
X120463574Y-64680185D01*
X120495800Y-64710187D01*
X120557454Y-64792546D01*
X120597084Y-64822213D01*
X120672664Y-64878793D01*
X120672671Y-64878797D01*
X120807517Y-64929091D01*
X120807516Y-64929091D01*
X120814444Y-64929835D01*
X120867127Y-64935500D01*
X121812872Y-64935499D01*
X121872483Y-64929091D01*
X122007331Y-64878796D01*
X122122546Y-64792546D01*
X122136235Y-64774259D01*
X122192166Y-64732390D01*
X122261857Y-64727406D01*
X122323181Y-64760890D01*
X122356666Y-64822213D01*
X122359500Y-64848572D01*
X122359500Y-68583918D01*
X122359500Y-68583920D01*
X122359499Y-68583920D01*
X122388340Y-68728907D01*
X122388343Y-68728917D01*
X122444914Y-68865492D01*
X122444915Y-68865494D01*
X122444916Y-68865495D01*
X122456340Y-68882593D01*
X122477812Y-68914727D01*
X122477813Y-68914730D01*
X122527046Y-68988414D01*
X122527052Y-68988421D01*
X123221584Y-69682952D01*
X123221590Y-69682957D01*
X123241501Y-69696260D01*
X123275396Y-69718907D01*
X123275401Y-69718910D01*
X123275404Y-69718913D01*
X123275405Y-69718913D01*
X123344505Y-69765084D01*
X123481087Y-69821658D01*
X123481091Y-69821658D01*
X123481092Y-69821659D01*
X123626079Y-69850500D01*
X123626082Y-69850500D01*
X123626083Y-69850500D01*
X123773917Y-69850500D01*
X126547770Y-69850500D01*
X126614809Y-69870185D01*
X126635451Y-69886819D01*
X127791586Y-71042954D01*
X128892241Y-72143608D01*
X128925726Y-72204931D01*
X128920742Y-72274623D01*
X128878870Y-72330556D01*
X128847893Y-72347471D01*
X128797671Y-72366202D01*
X128797664Y-72366206D01*
X128682455Y-72452452D01*
X128682452Y-72452455D01*
X128596206Y-72567664D01*
X128596202Y-72567671D01*
X128546997Y-72699598D01*
X128505126Y-72755532D01*
X128439661Y-72779949D01*
X128371388Y-72765097D01*
X128343134Y-72743946D01*
X128229464Y-72630276D01*
X128229459Y-72630272D01*
X128057557Y-72505379D01*
X127868215Y-72408903D01*
X127666124Y-72343241D01*
X127600000Y-72332768D01*
X127600000Y-73226988D01*
X127542993Y-73194075D01*
X127415826Y-73160000D01*
X127284174Y-73160000D01*
X127157007Y-73194075D01*
X127100000Y-73226988D01*
X127100000Y-72332768D01*
X127099999Y-72332768D01*
X127033875Y-72343241D01*
X126831784Y-72408903D01*
X126642442Y-72505379D01*
X126470540Y-72630272D01*
X126470535Y-72630276D01*
X126320276Y-72780535D01*
X126320272Y-72780540D01*
X126195378Y-72952443D01*
X126190762Y-72961502D01*
X126142784Y-73012295D01*
X126074963Y-73029087D01*
X126008829Y-73006546D01*
X125969794Y-72961493D01*
X125965051Y-72952184D01*
X125965049Y-72952181D01*
X125965048Y-72952179D01*
X125840109Y-72780213D01*
X125689786Y-72629890D01*
X125517820Y-72504951D01*
X125328414Y-72408444D01*
X125328413Y-72408443D01*
X125328412Y-72408443D01*
X125126243Y-72342754D01*
X125126241Y-72342753D01*
X125126240Y-72342753D01*
X124964957Y-72317208D01*
X124916287Y-72309500D01*
X124703713Y-72309500D01*
X124655042Y-72317208D01*
X124493760Y-72342753D01*
X124291585Y-72408444D01*
X124102179Y-72504951D01*
X123930213Y-72629890D01*
X123779890Y-72780213D01*
X123654949Y-72952182D01*
X123601101Y-73057864D01*
X123553127Y-73108659D01*
X123485306Y-73125454D01*
X123419171Y-73102916D01*
X123380132Y-73057862D01*
X123349788Y-72998307D01*
X123303192Y-72934174D01*
X123232981Y-72837536D01*
X123092464Y-72697019D01*
X122931694Y-72580213D01*
X122907075Y-72567669D01*
X122754632Y-72489994D01*
X122754629Y-72489993D01*
X122565637Y-72428587D01*
X122438452Y-72408443D01*
X122369361Y-72397500D01*
X122170639Y-72397500D01*
X122105214Y-72407862D01*
X121974362Y-72428587D01*
X121785370Y-72489993D01*
X121785367Y-72489994D01*
X121608305Y-72580213D01*
X121447533Y-72697021D01*
X121307021Y-72837533D01*
X121190213Y-72998305D01*
X121099994Y-73175367D01*
X121099993Y-73175370D01*
X121038587Y-73364362D01*
X121008597Y-73553713D01*
X121007500Y-73560639D01*
X121007500Y-73759361D01*
X121011107Y-73782134D01*
X121038587Y-73955637D01*
X121099993Y-74144629D01*
X121099994Y-74144632D01*
X121173271Y-74288443D01*
X121190213Y-74321694D01*
X121307019Y-74482464D01*
X121447536Y-74622981D01*
X121608306Y-74739787D01*
X121695149Y-74784035D01*
X121785367Y-74830005D01*
X121785370Y-74830006D01*
X121879866Y-74860709D01*
X121974364Y-74891413D01*
X122170639Y-74922500D01*
X122170640Y-74922500D01*
X122369360Y-74922500D01*
X122369361Y-74922500D01*
X122565636Y-74891413D01*
X122754632Y-74830005D01*
X122931694Y-74739787D01*
X123092464Y-74622981D01*
X123232981Y-74482464D01*
X123349787Y-74321694D01*
X123380134Y-74262134D01*
X123428105Y-74211341D01*
X123495926Y-74194545D01*
X123562061Y-74217081D01*
X123601102Y-74262136D01*
X123614516Y-74288462D01*
X123650207Y-74358510D01*
X123654951Y-74367819D01*
X123779890Y-74539786D01*
X123930213Y-74690109D01*
X124102179Y-74815048D01*
X124102181Y-74815049D01*
X124102184Y-74815051D01*
X124291588Y-74911557D01*
X124493757Y-74977246D01*
X124703713Y-75010500D01*
X124703714Y-75010500D01*
X124916286Y-75010500D01*
X124916287Y-75010500D01*
X125126243Y-74977246D01*
X125328412Y-74911557D01*
X125517816Y-74815051D01*
X125585616Y-74765792D01*
X125689786Y-74690109D01*
X125689788Y-74690106D01*
X125689792Y-74690104D01*
X125840104Y-74539792D01*
X125840106Y-74539788D01*
X125840109Y-74539786D01*
X125943592Y-74397352D01*
X125965051Y-74367816D01*
X125969793Y-74358508D01*
X126017763Y-74307711D01*
X126085583Y-74290911D01*
X126151719Y-74313445D01*
X126190763Y-74358500D01*
X126195377Y-74367555D01*
X126320272Y-74539459D01*
X126320276Y-74539464D01*
X126470535Y-74689723D01*
X126470540Y-74689727D01*
X126642442Y-74814620D01*
X126831782Y-74911095D01*
X127033871Y-74976757D01*
X127100000Y-74987231D01*
X127100000Y-74093012D01*
X127157007Y-74125925D01*
X127284174Y-74160000D01*
X127415826Y-74160000D01*
X127542993Y-74125925D01*
X127600000Y-74093012D01*
X127600000Y-74987230D01*
X127666126Y-74976757D01*
X127666129Y-74976757D01*
X127868217Y-74911095D01*
X128057557Y-74814620D01*
X128229458Y-74689728D01*
X128343133Y-74576053D01*
X128404456Y-74542568D01*
X128474148Y-74547552D01*
X128530082Y-74589423D01*
X128546997Y-74620401D01*
X128596202Y-74752328D01*
X128596206Y-74752335D01*
X128682452Y-74867544D01*
X128682455Y-74867547D01*
X128797664Y-74953793D01*
X128797671Y-74953797D01*
X128932517Y-75004091D01*
X128932516Y-75004091D01*
X128939444Y-75004835D01*
X128992127Y-75010500D01*
X130787872Y-75010499D01*
X130847483Y-75004091D01*
X130982331Y-74953796D01*
X131097546Y-74867546D01*
X131183796Y-74752331D01*
X131234091Y-74617483D01*
X131240500Y-74557873D01*
X131240500Y-74534500D01*
X131260185Y-74467461D01*
X131312989Y-74421706D01*
X131364500Y-74410500D01*
X131523920Y-74410500D01*
X131652368Y-74384949D01*
X131668913Y-74381658D01*
X131805495Y-74325084D01*
X131860332Y-74288443D01*
X131928416Y-74242952D01*
X134485054Y-71686311D01*
X134546377Y-71652827D01*
X134616069Y-71657811D01*
X134647046Y-71674727D01*
X134752664Y-71753793D01*
X134752671Y-71753797D01*
X134752674Y-71753798D01*
X134884598Y-71803002D01*
X134940531Y-71844873D01*
X134964949Y-71910337D01*
X134950098Y-71978610D01*
X134928947Y-72006865D01*
X134815271Y-72120541D01*
X134690379Y-72292442D01*
X134593904Y-72481782D01*
X134528242Y-72683870D01*
X134528242Y-72683873D01*
X134517769Y-72750000D01*
X135411988Y-72750000D01*
X135379075Y-72807007D01*
X135345000Y-72934174D01*
X135345000Y-73065826D01*
X135379075Y-73192993D01*
X135411988Y-73250000D01*
X134517769Y-73250000D01*
X134528242Y-73316126D01*
X134528242Y-73316129D01*
X134593904Y-73518217D01*
X134690379Y-73707557D01*
X134815272Y-73879459D01*
X134815276Y-73879464D01*
X134965535Y-74029723D01*
X134965540Y-74029727D01*
X135137444Y-74154622D01*
X135146495Y-74159234D01*
X135197292Y-74207208D01*
X135214087Y-74275029D01*
X135191550Y-74341164D01*
X135146499Y-74380202D01*
X135137182Y-74384949D01*
X134965213Y-74509890D01*
X134814890Y-74660213D01*
X134689951Y-74832179D01*
X134593444Y-75021585D01*
X134527753Y-75223760D01*
X134500456Y-75396109D01*
X134494500Y-75433713D01*
X134494500Y-75646287D01*
X134527754Y-75856243D01*
X134562108Y-75961974D01*
X134593444Y-76058414D01*
X134689951Y-76247820D01*
X134814890Y-76419786D01*
X134965213Y-76570109D01*
X135137179Y-76695048D01*
X135137181Y-76695049D01*
X135137184Y-76695051D01*
X135242863Y-76748897D01*
X135293659Y-76796872D01*
X135310454Y-76864693D01*
X135287917Y-76930827D01*
X135242863Y-76969867D01*
X135183305Y-77000213D01*
X135022533Y-77117021D01*
X134882021Y-77257533D01*
X134765213Y-77418305D01*
X134674994Y-77595367D01*
X134674993Y-77595370D01*
X134613587Y-77784362D01*
X134582500Y-77980639D01*
X134582500Y-78179360D01*
X134613587Y-78375637D01*
X134674993Y-78564629D01*
X134674994Y-78564632D01*
X134764171Y-78739649D01*
X134765213Y-78741694D01*
X134882019Y-78902464D01*
X135022536Y-79042981D01*
X135183306Y-79159787D01*
X135270149Y-79204035D01*
X135360367Y-79250005D01*
X135360370Y-79250006D01*
X135454866Y-79280709D01*
X135549364Y-79311413D01*
X135745639Y-79342500D01*
X135745640Y-79342500D01*
X135944360Y-79342500D01*
X135944361Y-79342500D01*
X136140636Y-79311413D01*
X136329632Y-79250005D01*
X136506694Y-79159787D01*
X136667464Y-79042981D01*
X136807981Y-78902464D01*
X136924787Y-78741694D01*
X137015005Y-78564632D01*
X137076413Y-78375636D01*
X137107500Y-78179361D01*
X137107500Y-77980639D01*
X137076413Y-77784364D01*
X137042241Y-77679192D01*
X137015006Y-77595370D01*
X137015005Y-77595367D01*
X136938863Y-77445932D01*
X136924787Y-77418306D01*
X136807981Y-77257536D01*
X136667464Y-77117019D01*
X136506694Y-77000213D01*
X136447134Y-76969866D01*
X136396340Y-76921893D01*
X136379545Y-76854072D01*
X136402082Y-76787937D01*
X136447137Y-76748897D01*
X136552816Y-76695051D01*
X136604255Y-76657678D01*
X136724786Y-76570109D01*
X136724788Y-76570106D01*
X136724792Y-76570104D01*
X136875104Y-76419792D01*
X136875106Y-76419788D01*
X136875109Y-76419786D01*
X137000048Y-76247820D01*
X137000047Y-76247820D01*
X137000051Y-76247816D01*
X137096557Y-76058412D01*
X137162246Y-75856243D01*
X137195500Y-75646287D01*
X137195500Y-75433713D01*
X137162246Y-75223757D01*
X137096557Y-75021588D01*
X137000051Y-74832184D01*
X137000049Y-74832181D01*
X137000048Y-74832179D01*
X136875109Y-74660213D01*
X136724786Y-74509890D01*
X136552817Y-74384949D01*
X136543504Y-74380204D01*
X136492707Y-74332230D01*
X136475912Y-74264409D01*
X136498449Y-74198274D01*
X136543507Y-74159232D01*
X136552558Y-74154620D01*
X136724459Y-74029727D01*
X136724464Y-74029723D01*
X136874723Y-73879464D01*
X136874727Y-73879459D01*
X136999620Y-73707557D01*
X137096095Y-73518217D01*
X137161757Y-73316129D01*
X137161757Y-73316126D01*
X137172231Y-73250000D01*
X136278012Y-73250000D01*
X136310925Y-73192993D01*
X136345000Y-73065826D01*
X136345000Y-72934174D01*
X136310925Y-72807007D01*
X136278012Y-72750000D01*
X137172231Y-72750000D01*
X137161757Y-72683873D01*
X137161757Y-72683870D01*
X137096095Y-72481782D01*
X136999620Y-72292442D01*
X136874727Y-72120540D01*
X136874723Y-72120535D01*
X136761053Y-72006865D01*
X136727568Y-71945542D01*
X136732552Y-71875850D01*
X136774424Y-71819917D01*
X136805400Y-71803002D01*
X136937331Y-71753796D01*
X137052546Y-71667546D01*
X137138796Y-71552331D01*
X137189091Y-71417483D01*
X137195500Y-71357873D01*
X137195500Y-71334500D01*
X137215185Y-71267461D01*
X137267989Y-71221706D01*
X137319500Y-71210500D01*
X137353920Y-71210500D01*
X137451462Y-71191096D01*
X137498913Y-71181658D01*
X137635495Y-71125084D01*
X137684729Y-71092186D01*
X137758416Y-71042952D01*
X138822952Y-69978416D01*
X138890682Y-69877049D01*
X138905084Y-69855495D01*
X138961658Y-69718913D01*
X138990500Y-69573918D01*
X138990500Y-58036082D01*
X138990500Y-58036079D01*
X138961659Y-57891092D01*
X138961658Y-57891091D01*
X138961658Y-57891087D01*
X138948982Y-57860484D01*
X138905087Y-57754511D01*
X138905080Y-57754498D01*
X138822952Y-57631585D01*
X138807476Y-57616109D01*
X138718416Y-57527049D01*
X138550994Y-57359627D01*
X137968421Y-56777052D01*
X137968414Y-56777046D01*
X137868818Y-56710499D01*
X137868817Y-56710499D01*
X137845495Y-56694916D01*
X137845488Y-56694912D01*
X137708917Y-56638343D01*
X137708907Y-56638340D01*
X137563920Y-56609500D01*
X137563918Y-56609500D01*
X137319499Y-56609500D01*
X137252460Y-56589815D01*
X137206705Y-56537011D01*
X137195499Y-56485500D01*
X137195499Y-56462129D01*
X137195498Y-56462123D01*
X137195497Y-56462116D01*
X137189091Y-56402517D01*
X137138796Y-56267669D01*
X137055444Y-56156326D01*
X137031028Y-56090863D01*
X137045879Y-56022590D01*
X137067027Y-55994339D01*
X139072952Y-53988416D01*
X139131302Y-53901087D01*
X139155084Y-53865495D01*
X139211658Y-53728913D01*
X139232575Y-53623760D01*
X139240500Y-53583920D01*
X139240500Y-45196079D01*
X139211659Y-45051092D01*
X139211658Y-45051091D01*
X139211658Y-45051087D01*
X139200682Y-45024588D01*
X139155087Y-44914511D01*
X139155080Y-44914498D01*
X139072952Y-44791585D01*
X139026386Y-44745019D01*
X138968416Y-44687049D01*
X138707298Y-44425931D01*
X137608418Y-43327049D01*
X137608416Y-43327047D01*
X137559092Y-43294091D01*
X137526355Y-43272218D01*
X137485495Y-43244916D01*
X137485494Y-43244915D01*
X137485492Y-43244914D01*
X137485490Y-43244913D01*
X137348917Y-43188343D01*
X137348908Y-43188340D01*
X137295306Y-43177678D01*
X137233396Y-43145292D01*
X137198822Y-43084576D01*
X137195499Y-43056061D01*
X137195499Y-43012129D01*
X137195498Y-43012123D01*
X137195497Y-43012116D01*
X137189091Y-42952517D01*
X137163970Y-42885165D01*
X137138797Y-42817671D01*
X137138793Y-42817664D01*
X137052547Y-42702455D01*
X137052544Y-42702452D01*
X136937335Y-42616206D01*
X136937328Y-42616202D01*
X136802482Y-42565908D01*
X136802483Y-42565908D01*
X136742883Y-42559501D01*
X136742881Y-42559500D01*
X136742873Y-42559500D01*
X136742864Y-42559500D01*
X134947129Y-42559500D01*
X134947123Y-42559501D01*
X134887516Y-42565908D01*
X134752671Y-42616202D01*
X134752664Y-42616206D01*
X134637455Y-42702452D01*
X134637452Y-42702455D01*
X134551206Y-42817664D01*
X134551202Y-42817671D01*
X134500908Y-42952517D01*
X134495533Y-43002516D01*
X134494501Y-43012123D01*
X134494500Y-43012135D01*
X134494500Y-44807870D01*
X134494501Y-44807876D01*
X134500908Y-44867483D01*
X134551202Y-45002328D01*
X134551206Y-45002335D01*
X134637452Y-45117544D01*
X134637455Y-45117547D01*
X134752664Y-45203793D01*
X134752671Y-45203797D01*
X134752674Y-45203798D01*
X134884598Y-45253002D01*
X134940531Y-45294873D01*
X134964949Y-45360337D01*
X134950098Y-45428610D01*
X134928947Y-45456865D01*
X134815271Y-45570541D01*
X134690379Y-45742442D01*
X134593904Y-45931782D01*
X134528242Y-46133870D01*
X134528242Y-46133873D01*
X134517769Y-46200000D01*
X135411988Y-46200000D01*
X135379075Y-46257007D01*
X135345000Y-46384174D01*
X135345000Y-46515826D01*
X135379075Y-46642993D01*
X135411988Y-46700000D01*
X134517769Y-46700000D01*
X134528242Y-46766126D01*
X134528242Y-46766129D01*
X134593904Y-46968217D01*
X134690379Y-47157557D01*
X134815272Y-47329459D01*
X134815276Y-47329464D01*
X134965535Y-47479723D01*
X134965540Y-47479727D01*
X135137444Y-47604622D01*
X135146495Y-47609234D01*
X135197292Y-47657208D01*
X135214087Y-47725029D01*
X135191550Y-47791164D01*
X135146499Y-47830202D01*
X135137182Y-47834949D01*
X134965213Y-47959890D01*
X134814890Y-48110213D01*
X134689951Y-48282179D01*
X134593444Y-48471585D01*
X134527753Y-48673760D01*
X134494500Y-48883713D01*
X134494500Y-49096286D01*
X134526877Y-49300711D01*
X134527754Y-49306243D01*
X134592637Y-49505932D01*
X134593444Y-49508414D01*
X134689951Y-49697820D01*
X134814890Y-49869786D01*
X134965213Y-50020109D01*
X135137179Y-50145048D01*
X135137181Y-50145049D01*
X135137184Y-50145051D01*
X135230332Y-50192512D01*
X135242863Y-50198897D01*
X135293659Y-50246872D01*
X135310454Y-50314693D01*
X135287917Y-50380827D01*
X135242863Y-50419867D01*
X135183305Y-50450213D01*
X135022533Y-50567021D01*
X134882021Y-50707533D01*
X134765213Y-50868305D01*
X134674994Y-51045367D01*
X134674993Y-51045370D01*
X134613587Y-51234362D01*
X134582500Y-51430639D01*
X134582500Y-51629360D01*
X134613587Y-51825637D01*
X134674993Y-52014629D01*
X134674994Y-52014632D01*
X134727570Y-52117816D01*
X134765213Y-52191694D01*
X134882019Y-52352464D01*
X135022536Y-52492981D01*
X135183306Y-52609787D01*
X135265284Y-52651557D01*
X135360367Y-52700005D01*
X135360370Y-52700006D01*
X135444208Y-52727246D01*
X135549364Y-52761413D01*
X135745639Y-52792500D01*
X135745640Y-52792500D01*
X135944360Y-52792500D01*
X135944361Y-52792500D01*
X136140636Y-52761413D01*
X136329632Y-52700005D01*
X136506694Y-52609787D01*
X136667464Y-52492981D01*
X136807981Y-52352464D01*
X136924787Y-52191694D01*
X137015005Y-52014632D01*
X137076413Y-51825636D01*
X137107500Y-51629361D01*
X137107500Y-51430639D01*
X137076413Y-51234364D01*
X137035914Y-51109720D01*
X137015006Y-51045370D01*
X137015005Y-51045367D01*
X136952212Y-50922131D01*
X136924787Y-50868306D01*
X136807981Y-50707536D01*
X136667464Y-50567019D01*
X136506694Y-50450213D01*
X136447134Y-50419866D01*
X136396340Y-50371893D01*
X136379545Y-50304072D01*
X136402082Y-50237937D01*
X136447137Y-50198897D01*
X136459668Y-50192512D01*
X136552816Y-50145051D01*
X136655966Y-50070109D01*
X136724786Y-50020109D01*
X136724788Y-50020106D01*
X136724792Y-50020104D01*
X136875104Y-49869792D01*
X136875106Y-49869788D01*
X136875109Y-49869786D01*
X137000048Y-49697820D01*
X137000047Y-49697820D01*
X137000051Y-49697816D01*
X137096557Y-49508412D01*
X137162246Y-49306243D01*
X137195500Y-49096287D01*
X137195500Y-48883713D01*
X137162246Y-48673757D01*
X137096557Y-48471588D01*
X137000051Y-48282184D01*
X137000049Y-48282181D01*
X137000048Y-48282179D01*
X136875109Y-48110213D01*
X136724786Y-47959890D01*
X136552817Y-47834949D01*
X136543504Y-47830204D01*
X136492707Y-47782230D01*
X136475912Y-47714409D01*
X136498449Y-47648274D01*
X136543507Y-47609232D01*
X136552558Y-47604620D01*
X136724459Y-47479727D01*
X136724464Y-47479723D01*
X136874723Y-47329464D01*
X136874727Y-47329459D01*
X136999620Y-47157557D01*
X137096095Y-46968217D01*
X137161757Y-46766129D01*
X137161757Y-46766126D01*
X137172231Y-46700000D01*
X136278012Y-46700000D01*
X136310925Y-46642993D01*
X136345000Y-46515826D01*
X136345000Y-46384174D01*
X136310925Y-46257007D01*
X136278012Y-46200000D01*
X137172231Y-46200000D01*
X137161757Y-46133873D01*
X137161757Y-46133870D01*
X137096095Y-45931782D01*
X136999620Y-45742442D01*
X136874727Y-45570540D01*
X136874723Y-45570535D01*
X136761053Y-45456865D01*
X136727568Y-45395542D01*
X136732552Y-45325850D01*
X136774424Y-45269917D01*
X136805400Y-45253002D01*
X136937331Y-45203796D01*
X137052546Y-45117546D01*
X137062525Y-45104214D01*
X137118456Y-45062343D01*
X137188147Y-45057356D01*
X137249470Y-45090838D01*
X137249473Y-45090841D01*
X137249474Y-45090842D01*
X137703181Y-45544548D01*
X137736666Y-45605871D01*
X137739500Y-45632229D01*
X137739500Y-53147770D01*
X137719815Y-53214809D01*
X137703181Y-53235451D01*
X135262047Y-55676584D01*
X135262043Y-55676589D01*
X135223389Y-55734442D01*
X135223387Y-55734445D01*
X135218949Y-55741088D01*
X135179916Y-55799505D01*
X135123342Y-55936087D01*
X135123301Y-55936288D01*
X135121171Y-55940586D01*
X135100197Y-55963284D01*
X135080799Y-55987356D01*
X135076691Y-55988723D01*
X135073754Y-55991902D01*
X135043835Y-55999658D01*
X135014505Y-56009421D01*
X135010081Y-56009500D01*
X134947130Y-56009500D01*
X134947123Y-56009501D01*
X134887516Y-56015908D01*
X134752671Y-56066202D01*
X134752664Y-56066206D01*
X134637455Y-56152452D01*
X134637452Y-56152455D01*
X134551206Y-56267664D01*
X134551202Y-56267671D01*
X134500908Y-56402517D01*
X134494501Y-56462116D01*
X134494501Y-56462123D01*
X134494500Y-56462135D01*
X134494500Y-58257870D01*
X134494501Y-58257876D01*
X134500908Y-58317483D01*
X134551202Y-58452328D01*
X134551206Y-58452335D01*
X134637452Y-58567544D01*
X134637455Y-58567547D01*
X134752664Y-58653793D01*
X134752671Y-58653797D01*
X134752674Y-58653798D01*
X134884598Y-58703002D01*
X134940531Y-58744873D01*
X134964949Y-58810337D01*
X134950098Y-58878610D01*
X134928947Y-58906865D01*
X134815271Y-59020541D01*
X134690379Y-59192442D01*
X134593904Y-59381782D01*
X134528242Y-59583870D01*
X134528242Y-59583873D01*
X134517769Y-59650000D01*
X135411988Y-59650000D01*
X135379075Y-59707007D01*
X135345000Y-59834174D01*
X135345000Y-59965826D01*
X135379075Y-60092993D01*
X135411988Y-60150000D01*
X134517769Y-60150000D01*
X134528242Y-60216126D01*
X134528242Y-60216129D01*
X134593904Y-60418217D01*
X134690379Y-60607557D01*
X134815272Y-60779459D01*
X134815276Y-60779464D01*
X134965535Y-60929723D01*
X134965540Y-60929727D01*
X135137444Y-61054622D01*
X135146495Y-61059234D01*
X135197292Y-61107208D01*
X135214087Y-61175029D01*
X135191550Y-61241164D01*
X135146499Y-61280202D01*
X135137182Y-61284949D01*
X134965213Y-61409890D01*
X134814890Y-61560213D01*
X134689951Y-61732179D01*
X134593444Y-61921585D01*
X134527753Y-62123760D01*
X134500066Y-62298572D01*
X134494500Y-62333713D01*
X134494500Y-62546287D01*
X134498005Y-62568418D01*
X134521936Y-62719514D01*
X134527754Y-62756243D01*
X134589069Y-62944951D01*
X134593444Y-62958414D01*
X134689951Y-63147820D01*
X134814890Y-63319786D01*
X134965213Y-63470109D01*
X135137179Y-63595048D01*
X135137181Y-63595049D01*
X135137184Y-63595051D01*
X135242863Y-63648897D01*
X135293659Y-63696872D01*
X135310454Y-63764693D01*
X135287917Y-63830827D01*
X135242863Y-63869867D01*
X135183305Y-63900213D01*
X135022533Y-64017021D01*
X134882021Y-64157533D01*
X134765213Y-64318305D01*
X134674994Y-64495367D01*
X134674993Y-64495370D01*
X134613587Y-64684362D01*
X134582500Y-64880639D01*
X134582500Y-65079360D01*
X134613587Y-65275637D01*
X134674993Y-65464629D01*
X134674994Y-65464632D01*
X134749008Y-65609890D01*
X134765213Y-65641694D01*
X134882019Y-65802464D01*
X135022536Y-65942981D01*
X135183306Y-66059787D01*
X135270149Y-66104035D01*
X135360367Y-66150005D01*
X135360370Y-66150006D01*
X135454866Y-66180709D01*
X135549364Y-66211413D01*
X135745639Y-66242500D01*
X135745640Y-66242500D01*
X135944360Y-66242500D01*
X135944361Y-66242500D01*
X136140636Y-66211413D01*
X136329632Y-66150005D01*
X136506694Y-66059787D01*
X136667464Y-65942981D01*
X136807981Y-65802464D01*
X136924787Y-65641694D01*
X137015005Y-65464632D01*
X137076413Y-65275636D01*
X137107500Y-65079361D01*
X137107500Y-64880639D01*
X137076413Y-64684364D01*
X137045709Y-64589866D01*
X137015006Y-64495370D01*
X137015005Y-64495367D01*
X136924786Y-64318305D01*
X136874664Y-64249318D01*
X136807981Y-64157536D01*
X136667464Y-64017019D01*
X136506694Y-63900213D01*
X136447134Y-63869866D01*
X136396340Y-63821893D01*
X136379545Y-63754072D01*
X136402082Y-63687937D01*
X136447137Y-63648897D01*
X136552816Y-63595051D01*
X136632541Y-63537128D01*
X136724786Y-63470109D01*
X136724788Y-63470106D01*
X136724792Y-63470104D01*
X136875104Y-63319792D01*
X136875106Y-63319788D01*
X136875109Y-63319786D01*
X137000048Y-63147820D01*
X137000047Y-63147820D01*
X137000051Y-63147816D01*
X137096557Y-62958412D01*
X137162246Y-62756243D01*
X137195500Y-62546287D01*
X137195500Y-62333713D01*
X137162246Y-62123757D01*
X137096557Y-61921588D01*
X137000051Y-61732184D01*
X137000049Y-61732181D01*
X137000048Y-61732179D01*
X136875109Y-61560213D01*
X136724786Y-61409890D01*
X136552817Y-61284949D01*
X136543504Y-61280204D01*
X136492707Y-61232230D01*
X136475912Y-61164409D01*
X136498449Y-61098274D01*
X136543507Y-61059232D01*
X136552558Y-61054620D01*
X136724459Y-60929727D01*
X136724464Y-60929723D01*
X136874723Y-60779464D01*
X136874727Y-60779459D01*
X136999620Y-60607557D01*
X137096095Y-60418217D01*
X137161757Y-60216129D01*
X137161757Y-60216126D01*
X137172231Y-60150000D01*
X136278012Y-60150000D01*
X136310925Y-60092993D01*
X136345000Y-59965826D01*
X136345000Y-59834174D01*
X136310925Y-59707007D01*
X136278012Y-59650000D01*
X137172231Y-59650000D01*
X137161757Y-59583873D01*
X137161757Y-59583870D01*
X137096095Y-59381782D01*
X136999620Y-59192442D01*
X136874727Y-59020540D01*
X136874723Y-59020535D01*
X136761053Y-58906865D01*
X136727568Y-58845542D01*
X136732552Y-58775850D01*
X136774424Y-58719917D01*
X136805400Y-58703002D01*
X136937331Y-58653796D01*
X137052546Y-58567546D01*
X137138796Y-58452331D01*
X137175186Y-58354763D01*
X137217057Y-58298831D01*
X137282521Y-58274413D01*
X137350794Y-58289264D01*
X137379049Y-58310416D01*
X137453181Y-58384548D01*
X137486666Y-58445871D01*
X137489500Y-58472229D01*
X137489500Y-69137769D01*
X137469815Y-69204808D01*
X137453181Y-69225451D01*
X137313691Y-69364940D01*
X137252368Y-69398424D01*
X137182676Y-69393440D01*
X137126744Y-69351569D01*
X137052546Y-69252454D01*
X137016475Y-69225451D01*
X136937335Y-69166206D01*
X136937328Y-69166202D01*
X136802482Y-69115908D01*
X136802483Y-69115908D01*
X136742883Y-69109501D01*
X136742881Y-69109500D01*
X136742873Y-69109500D01*
X136742864Y-69109500D01*
X134947129Y-69109500D01*
X134947123Y-69109501D01*
X134887516Y-69115908D01*
X134752671Y-69166202D01*
X134752664Y-69166206D01*
X134637455Y-69252452D01*
X134637452Y-69252455D01*
X134551206Y-69367664D01*
X134551202Y-69367671D01*
X134500908Y-69502517D01*
X134494501Y-69562116D01*
X134494500Y-69562135D01*
X134494500Y-69629221D01*
X134474815Y-69696260D01*
X134422011Y-69742015D01*
X134417953Y-69743782D01*
X134294507Y-69794914D01*
X134294498Y-69794919D01*
X134171584Y-69877048D01*
X134171580Y-69877051D01*
X131400958Y-72647673D01*
X131339635Y-72681158D01*
X131269943Y-72676174D01*
X131214010Y-72634302D01*
X131197095Y-72603324D01*
X131183798Y-72567673D01*
X131183793Y-72567664D01*
X131097547Y-72452455D01*
X131097544Y-72452452D01*
X130982335Y-72366206D01*
X130982328Y-72366202D01*
X130847482Y-72315908D01*
X130847483Y-72315908D01*
X130787883Y-72309501D01*
X130787881Y-72309500D01*
X130787873Y-72309500D01*
X130787865Y-72309500D01*
X130764500Y-72309500D01*
X130697461Y-72289815D01*
X130651706Y-72237011D01*
X130640500Y-72185500D01*
X130640500Y-72006079D01*
X130611659Y-71861092D01*
X130611658Y-71861091D01*
X130611658Y-71861087D01*
X130588050Y-71804091D01*
X130555087Y-71724511D01*
X130555080Y-71724498D01*
X130472952Y-71601585D01*
X130423695Y-71552328D01*
X130368416Y-71497049D01*
X129696532Y-70825165D01*
X127388421Y-68517052D01*
X127388420Y-68517051D01*
X127272367Y-68439508D01*
X127272367Y-68439507D01*
X127265494Y-68434915D01*
X127265493Y-68434914D01*
X127128917Y-68378343D01*
X127128907Y-68378340D01*
X126983920Y-68349500D01*
X126983918Y-68349500D01*
X124062230Y-68349500D01*
X124032789Y-68340855D01*
X124002803Y-68334332D01*
X123997787Y-68330577D01*
X123995191Y-68329815D01*
X123974549Y-68313181D01*
X123896819Y-68235451D01*
X123863334Y-68174128D01*
X123860500Y-68147770D01*
X123860500Y-61924500D01*
X123880185Y-61857461D01*
X123932989Y-61811706D01*
X123984500Y-61800500D01*
X124105501Y-61800500D01*
X124172540Y-61820185D01*
X124218295Y-61872989D01*
X124229501Y-61924500D01*
X124229501Y-61947876D01*
X124235908Y-62007483D01*
X124286202Y-62142328D01*
X124286206Y-62142335D01*
X124372452Y-62257544D01*
X124372455Y-62257547D01*
X124487664Y-62343793D01*
X124487671Y-62343797D01*
X124619082Y-62392810D01*
X124675016Y-62434681D01*
X124699433Y-62500145D01*
X124684582Y-62568418D01*
X124663431Y-62596673D01*
X124549889Y-62710215D01*
X124424951Y-62882179D01*
X124328444Y-63071585D01*
X124262753Y-63273760D01*
X124229500Y-63483713D01*
X124229500Y-63696286D01*
X124259446Y-63885361D01*
X124262754Y-63906243D01*
X124324707Y-64096915D01*
X124328444Y-64108414D01*
X124424951Y-64297820D01*
X124549890Y-64469786D01*
X124700213Y-64620109D01*
X124872179Y-64745048D01*
X124872181Y-64745049D01*
X124872184Y-64745051D01*
X124881493Y-64749794D01*
X124932290Y-64797766D01*
X124949087Y-64865587D01*
X124926552Y-64931722D01*
X124881505Y-64970760D01*
X124872446Y-64975376D01*
X124872440Y-64975380D01*
X124818282Y-65014727D01*
X124818282Y-65014728D01*
X125450591Y-65647037D01*
X125387007Y-65664075D01*
X125272993Y-65729901D01*
X125179901Y-65822993D01*
X125114075Y-65937007D01*
X125097037Y-66000591D01*
X124464728Y-65368282D01*
X124464727Y-65368282D01*
X124425380Y-65422439D01*
X124328904Y-65611782D01*
X124263242Y-65813869D01*
X124263242Y-65813872D01*
X124230000Y-66023753D01*
X124230000Y-66236246D01*
X124263242Y-66446127D01*
X124263242Y-66446130D01*
X124328904Y-66648217D01*
X124425375Y-66837550D01*
X124464728Y-66891716D01*
X125097037Y-66259408D01*
X125114075Y-66322993D01*
X125179901Y-66437007D01*
X125272993Y-66530099D01*
X125387007Y-66595925D01*
X125450590Y-66612962D01*
X124818282Y-67245269D01*
X124818282Y-67245270D01*
X124872449Y-67284624D01*
X125061782Y-67381095D01*
X125263870Y-67446757D01*
X125473754Y-67480000D01*
X125686246Y-67480000D01*
X125896127Y-67446757D01*
X125896130Y-67446757D01*
X126098217Y-67381095D01*
X126287554Y-67284622D01*
X126341716Y-67245270D01*
X126341717Y-67245270D01*
X125709408Y-66612962D01*
X125772993Y-66595925D01*
X125887007Y-66530099D01*
X125980099Y-66437007D01*
X126045925Y-66322993D01*
X126062962Y-66259408D01*
X126695270Y-66891717D01*
X126695270Y-66891716D01*
X126734622Y-66837554D01*
X126831095Y-66648217D01*
X126896757Y-66446130D01*
X126896757Y-66446127D01*
X126930000Y-66236246D01*
X126930000Y-66023753D01*
X126896757Y-65813872D01*
X126896757Y-65813869D01*
X126831095Y-65611782D01*
X126734624Y-65422449D01*
X126695270Y-65368282D01*
X126695269Y-65368282D01*
X126062962Y-66000590D01*
X126045925Y-65937007D01*
X125980099Y-65822993D01*
X125887007Y-65729901D01*
X125772993Y-65664075D01*
X125709409Y-65647037D01*
X126341716Y-65014728D01*
X126287547Y-64975373D01*
X126287547Y-64975372D01*
X126278500Y-64970763D01*
X126227706Y-64922788D01*
X126210912Y-64854966D01*
X126233451Y-64788832D01*
X126278508Y-64749793D01*
X126287816Y-64745051D01*
X126395069Y-64667128D01*
X126459786Y-64620109D01*
X126459788Y-64620106D01*
X126459792Y-64620104D01*
X126610104Y-64469792D01*
X126610106Y-64469788D01*
X126610109Y-64469786D01*
X126735048Y-64297820D01*
X126735047Y-64297820D01*
X126735051Y-64297816D01*
X126831557Y-64108412D01*
X126897246Y-63906243D01*
X126930500Y-63696287D01*
X126930500Y-63483713D01*
X126897246Y-63273757D01*
X126831557Y-63071588D01*
X126735051Y-62882184D01*
X126735049Y-62882181D01*
X126735048Y-62882179D01*
X126610109Y-62710213D01*
X126496569Y-62596673D01*
X126463084Y-62535350D01*
X126468068Y-62465658D01*
X126509940Y-62409725D01*
X126540915Y-62392810D01*
X126672331Y-62343796D01*
X126787546Y-62257546D01*
X126873796Y-62142331D01*
X126924091Y-62007483D01*
X126930500Y-61947873D01*
X126930499Y-60152128D01*
X126924091Y-60092517D01*
X126923410Y-60090692D01*
X126873797Y-59957671D01*
X126873793Y-59957664D01*
X126787547Y-59842455D01*
X126787544Y-59842452D01*
X126672335Y-59756206D01*
X126672328Y-59756202D01*
X126537482Y-59705908D01*
X126537483Y-59705908D01*
X126477883Y-59699501D01*
X126477881Y-59699500D01*
X126477873Y-59699500D01*
X126477865Y-59699500D01*
X126392139Y-59699500D01*
X126377871Y-59695310D01*
X126363019Y-59696032D01*
X126345023Y-59685665D01*
X126325100Y-59679815D01*
X126314337Y-59667987D01*
X126302477Y-59661155D01*
X126288232Y-59639299D01*
X126281977Y-59632425D01*
X126279580Y-59627787D01*
X126245084Y-59544505D01*
X126211280Y-59493914D01*
X126207412Y-59488125D01*
X126207410Y-59488121D01*
X126162956Y-59421589D01*
X126162952Y-59421584D01*
X125351141Y-58609772D01*
X125351140Y-58609771D01*
X125255827Y-58546086D01*
X125249908Y-58542131D01*
X125228215Y-58527636D01*
X125228213Y-58527635D01*
X125228210Y-58527633D01*
X125091637Y-58471063D01*
X125091627Y-58471060D01*
X124946640Y-58442220D01*
X124946638Y-58442220D01*
X121064500Y-58442220D01*
X120997461Y-58422535D01*
X120951706Y-58369731D01*
X120940500Y-58318220D01*
X120940500Y-57447308D01*
X120960185Y-57380269D01*
X120976819Y-57359627D01*
X121547037Y-56789408D01*
X121564075Y-56852993D01*
X121629901Y-56967007D01*
X121722993Y-57060099D01*
X121837007Y-57125925D01*
X121900590Y-57142962D01*
X121268282Y-57775269D01*
X121268282Y-57775270D01*
X121322449Y-57814624D01*
X121511782Y-57911095D01*
X121713870Y-57976757D01*
X121923754Y-58010000D01*
X122136246Y-58010000D01*
X122346127Y-57976757D01*
X122346130Y-57976757D01*
X122548217Y-57911095D01*
X122737554Y-57814622D01*
X122791716Y-57775270D01*
X122791717Y-57775270D01*
X122159408Y-57142962D01*
X122222993Y-57125925D01*
X122337007Y-57060099D01*
X122430099Y-56967007D01*
X122495925Y-56852993D01*
X122512962Y-56789408D01*
X123145270Y-57421717D01*
X123145270Y-57421716D01*
X123184622Y-57367554D01*
X123281095Y-57178217D01*
X123346757Y-56976130D01*
X123346757Y-56976127D01*
X123380000Y-56766246D01*
X123380000Y-56553753D01*
X123346757Y-56343872D01*
X123346757Y-56343869D01*
X123281095Y-56141782D01*
X123184624Y-55952449D01*
X123145270Y-55898282D01*
X123145269Y-55898282D01*
X122512962Y-56530590D01*
X122495925Y-56467007D01*
X122430099Y-56352993D01*
X122337007Y-56259901D01*
X122222993Y-56194075D01*
X122159408Y-56177037D01*
X122791716Y-55544728D01*
X122737547Y-55505373D01*
X122737547Y-55505372D01*
X122728500Y-55500763D01*
X122677706Y-55452788D01*
X122660912Y-55384966D01*
X122683451Y-55318832D01*
X122728508Y-55279793D01*
X122737816Y-55275051D01*
X122834658Y-55204692D01*
X122909786Y-55150109D01*
X122909788Y-55150106D01*
X122909792Y-55150104D01*
X123060104Y-54999792D01*
X123060106Y-54999788D01*
X123060109Y-54999786D01*
X123185048Y-54827820D01*
X123185047Y-54827820D01*
X123185051Y-54827816D01*
X123281557Y-54638412D01*
X123347246Y-54436243D01*
X123380500Y-54226287D01*
X123380500Y-54013713D01*
X123347246Y-53803757D01*
X123281557Y-53601588D01*
X123185051Y-53412184D01*
X123185049Y-53412181D01*
X123185048Y-53412179D01*
X123060109Y-53240213D01*
X122909786Y-53089890D01*
X122737820Y-52964951D01*
X122737115Y-52964591D01*
X122729054Y-52960485D01*
X122678259Y-52912512D01*
X122661463Y-52844692D01*
X122683999Y-52778556D01*
X122729054Y-52739515D01*
X122737816Y-52735051D01*
X122801967Y-52688443D01*
X122909786Y-52610109D01*
X122909788Y-52610106D01*
X122909792Y-52610104D01*
X123060104Y-52459792D01*
X123060106Y-52459788D01*
X123060109Y-52459786D01*
X123183615Y-52289792D01*
X123185051Y-52287816D01*
X123185839Y-52286268D01*
X123186296Y-52285784D01*
X123187596Y-52283664D01*
X123188041Y-52283936D01*
X123233808Y-52235470D01*
X123272129Y-52220939D01*
X123349744Y-52205501D01*
X123468127Y-52156465D01*
X123574669Y-52085277D01*
X124307819Y-51352125D01*
X124369142Y-51318641D01*
X124438833Y-51323625D01*
X124494767Y-51365496D01*
X124519184Y-51430961D01*
X124519500Y-51439807D01*
X124519500Y-51516287D01*
X124524732Y-51549318D01*
X124551169Y-51716239D01*
X124552754Y-51726243D01*
X124615194Y-51918414D01*
X124618444Y-51928414D01*
X124714951Y-52117820D01*
X124839890Y-52289786D01*
X124953818Y-52403714D01*
X124987303Y-52465037D01*
X124982319Y-52534729D01*
X124940447Y-52590662D01*
X124909471Y-52607577D01*
X124777912Y-52656646D01*
X124777906Y-52656649D01*
X124662812Y-52742809D01*
X124662809Y-52742812D01*
X124576649Y-52857906D01*
X124576645Y-52857913D01*
X124526403Y-52992620D01*
X124526401Y-52992627D01*
X124520000Y-53052155D01*
X124520000Y-53700000D01*
X125436988Y-53700000D01*
X125404075Y-53757007D01*
X125370000Y-53884174D01*
X125370000Y-54015826D01*
X125404075Y-54142993D01*
X125436988Y-54200000D01*
X124520000Y-54200000D01*
X124520000Y-54847844D01*
X124526401Y-54907372D01*
X124526403Y-54907379D01*
X124576645Y-55042086D01*
X124576649Y-55042093D01*
X124662809Y-55157187D01*
X124662812Y-55157190D01*
X124777906Y-55243350D01*
X124777913Y-55243354D01*
X124912620Y-55293596D01*
X124912627Y-55293598D01*
X124972155Y-55299999D01*
X124972172Y-55300000D01*
X125620000Y-55300000D01*
X125620000Y-54383012D01*
X125677007Y-54415925D01*
X125804174Y-54450000D01*
X125935826Y-54450000D01*
X126062993Y-54415925D01*
X126120000Y-54383012D01*
X126120000Y-55300000D01*
X126767828Y-55300000D01*
X126767844Y-55299999D01*
X126827372Y-55293598D01*
X126827379Y-55293596D01*
X126962086Y-55243354D01*
X126962093Y-55243350D01*
X127077187Y-55157190D01*
X127077190Y-55157187D01*
X127163350Y-55042093D01*
X127163354Y-55042086D01*
X127213596Y-54907379D01*
X127213598Y-54907372D01*
X127219999Y-54847844D01*
X127220000Y-54847827D01*
X127220000Y-54200000D01*
X126303012Y-54200000D01*
X126335925Y-54142993D01*
X126370000Y-54015826D01*
X126370000Y-53884174D01*
X126335925Y-53757007D01*
X126303012Y-53700000D01*
X127220000Y-53700000D01*
X127220000Y-53052172D01*
X127219999Y-53052155D01*
X127213598Y-52992627D01*
X127213596Y-52992620D01*
X127163354Y-52857913D01*
X127163350Y-52857906D01*
X127077190Y-52742812D01*
X127077187Y-52742809D01*
X126962093Y-52656649D01*
X126962088Y-52656646D01*
X126830528Y-52607577D01*
X126774595Y-52565705D01*
X126750178Y-52500241D01*
X126765030Y-52431968D01*
X126786175Y-52403720D01*
X126900104Y-52289792D01*
X126907370Y-52279792D01*
X127025048Y-52117820D01*
X127025047Y-52117820D01*
X127025051Y-52117816D01*
X127121557Y-51928412D01*
X127187246Y-51726243D01*
X127220500Y-51516287D01*
X127220500Y-51439807D01*
X127240185Y-51372769D01*
X127292989Y-51327014D01*
X127362147Y-51317070D01*
X127425703Y-51346095D01*
X127432181Y-51352127D01*
X127985324Y-51905271D01*
X127985327Y-51905274D01*
X128048595Y-51947548D01*
X128091866Y-51976461D01*
X128091872Y-51976464D01*
X128091873Y-51976465D01*
X128210256Y-52025501D01*
X128210260Y-52025501D01*
X128210261Y-52025502D01*
X128335928Y-52050500D01*
X128335931Y-52050500D01*
X128700382Y-52050500D01*
X128767421Y-52070185D01*
X128801099Y-52104591D01*
X128802085Y-52103875D01*
X128929890Y-52279786D01*
X129080213Y-52430109D01*
X129252182Y-52555050D01*
X129260946Y-52559516D01*
X129311742Y-52607491D01*
X129328536Y-52675312D01*
X129305998Y-52741447D01*
X129260946Y-52780484D01*
X129252182Y-52784949D01*
X129080213Y-52909890D01*
X128929890Y-53060213D01*
X128804951Y-53232179D01*
X128708444Y-53421585D01*
X128642753Y-53623760D01*
X128626099Y-53728913D01*
X128609500Y-53833713D01*
X128609500Y-54046287D01*
X128642754Y-54256243D01*
X128704342Y-54445792D01*
X128708444Y-54458414D01*
X128804951Y-54647820D01*
X128929890Y-54819786D01*
X129080213Y-54970109D01*
X129252182Y-55095050D01*
X129260946Y-55099516D01*
X129311742Y-55147491D01*
X129328536Y-55215312D01*
X129305998Y-55281447D01*
X129260946Y-55320484D01*
X129252182Y-55324949D01*
X129080213Y-55449890D01*
X128929890Y-55600213D01*
X128804951Y-55772179D01*
X128708444Y-55961585D01*
X128642753Y-56163760D01*
X128625789Y-56270868D01*
X128609500Y-56373713D01*
X128609500Y-56586287D01*
X128617744Y-56638340D01*
X128639713Y-56777048D01*
X128642754Y-56796243D01*
X128704344Y-56985798D01*
X128708444Y-56998414D01*
X128804951Y-57187820D01*
X128929890Y-57359786D01*
X129080213Y-57510109D01*
X129252182Y-57635050D01*
X129260946Y-57639516D01*
X129311742Y-57687491D01*
X129328536Y-57755312D01*
X129305998Y-57821447D01*
X129260946Y-57860484D01*
X129252182Y-57864949D01*
X129080213Y-57989890D01*
X128929890Y-58140213D01*
X128804951Y-58312179D01*
X128708444Y-58501585D01*
X128708443Y-58501587D01*
X128708443Y-58501588D01*
X128687012Y-58567546D01*
X128642753Y-58703760D01*
X128631292Y-58776122D01*
X128609500Y-58913713D01*
X128609500Y-59126287D01*
X128642754Y-59336243D01*
X128704342Y-59525792D01*
X128708444Y-59538414D01*
X128804951Y-59727820D01*
X128929890Y-59899786D01*
X129080213Y-60050109D01*
X129252182Y-60175050D01*
X129260946Y-60179516D01*
X129311742Y-60227491D01*
X129328536Y-60295312D01*
X129305998Y-60361447D01*
X129260946Y-60400484D01*
X129252182Y-60404949D01*
X129080213Y-60529890D01*
X128929890Y-60680213D01*
X128804951Y-60852179D01*
X128708444Y-61041585D01*
X128642753Y-61243760D01*
X128617137Y-61405495D01*
X128609500Y-61453713D01*
X128609500Y-61666287D01*
X128619534Y-61729644D01*
X128642238Y-61872989D01*
X128642754Y-61876243D01*
X128704342Y-62065792D01*
X128708444Y-62078414D01*
X128804951Y-62267820D01*
X128929890Y-62439786D01*
X129080213Y-62590109D01*
X129252182Y-62715050D01*
X129260946Y-62719516D01*
X129311742Y-62767491D01*
X129328536Y-62835312D01*
X129305998Y-62901447D01*
X129260946Y-62940484D01*
X129252182Y-62944949D01*
X129080213Y-63069890D01*
X128929890Y-63220213D01*
X128804951Y-63392179D01*
X128708444Y-63581585D01*
X128642753Y-63783760D01*
X128623354Y-63906243D01*
X128609500Y-63993713D01*
X128609500Y-64206287D01*
X128619534Y-64269644D01*
X128623997Y-64297820D01*
X128642754Y-64416243D01*
X128704342Y-64605792D01*
X128708444Y-64618414D01*
X128804951Y-64807820D01*
X128929890Y-64979786D01*
X129080213Y-65130109D01*
X129252182Y-65255050D01*
X129260946Y-65259516D01*
X129311742Y-65307491D01*
X129328536Y-65375312D01*
X129305998Y-65441447D01*
X129260946Y-65480484D01*
X129252182Y-65484949D01*
X129080213Y-65609890D01*
X128929890Y-65760213D01*
X128804951Y-65932179D01*
X128708444Y-66121585D01*
X128708443Y-66121587D01*
X128708443Y-66121588D01*
X128679257Y-66211412D01*
X128642753Y-66323760D01*
X128631292Y-66396122D01*
X128609500Y-66533713D01*
X128609500Y-66746287D01*
X128642754Y-66956243D01*
X128704342Y-67145792D01*
X128708444Y-67158414D01*
X128804951Y-67347820D01*
X128929890Y-67519786D01*
X129080213Y-67670109D01*
X129252179Y-67795048D01*
X129252181Y-67795049D01*
X129252184Y-67795051D01*
X129441588Y-67891557D01*
X129643757Y-67957246D01*
X129853713Y-67990500D01*
X129853714Y-67990500D01*
X130066286Y-67990500D01*
X130066287Y-67990500D01*
X130276243Y-67957246D01*
X130478412Y-67891557D01*
X130667816Y-67795051D01*
X130693888Y-67776109D01*
X130839786Y-67670109D01*
X130839788Y-67670106D01*
X130839792Y-67670104D01*
X130990104Y-67519792D01*
X130990106Y-67519788D01*
X130990109Y-67519786D01*
X131115048Y-67347820D01*
X131115047Y-67347820D01*
X131115051Y-67347816D01*
X131211557Y-67158412D01*
X131277246Y-66956243D01*
X131310500Y-66746287D01*
X131310500Y-66533713D01*
X131277246Y-66323757D01*
X131211557Y-66121588D01*
X131115051Y-65932184D01*
X131115049Y-65932181D01*
X131115048Y-65932179D01*
X130990109Y-65760213D01*
X130839786Y-65609890D01*
X130667820Y-65484951D01*
X130667115Y-65484591D01*
X130659054Y-65480485D01*
X130608259Y-65432512D01*
X130591463Y-65364692D01*
X130613999Y-65298556D01*
X130659054Y-65259515D01*
X130667816Y-65255051D01*
X130693888Y-65236109D01*
X130839786Y-65130109D01*
X130839788Y-65130106D01*
X130839792Y-65130104D01*
X130990104Y-64979792D01*
X130990106Y-64979788D01*
X130990109Y-64979786D01*
X131115048Y-64807820D01*
X131115047Y-64807820D01*
X131115051Y-64807816D01*
X131211557Y-64618412D01*
X131277246Y-64416243D01*
X131310500Y-64206287D01*
X131310500Y-63993713D01*
X131277246Y-63783757D01*
X131211557Y-63581588D01*
X131115051Y-63392184D01*
X131115049Y-63392181D01*
X131115048Y-63392179D01*
X130990109Y-63220213D01*
X130839786Y-63069890D01*
X130667820Y-62944951D01*
X130667115Y-62944591D01*
X130659054Y-62940485D01*
X130608259Y-62892512D01*
X130591463Y-62824692D01*
X130613999Y-62758556D01*
X130659054Y-62719515D01*
X130667816Y-62715051D01*
X130693888Y-62696109D01*
X130839786Y-62590109D01*
X130839788Y-62590106D01*
X130839792Y-62590104D01*
X130990104Y-62439792D01*
X130990106Y-62439788D01*
X130990109Y-62439786D01*
X131115048Y-62267820D01*
X131115047Y-62267820D01*
X131115051Y-62267816D01*
X131211557Y-62078412D01*
X131277246Y-61876243D01*
X131310500Y-61666287D01*
X131310500Y-61453713D01*
X131277246Y-61243757D01*
X131211557Y-61041588D01*
X131115051Y-60852184D01*
X131115049Y-60852181D01*
X131115048Y-60852179D01*
X130990109Y-60680213D01*
X130839786Y-60529890D01*
X130667820Y-60404951D01*
X130667115Y-60404591D01*
X130659054Y-60400485D01*
X130608259Y-60352512D01*
X130591463Y-60284692D01*
X130613999Y-60218556D01*
X130659054Y-60179515D01*
X130667816Y-60175051D01*
X130780760Y-60092993D01*
X130839786Y-60050109D01*
X130839788Y-60050106D01*
X130839792Y-60050104D01*
X130990104Y-59899792D01*
X130990106Y-59899788D01*
X130990109Y-59899786D01*
X131115048Y-59727820D01*
X131115047Y-59727820D01*
X131115051Y-59727816D01*
X131211557Y-59538412D01*
X131277246Y-59336243D01*
X131310500Y-59126287D01*
X131310500Y-58913713D01*
X131277246Y-58703757D01*
X131211557Y-58501588D01*
X131115051Y-58312184D01*
X131115049Y-58312181D01*
X131115048Y-58312179D01*
X130990109Y-58140213D01*
X130839786Y-57989890D01*
X130667820Y-57864951D01*
X130667115Y-57864591D01*
X130659054Y-57860485D01*
X130608259Y-57812512D01*
X130591463Y-57744692D01*
X130613999Y-57678556D01*
X130659054Y-57639515D01*
X130667816Y-57635051D01*
X130816468Y-57527050D01*
X130839786Y-57510109D01*
X130839788Y-57510106D01*
X130839792Y-57510104D01*
X130990104Y-57359792D01*
X130990106Y-57359788D01*
X130990109Y-57359786D01*
X131115048Y-57187820D01*
X131115047Y-57187820D01*
X131115051Y-57187816D01*
X131211557Y-56998412D01*
X131277246Y-56796243D01*
X131310500Y-56586287D01*
X131310500Y-56373713D01*
X131277246Y-56163757D01*
X131211557Y-55961588D01*
X131115051Y-55772184D01*
X131115049Y-55772181D01*
X131115048Y-55772179D01*
X130990109Y-55600213D01*
X130839786Y-55449890D01*
X130667820Y-55324951D01*
X130667115Y-55324591D01*
X130659054Y-55320485D01*
X130608259Y-55272512D01*
X130591463Y-55204692D01*
X130613999Y-55138556D01*
X130659054Y-55099515D01*
X130667816Y-55095051D01*
X130798930Y-54999792D01*
X130839786Y-54970109D01*
X130839788Y-54970106D01*
X130839792Y-54970104D01*
X130990104Y-54819792D01*
X130990106Y-54819788D01*
X130990109Y-54819786D01*
X131115048Y-54647820D01*
X131115047Y-54647820D01*
X131115051Y-54647816D01*
X131211557Y-54458412D01*
X131277246Y-54256243D01*
X131310500Y-54046287D01*
X131310500Y-53833713D01*
X131277246Y-53623757D01*
X131211557Y-53421588D01*
X131115051Y-53232184D01*
X131115049Y-53232181D01*
X131115048Y-53232179D01*
X130990109Y-53060213D01*
X130839786Y-52909890D01*
X130667820Y-52784951D01*
X130667115Y-52784591D01*
X130659054Y-52780485D01*
X130608259Y-52732512D01*
X130591463Y-52664692D01*
X130613999Y-52598556D01*
X130659054Y-52559515D01*
X130667816Y-52555051D01*
X130798930Y-52459792D01*
X130839786Y-52430109D01*
X130839788Y-52430106D01*
X130839792Y-52430104D01*
X130990104Y-52279792D01*
X130990106Y-52279788D01*
X130990109Y-52279786D01*
X131115048Y-52107820D01*
X131115047Y-52107820D01*
X131115051Y-52107816D01*
X131211557Y-51918412D01*
X131277246Y-51716243D01*
X131310500Y-51506287D01*
X131310500Y-51293713D01*
X131277246Y-51083757D01*
X131211557Y-50881588D01*
X131115051Y-50692184D01*
X131115049Y-50692181D01*
X131115048Y-50692179D01*
X130990109Y-50520213D01*
X130839786Y-50369890D01*
X130667820Y-50244951D01*
X130667115Y-50244591D01*
X130659054Y-50240485D01*
X130608259Y-50192512D01*
X130591463Y-50124692D01*
X130613999Y-50058556D01*
X130659054Y-50019515D01*
X130667816Y-50015051D01*
X130798930Y-49919792D01*
X130839786Y-49890109D01*
X130839788Y-49890106D01*
X130839792Y-49890104D01*
X130990104Y-49739792D01*
X130990106Y-49739788D01*
X130990109Y-49739786D01*
X131115048Y-49567820D01*
X131115047Y-49567820D01*
X131115051Y-49567816D01*
X131211557Y-49378412D01*
X131277246Y-49176243D01*
X131310500Y-48966287D01*
X131310500Y-48753713D01*
X131277246Y-48543757D01*
X131211557Y-48341588D01*
X131115051Y-48152184D01*
X131115049Y-48152181D01*
X131115048Y-48152179D01*
X130990109Y-47980213D01*
X130839786Y-47829890D01*
X130667817Y-47704949D01*
X130658504Y-47700204D01*
X130607707Y-47652230D01*
X130590912Y-47584409D01*
X130613449Y-47518274D01*
X130658507Y-47479232D01*
X130667555Y-47474622D01*
X130721716Y-47435270D01*
X130721717Y-47435270D01*
X130089408Y-46802962D01*
X130152993Y-46785925D01*
X130267007Y-46720099D01*
X130360099Y-46627007D01*
X130425925Y-46512993D01*
X130442962Y-46449408D01*
X131075270Y-47081717D01*
X131075270Y-47081716D01*
X131114622Y-47027554D01*
X131211095Y-46838217D01*
X131276757Y-46636130D01*
X131276757Y-46636127D01*
X131310000Y-46426246D01*
X131310000Y-46213753D01*
X131276757Y-46003872D01*
X131276757Y-46003869D01*
X131211095Y-45801782D01*
X131114624Y-45612449D01*
X131075270Y-45558282D01*
X131075269Y-45558282D01*
X130442962Y-46190590D01*
X130425925Y-46127007D01*
X130360099Y-46012993D01*
X130267007Y-45919901D01*
X130152993Y-45854075D01*
X130089409Y-45837037D01*
X130759627Y-45166818D01*
X130820950Y-45133333D01*
X130847307Y-45130499D01*
X130857872Y-45130499D01*
X130917483Y-45124091D01*
X131052331Y-45073796D01*
X131167546Y-44987546D01*
X131253796Y-44872331D01*
X131304091Y-44737483D01*
X131310500Y-44677873D01*
X131310499Y-42882128D01*
X131304091Y-42822517D01*
X131298557Y-42807680D01*
X131253797Y-42687671D01*
X131253793Y-42687664D01*
X131167547Y-42572455D01*
X131167544Y-42572452D01*
X131052335Y-42486206D01*
X131052328Y-42486202D01*
X130917482Y-42435908D01*
X130917483Y-42435908D01*
X130857883Y-42429501D01*
X130857881Y-42429500D01*
X130857873Y-42429500D01*
X130857864Y-42429500D01*
X129062129Y-42429500D01*
X129062123Y-42429501D01*
X129002516Y-42435908D01*
X128867671Y-42486202D01*
X128867664Y-42486206D01*
X128752455Y-42572452D01*
X128752452Y-42572455D01*
X128666206Y-42687664D01*
X128666202Y-42687671D01*
X128615908Y-42822517D01*
X128611055Y-42867664D01*
X128609501Y-42882123D01*
X128609500Y-42882135D01*
X128609500Y-44677870D01*
X128609501Y-44677876D01*
X128615908Y-44737483D01*
X128666202Y-44872328D01*
X128666206Y-44872335D01*
X128752452Y-44987544D01*
X128752455Y-44987547D01*
X128867664Y-45073793D01*
X128867671Y-45073797D01*
X128912618Y-45090561D01*
X129002517Y-45124091D01*
X129062127Y-45130500D01*
X129072685Y-45130499D01*
X129139723Y-45150179D01*
X129160372Y-45166818D01*
X129830591Y-45837037D01*
X129767007Y-45854075D01*
X129652993Y-45919901D01*
X129559901Y-46012993D01*
X129494075Y-46127007D01*
X129477037Y-46190591D01*
X128844728Y-45558282D01*
X128844727Y-45558282D01*
X128805380Y-45612439D01*
X128708904Y-45801782D01*
X128643242Y-46003869D01*
X128643242Y-46003872D01*
X128610000Y-46213753D01*
X128610000Y-46290691D01*
X128590315Y-46357730D01*
X128537511Y-46403485D01*
X128468353Y-46413429D01*
X128404797Y-46384404D01*
X128398319Y-46378372D01*
X127844673Y-45824726D01*
X127844669Y-45824723D01*
X127738127Y-45753535D01*
X127711346Y-45742442D01*
X127619744Y-45704499D01*
X127619745Y-45704499D01*
X127616855Y-45703924D01*
X127608106Y-45702184D01*
X127494071Y-45679500D01*
X127494069Y-45679500D01*
X127129618Y-45679500D01*
X127062579Y-45659815D01*
X127028900Y-45625408D01*
X127027915Y-45626125D01*
X126900109Y-45450213D01*
X126749786Y-45299890D01*
X126577820Y-45174951D01*
X126569975Y-45170954D01*
X126569054Y-45170485D01*
X126518259Y-45122512D01*
X126501463Y-45054692D01*
X126523999Y-44988556D01*
X126569054Y-44949515D01*
X126577816Y-44945051D01*
X126677902Y-44872335D01*
X126749786Y-44820109D01*
X126749788Y-44820106D01*
X126749792Y-44820104D01*
X126900104Y-44669792D01*
X126900106Y-44669788D01*
X126900109Y-44669786D01*
X127025048Y-44497820D01*
X127025047Y-44497820D01*
X127025051Y-44497816D01*
X127121557Y-44308412D01*
X127187246Y-44106243D01*
X127220500Y-43896287D01*
X127220500Y-43683713D01*
X127187246Y-43473757D01*
X127121557Y-43271588D01*
X127025051Y-43082184D01*
X127025049Y-43082181D01*
X127025048Y-43082179D01*
X126930244Y-42951691D01*
X126900109Y-42910214D01*
X126900105Y-42910209D01*
X126749786Y-42759890D01*
X126577820Y-42634951D01*
X126388414Y-42538444D01*
X126388413Y-42538443D01*
X126388412Y-42538443D01*
X126186243Y-42472754D01*
X126186241Y-42472753D01*
X126186240Y-42472753D01*
X126024957Y-42447208D01*
X125976287Y-42439500D01*
X125763713Y-42439500D01*
X125715042Y-42447208D01*
X125553760Y-42472753D01*
X125351585Y-42538444D01*
X125162179Y-42634951D01*
X124990213Y-42759890D01*
X124839890Y-42910213D01*
X124714951Y-43082179D01*
X124618444Y-43271585D01*
X124552753Y-43473760D01*
X124532832Y-43599539D01*
X124519500Y-43683713D01*
X124519500Y-43896287D01*
X124552754Y-44106243D01*
X124611093Y-44285792D01*
X124618444Y-44308414D01*
X124714951Y-44497820D01*
X124839890Y-44669786D01*
X124990213Y-44820109D01*
X125162182Y-44945050D01*
X125170946Y-44949516D01*
X125221742Y-44997491D01*
X125238536Y-45065312D01*
X125215998Y-45131447D01*
X125170946Y-45170484D01*
X125162182Y-45174949D01*
X124990213Y-45299890D01*
X124839890Y-45450213D01*
X124712085Y-45626125D01*
X124710740Y-45625148D01*
X124664295Y-45667166D01*
X124610382Y-45679500D01*
X124315929Y-45679500D01*
X124201894Y-45702184D01*
X124193144Y-45703924D01*
X124190255Y-45704499D01*
X124071870Y-45753535D01*
X123965331Y-45824722D01*
X123965324Y-45824728D01*
X123553857Y-46236196D01*
X123492534Y-46269681D01*
X123422842Y-46264697D01*
X123366909Y-46222825D01*
X123348245Y-46186833D01*
X123347246Y-46183757D01*
X123281557Y-45981588D01*
X123185051Y-45792184D01*
X123185049Y-45792181D01*
X123185048Y-45792179D01*
X123060109Y-45620213D01*
X122946569Y-45506673D01*
X122913084Y-45445350D01*
X122918068Y-45375658D01*
X122959940Y-45319725D01*
X122990915Y-45302810D01*
X123122331Y-45253796D01*
X123237546Y-45167546D01*
X123323796Y-45052331D01*
X123374091Y-44917483D01*
X123380500Y-44857873D01*
X123380499Y-43062128D01*
X123374091Y-43002517D01*
X123355442Y-42952517D01*
X123323797Y-42867671D01*
X123323793Y-42867664D01*
X123237547Y-42752455D01*
X123237544Y-42752452D01*
X123122335Y-42666206D01*
X123122328Y-42666202D01*
X122987482Y-42615908D01*
X122987483Y-42615908D01*
X122927883Y-42609501D01*
X122927881Y-42609500D01*
X122927873Y-42609500D01*
X122927864Y-42609500D01*
X121132129Y-42609500D01*
X121132123Y-42609501D01*
X121072516Y-42615908D01*
X120937671Y-42666202D01*
X120937664Y-42666206D01*
X120822455Y-42752452D01*
X120822452Y-42752455D01*
X120736206Y-42867664D01*
X120736202Y-42867671D01*
X120685908Y-43002517D01*
X120680152Y-43056061D01*
X120679501Y-43062123D01*
X120679500Y-43062135D01*
X120679500Y-44857870D01*
X120679501Y-44857876D01*
X120685908Y-44917483D01*
X120736202Y-45052328D01*
X120736206Y-45052335D01*
X120822452Y-45167544D01*
X120822455Y-45167547D01*
X120937664Y-45253793D01*
X120937671Y-45253797D01*
X121069082Y-45302810D01*
X121125016Y-45344681D01*
X121149433Y-45410145D01*
X121134582Y-45478418D01*
X121113431Y-45506673D01*
X120999889Y-45620215D01*
X120874951Y-45792179D01*
X120778444Y-45981585D01*
X120712753Y-46183760D01*
X120679500Y-46393713D01*
X120679500Y-46606287D01*
X120679499Y-46606287D01*
X120702075Y-46748823D01*
X120693120Y-46818116D01*
X120648124Y-46871568D01*
X120581372Y-46892207D01*
X120579602Y-46892220D01*
X119284538Y-46892220D01*
X119217499Y-46872535D01*
X119184221Y-46841107D01*
X119173094Y-46825792D01*
X119050610Y-46703308D01*
X119050608Y-46703306D01*
X118910468Y-46601488D01*
X118756125Y-46522847D01*
X118591381Y-46469318D01*
X118591379Y-46469317D01*
X118591378Y-46469317D01*
X118459951Y-46448501D01*
X118420291Y-46442220D01*
X117447069Y-46442220D01*
X117407408Y-46448501D01*
X117275982Y-46469317D01*
X117111232Y-46522848D01*
X116956891Y-46601488D01*
X116899765Y-46642993D01*
X116816752Y-46703306D01*
X116816750Y-46703308D01*
X116816749Y-46703308D01*
X116694268Y-46825789D01*
X116694268Y-46825790D01*
X116694266Y-46825792D01*
X116685239Y-46838217D01*
X116592448Y-46965931D01*
X116513808Y-47120272D01*
X116460277Y-47285022D01*
X116433180Y-47456109D01*
X116433180Y-47629330D01*
X116458811Y-47791164D01*
X116460278Y-47800421D01*
X116513807Y-47965165D01*
X116592448Y-48119508D01*
X116694266Y-48259648D01*
X116816752Y-48382134D01*
X116956892Y-48483952D01*
X117111235Y-48562593D01*
X117275979Y-48616122D01*
X117447069Y-48643220D01*
X117447070Y-48643220D01*
X118420290Y-48643220D01*
X118420291Y-48643220D01*
X118591381Y-48616122D01*
X118756125Y-48562593D01*
X118910468Y-48483952D01*
X119050608Y-48382134D01*
X119173094Y-48259648D01*
X119184221Y-48244332D01*
X119239552Y-48201668D01*
X119284538Y-48193220D01*
X120191912Y-48193220D01*
X120258951Y-48212905D01*
X120279593Y-48229539D01*
X120676426Y-48626372D01*
X120709911Y-48687695D01*
X120711218Y-48733451D01*
X120687419Y-48883713D01*
X120679500Y-48933713D01*
X120679500Y-49146287D01*
X120686591Y-49191055D01*
X120712753Y-49356239D01*
X120778444Y-49558414D01*
X120874951Y-49747820D01*
X120999890Y-49919786D01*
X121150213Y-50070109D01*
X121322182Y-50195050D01*
X121330946Y-50199516D01*
X121381742Y-50247491D01*
X121398536Y-50315312D01*
X121375998Y-50381447D01*
X121330946Y-50420484D01*
X121322182Y-50424949D01*
X121150213Y-50549890D01*
X120999890Y-50700213D01*
X120874951Y-50872179D01*
X120778444Y-51061585D01*
X120712753Y-51263760D01*
X120698757Y-51352127D01*
X120679500Y-51473713D01*
X120679500Y-51686287D01*
X120694866Y-51783306D01*
X120713516Y-51901055D01*
X120711877Y-51901314D01*
X120708738Y-51963883D01*
X120679342Y-52010710D01*
X119674722Y-53015331D01*
X119674720Y-53015333D01*
X119654789Y-53045165D01*
X119644738Y-53060208D01*
X119644735Y-53060213D01*
X119603534Y-53121873D01*
X119554499Y-53240255D01*
X119554497Y-53240261D01*
X119529500Y-53365928D01*
X119529500Y-54109191D01*
X119509815Y-54176230D01*
X119493181Y-54196872D01*
X119296358Y-54393694D01*
X119235035Y-54427179D01*
X119165343Y-54422195D01*
X119120996Y-54393694D01*
X119050610Y-54323308D01*
X119050608Y-54323306D01*
X118910468Y-54221488D01*
X118756125Y-54142847D01*
X118591381Y-54089318D01*
X118591379Y-54089317D01*
X118591378Y-54089317D01*
X118459951Y-54068501D01*
X118420291Y-54062220D01*
X117447069Y-54062220D01*
X117407408Y-54068501D01*
X117275982Y-54089317D01*
X117111232Y-54142848D01*
X116956891Y-54221488D01*
X116909056Y-54256243D01*
X116816752Y-54323306D01*
X116816750Y-54323308D01*
X116816749Y-54323308D01*
X116694268Y-54445789D01*
X116694268Y-54445790D01*
X116694266Y-54445792D01*
X116691209Y-54450000D01*
X116592448Y-54585931D01*
X116513808Y-54740272D01*
X116460277Y-54905022D01*
X116433180Y-55076109D01*
X116433180Y-55249330D01*
X116452538Y-55371557D01*
X116460278Y-55420421D01*
X116513807Y-55585165D01*
X116592448Y-55739508D01*
X116694266Y-55879648D01*
X116816752Y-56002134D01*
X116956892Y-56103952D01*
X117111235Y-56182593D01*
X117275979Y-56236122D01*
X117447069Y-56263220D01*
X117447070Y-56263220D01*
X118420290Y-56263220D01*
X118420291Y-56263220D01*
X118591381Y-56236122D01*
X118756125Y-56182593D01*
X118910468Y-56103952D01*
X119050608Y-56002134D01*
X119173094Y-55879648D01*
X119184221Y-55864332D01*
X119188552Y-55860993D01*
X119190825Y-55856017D01*
X119215925Y-55839885D01*
X119239552Y-55821668D01*
X119246222Y-55820415D01*
X119249603Y-55818243D01*
X119284538Y-55813220D01*
X119315500Y-55813220D01*
X119382539Y-55832905D01*
X119428294Y-55885709D01*
X119439500Y-55937220D01*
X119439500Y-56970835D01*
X119419815Y-57037874D01*
X119367011Y-57083629D01*
X119297853Y-57093573D01*
X119234297Y-57064548D01*
X119215183Y-57043721D01*
X119173098Y-56985798D01*
X119173094Y-56985792D01*
X119050608Y-56863306D01*
X118910468Y-56761488D01*
X118756125Y-56682847D01*
X118591381Y-56629318D01*
X118591379Y-56629317D01*
X118591378Y-56629317D01*
X118459951Y-56608501D01*
X118420291Y-56602220D01*
X117447069Y-56602220D01*
X117407408Y-56608501D01*
X117275982Y-56629317D01*
X117111232Y-56682848D01*
X116956891Y-56761488D01*
X116909056Y-56796243D01*
X116816752Y-56863306D01*
X116816750Y-56863308D01*
X116816749Y-56863308D01*
X116694268Y-56985789D01*
X116694268Y-56985790D01*
X116694266Y-56985792D01*
X116694262Y-56985798D01*
X116592448Y-57125931D01*
X116513808Y-57280272D01*
X116460277Y-57445022D01*
X116433180Y-57616109D01*
X116433180Y-57789330D01*
X116452465Y-57911095D01*
X116460278Y-57960421D01*
X116476387Y-58010000D01*
X116513809Y-58125170D01*
X116583489Y-58261926D01*
X116596385Y-58330595D01*
X116570108Y-58395335D01*
X116513002Y-58435592D01*
X116473004Y-58442220D01*
X109625910Y-58442220D01*
X109558871Y-58422535D01*
X109538229Y-58405901D01*
X103668437Y-52536109D01*
X116433180Y-52536109D01*
X116433180Y-52709331D01*
X116436852Y-52732512D01*
X116452538Y-52831557D01*
X116460278Y-52880421D01*
X116513807Y-53045165D01*
X116592448Y-53199508D01*
X116694266Y-53339648D01*
X116816752Y-53462134D01*
X116956892Y-53563952D01*
X117111235Y-53642593D01*
X117275979Y-53696122D01*
X117447069Y-53723220D01*
X117447070Y-53723220D01*
X118420290Y-53723220D01*
X118420291Y-53723220D01*
X118591381Y-53696122D01*
X118756125Y-53642593D01*
X118910468Y-53563952D01*
X119050608Y-53462134D01*
X119173094Y-53339648D01*
X119274912Y-53199508D01*
X119353553Y-53045165D01*
X119407082Y-52880421D01*
X119434180Y-52709331D01*
X119434180Y-52536109D01*
X119407082Y-52365019D01*
X119353553Y-52200275D01*
X119274912Y-52045932D01*
X119173094Y-51905792D01*
X119050608Y-51783306D01*
X118910468Y-51681488D01*
X118756125Y-51602847D01*
X118591381Y-51549318D01*
X118591379Y-51549317D01*
X118591378Y-51549317D01*
X118459951Y-51528501D01*
X118420291Y-51522220D01*
X117447069Y-51522220D01*
X117407408Y-51528501D01*
X117275982Y-51549317D01*
X117111232Y-51602848D01*
X116956891Y-51681488D01*
X116909056Y-51716243D01*
X116816752Y-51783306D01*
X116816750Y-51783308D01*
X116816749Y-51783308D01*
X116694268Y-51905789D01*
X116694268Y-51905790D01*
X116694266Y-51905792D01*
X116656755Y-51957421D01*
X116592448Y-52045931D01*
X116513808Y-52200272D01*
X116460277Y-52365022D01*
X116440011Y-52492978D01*
X116433180Y-52536109D01*
X103668437Y-52536109D01*
X101128437Y-49996109D01*
X116433180Y-49996109D01*
X116433180Y-50169331D01*
X116437254Y-50195051D01*
X116452538Y-50291557D01*
X116460278Y-50340421D01*
X116513807Y-50505165D01*
X116592448Y-50659508D01*
X116694266Y-50799648D01*
X116816752Y-50922134D01*
X116956892Y-51023952D01*
X117111235Y-51102593D01*
X117275979Y-51156122D01*
X117447069Y-51183220D01*
X117447070Y-51183220D01*
X118420290Y-51183220D01*
X118420291Y-51183220D01*
X118591381Y-51156122D01*
X118756125Y-51102593D01*
X118910468Y-51023952D01*
X119050608Y-50922134D01*
X119173094Y-50799648D01*
X119274912Y-50659508D01*
X119353553Y-50505165D01*
X119407082Y-50340421D01*
X119434180Y-50169331D01*
X119434180Y-49996109D01*
X119407082Y-49825019D01*
X119353553Y-49660275D01*
X119274912Y-49505932D01*
X119173094Y-49365792D01*
X119050608Y-49243306D01*
X118910468Y-49141488D01*
X118756125Y-49062847D01*
X118591381Y-49009318D01*
X118591379Y-49009317D01*
X118591378Y-49009317D01*
X118459951Y-48988501D01*
X118420291Y-48982220D01*
X117447069Y-48982220D01*
X117407408Y-48988501D01*
X117275982Y-49009317D01*
X117111232Y-49062848D01*
X116956891Y-49141488D01*
X116876936Y-49199579D01*
X116816752Y-49243306D01*
X116816750Y-49243308D01*
X116816749Y-49243308D01*
X116694268Y-49365789D01*
X116694268Y-49365790D01*
X116694266Y-49365792D01*
X116685097Y-49378412D01*
X116592448Y-49505931D01*
X116513808Y-49660272D01*
X116460277Y-49825022D01*
X116445268Y-49919786D01*
X116433180Y-49996109D01*
X101128437Y-49996109D01*
X96048437Y-44916109D01*
X116433180Y-44916109D01*
X116433180Y-45089330D01*
X116459642Y-45256409D01*
X116460278Y-45260421D01*
X116513807Y-45425165D01*
X116592448Y-45579508D01*
X116694266Y-45719648D01*
X116816752Y-45842134D01*
X116956892Y-45943952D01*
X117111235Y-46022593D01*
X117275979Y-46076122D01*
X117447069Y-46103220D01*
X117447070Y-46103220D01*
X118420290Y-46103220D01*
X118420291Y-46103220D01*
X118591381Y-46076122D01*
X118756125Y-46022593D01*
X118910468Y-45943952D01*
X119050608Y-45842134D01*
X119173094Y-45719648D01*
X119274912Y-45579508D01*
X119353553Y-45425165D01*
X119407082Y-45260421D01*
X119434180Y-45089331D01*
X119434180Y-44916109D01*
X119407082Y-44745019D01*
X119353553Y-44580275D01*
X119274912Y-44425932D01*
X119173094Y-44285792D01*
X119050608Y-44163306D01*
X118910468Y-44061488D01*
X118756125Y-43982847D01*
X118591381Y-43929318D01*
X118591379Y-43929317D01*
X118591378Y-43929317D01*
X118459951Y-43908501D01*
X118420291Y-43902220D01*
X117447069Y-43902220D01*
X117407408Y-43908501D01*
X117275982Y-43929317D01*
X117111232Y-43982848D01*
X116956891Y-44061488D01*
X116895298Y-44106239D01*
X116816752Y-44163306D01*
X116816750Y-44163308D01*
X116816749Y-44163308D01*
X116694268Y-44285789D01*
X116694268Y-44285790D01*
X116694266Y-44285792D01*
X116677832Y-44308412D01*
X116592448Y-44425931D01*
X116513808Y-44580272D01*
X116460277Y-44745022D01*
X116433180Y-44916109D01*
X96048437Y-44916109D01*
X94022964Y-42890636D01*
X93989479Y-42829313D01*
X93992714Y-42764637D01*
X94007082Y-42720421D01*
X94034180Y-42549331D01*
X94034180Y-42376109D01*
X94007082Y-42205019D01*
X93978729Y-42117759D01*
X116433180Y-42117759D01*
X116433180Y-42807680D01*
X116448310Y-42941969D01*
X116448311Y-42941974D01*
X116507891Y-43112243D01*
X116555708Y-43188342D01*
X116603864Y-43264982D01*
X116731418Y-43392536D01*
X116821760Y-43449302D01*
X116874742Y-43482593D01*
X116884158Y-43488509D01*
X117020228Y-43536122D01*
X117054425Y-43548088D01*
X117054430Y-43548089D01*
X117144926Y-43558285D01*
X117188720Y-43563219D01*
X117188723Y-43563220D01*
X117188726Y-43563220D01*
X118678637Y-43563220D01*
X118678638Y-43563219D01*
X118745784Y-43555654D01*
X118812929Y-43548089D01*
X118812932Y-43548088D01*
X118812935Y-43548088D01*
X118983202Y-43488509D01*
X119135942Y-43392536D01*
X119263496Y-43264982D01*
X119359469Y-43112242D01*
X119419048Y-42941975D01*
X119424833Y-42890636D01*
X119431742Y-42829313D01*
X119434180Y-42807674D01*
X119434180Y-42117766D01*
X119419048Y-41983465D01*
X119359469Y-41813198D01*
X119263496Y-41660458D01*
X119135942Y-41532904D01*
X119117774Y-41521488D01*
X118983203Y-41436931D01*
X118812934Y-41377351D01*
X118812929Y-41377350D01*
X118678640Y-41362220D01*
X118678634Y-41362220D01*
X117188726Y-41362220D01*
X117188719Y-41362220D01*
X117054430Y-41377350D01*
X117054425Y-41377351D01*
X116884156Y-41436931D01*
X116731417Y-41532904D01*
X116603864Y-41660457D01*
X116507891Y-41813196D01*
X116448311Y-41983465D01*
X116448310Y-41983470D01*
X116433180Y-42117759D01*
X93978729Y-42117759D01*
X93953553Y-42040275D01*
X93874912Y-41885932D01*
X93773094Y-41745792D01*
X93650608Y-41623306D01*
X93510468Y-41521488D01*
X93356125Y-41442847D01*
X93191381Y-41389318D01*
X93191379Y-41389317D01*
X93191378Y-41389317D01*
X93059951Y-41368501D01*
X93020291Y-41362220D01*
X92047069Y-41362220D01*
X92007408Y-41368501D01*
X91875982Y-41389317D01*
X91711232Y-41442848D01*
X91556891Y-41521488D01*
X91476936Y-41579579D01*
X91416752Y-41623306D01*
X91416750Y-41623308D01*
X91416749Y-41623308D01*
X91294268Y-41745789D01*
X91294268Y-41745790D01*
X91294266Y-41745792D01*
X91250539Y-41805976D01*
X91192448Y-41885931D01*
X91113808Y-42040272D01*
X91060277Y-42205022D01*
X91060277Y-42205024D01*
X91033180Y-42376109D01*
X90500500Y-42376109D01*
X90500500Y-40624500D01*
X90520185Y-40557461D01*
X90572989Y-40511706D01*
X90624500Y-40500500D01*
X139375500Y-40500500D01*
X139442539Y-40520185D01*
G37*
%TD.AperFunction*%
%TD*%
M02*
