M48
; DRILL file KiCad 10.0.3 date 2026-05-24T23:13:48
; FORMAT={-:-/ absolute / metric / decimal}
; #@! TF.CreationDate,2026-05-24T23:13:48+07:00
; #@! TF.GenerationSoftware,Kicad,Pcbnew,10.0.3
; #@! TF.FileFunction,Plated,1,2,PTH
FMAT,2
METRIC
; #@! TA.AperFunction,Plated,PTH,ComponentDrill
T1C0.500
; #@! TA.AperFunction,Plated,PTH,ComponentDrill
T2C0.762
; #@! TA.AperFunction,Plated,PTH,ComponentDrill
T3C0.800
; #@! TA.AperFunction,Plated,PTH,ComponentDrill
T4C1.000
%
G90
G05
T1
X121.34Y-61.46
X121.34Y-64.01
T2
X122.27Y-73.66
X135.845Y-51.53
X135.845Y-64.98
X135.845Y-78.08
T3
X92.534Y-42.463
X92.534Y-45.003
X92.534Y-47.543
X92.534Y-50.083
X92.534Y-52.623
X92.534Y-55.163
X92.534Y-57.703
X92.534Y-60.243
X92.534Y-62.783
X92.534Y-65.323
X92.534Y-67.863
X92.534Y-70.403
X92.534Y-72.943
X92.534Y-75.483
X92.534Y-78.023
X92.534Y-80.563
X92.534Y-83.103
X92.534Y-85.643
X92.534Y-88.183
X117.93Y-85.64
X117.93Y-88.18
X117.934Y-42.463
X117.934Y-45.003
X117.934Y-47.543
X117.934Y-50.083
X117.934Y-52.623
X117.934Y-55.163
X117.934Y-57.703
X117.934Y-60.243
X117.934Y-62.783
X117.934Y-65.323
X117.934Y-67.863
X117.934Y-70.403
X117.934Y-72.943
X117.934Y-75.483
X117.934Y-78.023
X117.934Y-80.563
X117.934Y-83.103
T4
X122.03Y-43.96
X122.03Y-46.5
X122.03Y-49.04
X122.03Y-51.58
X122.03Y-54.12
X122.03Y-56.66
X124.81Y-73.66
X125.58Y-61.05
X125.58Y-63.59
X125.58Y-66.13
X125.87Y-43.79
X125.87Y-46.33
X125.87Y-48.87
X125.87Y-51.41
X125.87Y-53.95
X127.35Y-73.66
X129.89Y-73.66
X129.96Y-43.78
X129.96Y-46.32
X129.96Y-48.86
X129.96Y-51.4
X129.96Y-53.94
X129.96Y-56.48
X129.96Y-59.02
X129.96Y-61.56
X129.96Y-64.1
X129.96Y-66.64
X135.845Y-43.91
X135.845Y-46.45
X135.845Y-48.99
X135.845Y-57.36
X135.845Y-59.9
X135.845Y-62.44
X135.845Y-70.46
X135.845Y-73.0
X135.845Y-75.54
T3
G00X108.332Y-78.69
M15
G01X110.532Y-78.69
M16
G05
G00X108.332Y-84.49
M15
G01X110.532Y-84.49
M16
G05
G00X114.233Y-82.79
M15
G01X114.233Y-80.59
M16
G05
M30
